NewsreaderText-SemiBoldItalic.ufo
<glyph name="exclam" format="2">
	<unicode hex="0021"/>
	<advance width="535.656"/>
	<outline>
		<contour>
			<point x="660.456" y="1276.872" type="line" smooth="yes"/>
			<point x="679.36" y="1336.552"/>
			<point x="622.56" y="1360.208"/>
			<point x="545.632" y="1360.208" type="curve" smooth="yes"/>
			<point x="469.432" y="1360.208"/>
			<point x="410.544" y="1337.128"/>
			<point x="392.792" y="1278.6" type="curve" smooth="yes"/>
			<point x="364.024" y="1176.048" type="line" smooth="yes"/>
			<point x="331.384" y="1065.64"/>
			<point x="308.216" y="854.848"/>
			<point x="240.08" y="440.944" type="curve"/>
			<point x="302.168" y="440.944" type="line"/>
			<point x="487.192" y="854.848"/>
			<point x="592.136" y="1065.64"/>
			<point x="627.656" y="1176.048" type="curve" smooth="yes"/>
		</contour>
		<contour>
			<point x="196.896" y="277" type="curve" smooth="yes"/>
			<point x="99.784" y="277"/>
			<point x="26.52" y="201.552"/>
			<point x="26.52" y="105.928" type="curve" smooth="yes"/>
			<point x="26.52" y="35.936"/>
			<point x="74.184" y="-18.24"/>
			<point x="154.296" y="-18.24" type="curve" smooth="yes"/>
			<point x="251.408" y="-18.24"/>
			<point x="324.672" y="57.208"/>
			<point x="324.672" y="152.832" type="curve" smooth="yes"/>
			<point x="324.672" y="222.824"/>
			<point x="277.008" y="277"/>
		</contour>
	</outline>
</glyph>
<glyph name="ampersand" format="2">
  <advance width="1369.312"/>
  <unicode hex="0026"/>
  <guideline x="785.512" y="346.024" angle="355.95313048398066" identifier="tvCZC1nGx2"/>
  <outline>
    <contour>
      <point x="973.344" y="225.664" type="line"/>
      <point x="1080.736" y="341.24"/>
      <point x="1182.704" y="503.696"/>
      <point x="1273.52" y="724.184" type="curve"/>
      <point x="1420.288" y="771.336" type="line"/>
      <point x="1432.984" y="813.0" type="line"/>
      <point x="998.272" y="813.0" type="line"/>
      <point x="985.0" y="771.336" type="line"/>
      <point x="1113.824" y="724.184" type="line"/>
      <point x="1070.024" y="521.088"/>
      <point x="1005.016" y="380.48"/>
      <point x="932.736" y="294.928" type="curve"/>
      <point x="846.008" y="227.824" type="line"/>
      <point x="753.6" y="147.168"/>
      <point x="646.256" y="121.68"/>
      <point x="546.672" y="121.68" type="curve" smooth="yes"/>
      <point x="377.88" y="121.68"/>
      <point x="285.456" y="213.984"/>
      <point x="285.456" y="354.76800000000003" type="curve" smooth="yes"/>
      <point x="285.456" y="489.56"/>
      <point x="346.64" y="621.176"/>
      <point x="556.744" y="706.52" type="curve"/>
      <point x="694.152" y="761.256" type="line"/>
      <point x="992.608" y="873.448"/>
      <point x="1096.464" y="985.024"/>
      <point x="1096.464" y="1139.304" type="curve" smooth="yes"/>
      <point x="1096.464" y="1268.576"/>
      <point x="998.288" y="1364.24"/>
      <point x="807.48" y="1364.24" type="curve" smooth="yes"/>
      <point x="551.656" y="1364.24"/>
      <point x="399.832" y="1220.032"/>
      <point x="399.832" y="1027.36" type="curve" smooth="yes"/>
      <point x="399.832" y="934.456"/>
      <point x="427.408" y="838.304"/>
      <point x="488.832" y="730.368" type="curve" smooth="yes"/>
      <point x="904.816" y="0.0" type="line"/>
      <point x="1254.616" y="0.0" type="line"/>
      <point x="1266.008" y="42.936" type="line"/>
      <point x="1101.368" y="99.392" type="line"/>
      <point x="672.328" y="845.416" type="line" smooth="yes"/>
      <point x="620.456" y="937.704"/>
      <point x="598.88" y="1009.344"/>
      <point x="598.88" y="1080.072" type="curve" smooth="yes"/>
      <point x="598.88" y="1182.296"/>
      <point x="660.312" y="1273.28"/>
      <point x="792.576" y="1273.28" type="curve" smooth="yes"/>
      <point x="871.888" y="1273.28"/>
      <point x="914.68" y="1226.456"/>
      <point x="914.68" y="1150.576" type="curve" smooth="yes"/>
      <point x="914.68" y="1028.96"/>
      <point x="839.488" y="910.384"/>
      <point x="664.368" y="818.624" type="curve"/>
      <point x="531.168" y="762.944" type="line"/>
      <point x="181.584" y="651.544"/>
      <point x="67.352" y="504.264"/>
      <point x="67.352" y="307.544" type="curve" smooth="yes"/>
      <point x="67.352" y="114.152"/>
      <point x="187.928" y="-23.664"/>
      <point x="446.552" y="-23.664" type="curve" smooth="yes"/>
      <point x="581.8" y="-23.664"/>
      <point x="727.168" y="24.128"/>
      <point x="884.464" y="158.10399999999998" type="curve"/>
    </contour>
  </outline>
</glyph>
<glyph name="quotesingle" format="2">
  <advance width="390"/>
  <unicode hex="0027"/>
  <outline>
    <contour>
      <point x="264.52" y="828.504" type="line"/>
      <point x="352.512" y="828.504" type="line"/>
      <point x="565.768" y="1287.76" type="line"/>
      <point x="582.04" y="1340.0" type="line"/>
      <point x="351.192" y="1340.0" type="line"/>
      <point x="334.92" y="1287.76" type="line"/>
    </contour>
  </outline>
</glyph>
<glyph name="parenleft" format="2">
  <advance width="546"/>
  <unicode hex="0028"/>
  <outline>
    <contour>
      <point x="786.288" y="1376.096" type="curve"/>
      <point x="741.264" y="1423.24" type="line"/>
      <point x="183.728" y="926.44"/>
      <point x="81.216" y="626.96"/>
      <point x="81.216" y="294.44" type="curve" smooth="yes"/>
      <point x="81.216" y="114.848"/>
      <point x="132.328" y="-70.872"/>
      <point x="225.38400000000001" y="-275.0" type="curve"/>
      <point x="287.376" y="-252.488" type="line"/>
      <point x="248.528" y="-108.70400000000001"/>
      <point x="232.528" y="16.567999999999998"/>
      <point x="232.528" y="132.84" type="curve" smooth="yes"/>
      <point x="232.528" y="534.312"/>
      <point x="337.592" y="907.784"/>
    </contour>
  </outline>
</glyph>
<glyph name="plus" format="2">
  <advance width="1000.0"/>
  <unicode hex="002B"/>
  <outline>
    <contour>
      <point x="330.344" y="66.28" type="line"/>
      <point x="446.328" y="66.28" type="line"/>
      <point x="671.96" y="805.72" type="line"/>
      <point x="555.976" y="805.72" type="line"/>
    </contour>
    <contour>
      <point x="148.248" y="490.72" type="line"/>
      <point x="114.616" y="381.28" type="line"/>
      <point x="854.056" y="381.28" type="line"/>
      <point x="887.688" y="490.72" type="line"/>
    </contour>
  </outline>
</glyph>
<glyph name="comma" format="2">
  <advance width="473"/>
  <unicode hex="002C"/>
  <outline>
    <contour>
      <point x="-137.696" y="-303.24" type="curve"/>
      <point x="-99.52" y="-363.296" type="line"/>
      <point x="235.336" y="-143.592"/>
      <point x="309.672" y="-4.744"/>
      <point x="309.672" y="136.8" type="curve" smooth="yes"/>
      <point x="309.672" y="225.944"/>
      <point x="257.584" y="276.424"/>
      <point x="178.352" y="276.424" type="curve" smooth="yes"/>
      <point x="86.176" y="276.424"/>
      <point x="14.672" y="209.00799999999998"/>
      <point x="14.672" y="123.136" type="curve" smooth="yes"/>
      <point x="14.672" y="80.928"/>
      <point x="105.488" y="53.992"/>
      <point x="105.488" y="-25.064" type="curve" smooth="yes"/>
      <point x="105.488" y="-92.64"/>
      <point x="52.336" y="-179.792"/>
    </contour>
  </outline>
</glyph>
<glyph name="hyphen" format="2">
	<unicode hex="002D"/>
	<advance width="675.48"/>
	<outline>
		<contour>
			<point x="140.336" y="517.928" type="line"/>
			<point x="93.584" y="362.976" type="line"/>
			<point x="540.568" y="362.976" type="line"/>
			<point x="587.32" y="517.928" type="line"/>
		</contour>
	</outline>
</glyph>
<glyph name="period" format="2">
	<unicode hex="002E"/>
	<advance width="462.136"/>
	<outline>
		<contour>
			<point x="180.744" y="277" type="curve" smooth="yes"/>
			<point x="83.632" y="277"/>
			<point x="10.368" y="201.552"/>
			<point x="10.368" y="105.928" type="curve" smooth="yes"/>
			<point x="10.368" y="35.936"/>
			<point x="58.032" y="-18.24"/>
			<point x="138.144" y="-18.24" type="curve" smooth="yes"/>
			<point x="235.256" y="-18.24"/>
			<point x="308.52" y="57.208"/>
			<point x="308.52" y="152.832" type="curve" smooth="yes"/>
			<point x="308.52" y="222.824"/>
			<point x="260.856" y="277"/>
		</contour>
	</outline>
</glyph>
<glyph name="slash" format="2">
	<unicode hex="002F"/>
	<advance width="801.456"/>
	<outline>
		<contour>
			<point x="-56.208" y="0" type="line"/>
			<point x="69.272" y="0" type="line"/>
			<point x="1003.392" y="1340" type="line"/>
			<point x="877.336" y="1340" type="line"/>
		</contour>
	</outline>
</glyph>
<glyph name="one" format="2">
  <advance width="1185"/>
  <unicode hex="0031"/>
  <outline>
    <contour>
      <point x="459.824" y="97.24" type="line"/>
      <point x="164.248" y="40.12" type="line"/>
      <point x="151.552" y="0.848" type="line"/>
      <point x="929.864" y="0.848" type="line"/>
      <point x="943.984" y="40.12" type="line"/>
      <point x="694.832" y="94.664" type="line"/>
      <point x="1080.016" y="1351.52" type="line"/>
      <point x="978.696" y="1351.52" type="line"/>
      <point x="351.096" y="1071.344" type="line"/>
      <point x="371.152" y="1015.384" type="line"/>
      <point x="844.248" y="1145.928" type="line"/>
      <point x="810.008" y="1240.52" type="line"/>
    </contour>
  </outline>
</glyph>
<glyph name="colon" format="2">
	<unicode hex="003A"/>
	<advance width="514.504"/>
	<outline>
		<contour>
			<point x="186.624" y="277" type="curve" smooth="yes"/>
			<point x="89.512" y="277"/>
			<point x="16.248" y="201.552"/>
			<point x="16.248" y="105.928" type="curve" smooth="yes"/>
			<point x="16.248" y="35.936"/>
			<point x="63.912" y="-18.24"/>
			<point x="144.024" y="-18.24" type="curve" smooth="yes"/>
			<point x="241.136" y="-18.24"/>
			<point x="314.4" y="57.208"/>
			<point x="314.4" y="152.832" type="curve" smooth="yes"/>
			<point x="314.4" y="222.824"/>
			<point x="266.736" y="277"/>
		</contour>
		<contour>
			<point x="369.176" y="876.992" type="curve" smooth="yes"/>
			<point x="272.064" y="876.992"/>
			<point x="198.8" y="801.544"/>
			<point x="198.8" y="705.92" type="curve" smooth="yes"/>
			<point x="198.8" y="635.928"/>
			<point x="246.464" y="581.752"/>
			<point x="326.576" y="581.752" type="curve" smooth="yes"/>
			<point x="423.688" y="581.752"/>
			<point x="496.952" y="657.2"/>
			<point x="496.952" y="752.824" type="curve" smooth="yes"/>
			<point x="496.952" y="822.816"/>
			<point x="449.288" y="876.992"/>
		</contour>
	</outline>
</glyph>
<glyph name="semicolon" format="2">
  <advance width="527.144"/>
  <unicode hex="003B"/>
  <outline>
    <contour>
      <point x="-129.208" y="-303.24" type="curve"/>
      <point x="-91.032" y="-363.296" type="line"/>
      <point x="243.824" y="-143.592"/>
      <point x="318.15999999999997" y="-4.744"/>
      <point x="318.15999999999997" y="136.8" type="curve" smooth="yes"/>
      <point x="318.15999999999997" y="225.944"/>
      <point x="266.072" y="276.424"/>
      <point x="186.84" y="276.424" type="curve" smooth="yes"/>
      <point x="94.664" y="276.424"/>
      <point x="23.16" y="209.00799999999998"/>
      <point x="23.16" y="123.136" type="curve" smooth="yes"/>
      <point x="23.16" y="80.928"/>
      <point x="113.976" y="53.992"/>
      <point x="113.976" y="-25.064" type="curve" smooth="yes"/>
      <point x="113.976" y="-92.64"/>
      <point x="60.824" y="-179.792"/>
    </contour>
    <contour>
      <point x="373.36" y="876.992" type="curve" smooth="yes"/>
      <point x="276.248" y="876.992"/>
      <point x="202.984" y="801.544"/>
      <point x="202.984" y="705.92" type="curve" smooth="yes"/>
      <point x="202.984" y="635.928"/>
      <point x="250.648" y="581.752"/>
      <point x="330.76" y="581.752" type="curve" smooth="yes"/>
      <point x="427.872" y="581.752"/>
      <point x="501.136" y="657.2"/>
      <point x="501.136" y="752.824" type="curve" smooth="yes"/>
      <point x="501.136" y="822.816"/>
      <point x="453.472" y="876.992"/>
    </contour>
  </outline>
</glyph>
<glyph name="less" format="2">
  <advance width="1000.0"/>
  <unicode hex="003C"/>
  <guideline x="1084.576" y="894.968" angle="172.9284383282427" identifier="rrevOd4Prw"/>
  <outline>
    <contour>
      <point x="124.52" y="395.256" type="line"/>
      <point x="1042.824" y="759.168" type="line"/>
      <point x="1084.576" y="894.968" type="line"/>
      <point x="57.848" y="481.056" type="line"/>
      <point x="30.759999999999998" y="390.944" type="line"/>
      <point x="804.032" y="-22.968" type="line"/>
      <point x="838.088" y="89.2" type="line"/>
      <point x="142.392" y="453.112" type="line"/>
    </contour>
  </outline>
</glyph>
<glyph name="greater" format="2">
  <advance width="1000.0"/>
  <unicode hex="003E"/>
  <outline>
    <contour>
      <point x="877.784" y="477.32" type="line"/>
      <point x="-40.519999999999996" y="113.408" type="line"/>
      <point x="-82.272" y="-22.968" type="line"/>
      <point x="944.456" y="390.944" type="line"/>
      <point x="971.544" y="481.056" type="line"/>
      <point x="198.272" y="894.968" type="line"/>
      <point x="164.216" y="783.376" type="line"/>
      <point x="859.912" y="419.464" type="line"/>
    </contour>
  </outline>
</glyph>
<glyph name="question" format="2">
  <advance width="910.992"/>
  <unicode hex="003F"/>
  <outline>
    <contour>
      <point x="337.944" y="277.0" type="curve" smooth="yes"/>
      <point x="240.832" y="277.0"/>
      <point x="167.568" y="201.552"/>
      <point x="167.568" y="105.928" type="curve" smooth="yes"/>
      <point x="167.568" y="35.936"/>
      <point x="215.232" y="-18.240000000000002"/>
      <point x="295.344" y="-18.240000000000002" type="curve" smooth="yes"/>
      <point x="392.456" y="-18.240000000000002"/>
      <point x="465.72" y="57.208"/>
      <point x="465.72" y="152.832" type="curve" smooth="yes"/>
      <point x="465.72" y="222.824"/>
      <point x="418.056" y="277.0"/>
    </contour>
    <contour>
      <point x="543.112" y="1364.24" type="curve" smooth="yes"/>
      <point x="364.36" y="1364.24"/>
      <point x="302.368" y="1305.216"/>
      <point x="302.368" y="1233.464" type="curve" smooth="yes"/>
      <point x="302.368" y="1182.016"/>
      <point x="341.24" y="1145.112"/>
      <point x="391.752" y="1145.112" type="curve" smooth="yes"/>
      <point x="491.04" y="1145.112"/>
      <point x="531.456" y="1244.128"/>
      <point x="666.704" y="1244.128" type="curve" smooth="yes"/>
      <point x="768.952" y="1244.128"/>
      <point x="844.8" y="1153.632"/>
      <point x="844.8" y="1044.136" type="curve" smooth="yes"/>
      <point x="844.8" y="876.272"/>
      <point x="736.488" y="796.936"/>
      <point x="434.088" y="812.512" type="curve"/>
      <point x="375.704" y="440.944" type="line"/>
      <point x="424.336" y="440.944" type="line"/>
      <point x="558.168" y="761.896" type="line"/>
      <point x="437.88" y="620.064" type="line"/>
      <point x="826.664" y="598.704"/>
      <point x="958.72" y="737.768"/>
      <point x="958.72" y="974.944" type="curve" smooth="yes"/>
      <point x="958.72" y="1189.064"/>
      <point x="798.112" y="1364.24"/>
    </contour>
  </outline>
</glyph>
<glyph name="B" format="2">
	<unicode hex="0042"/>
	<advance width="1285.08"/>
	<outline>
		<contour>
			<point x="597.384" y="1235.04" type="line"/>
			<point x="865.688" y="1235.04" type="line" smooth="yes"/>
			<point x="1000.424" y="1235.04"/>
			<point x="1067.824" y="1172.888"/>
			<point x="1067.824" y="1065.792" type="curve" smooth="yes"/>
			<point x="1067.824" y="891.272"/>
			<point x="944.24" y="763.48"/>
			<point x="766.376" y="763.48" type="curve" smooth="yes"/>
			<point x="459.408" y="763.48" type="line"/>
			<point x="422.624" y="658.52" type="line"/>
			<point x="720.656" y="658.52" type="line" smooth="yes"/>
			<point x="881.12" y="658.52"/>
			<point x="948.064" y="581.368"/>
			<point x="948.064" y="465.728" type="curve" smooth="yes"/>
			<point x="948.064" y="245.664"/>
			<point x="797.968" y="104.96"/>
			<point x="563.912" y="104.96" type="curve" smooth="yes"/>
			<point x="258.68" y="104.96" type="line"/>
			<point x="233.92" y="0" type="line"/>
			<point x="612.36" y="0" type="line" smooth="yes"/>
			<point x="1006.352" y="0"/>
			<point x="1201.68" y="209.8"/>
			<point x="1201.68" y="457.424" type="curve" smooth="yes"/>
			<point x="1201.68" y="605.4618708427"/>
			<point x="1095.9778299574" y="714.6489241332"/>
			<point x="891.328" y="727.12" type="curve"/>
			<point x="898.24" y="712.12" type="line"/>
			<point x="1155.2173309657" y="734.1879730171"/>
			<point x="1306.256" y="873.9901538462"/>
			<point x="1306.256" y="1072.944" type="curve" smooth="yes"/>
			<point x="1306.256" y="1221.424"/>
			<point x="1203.624" y="1340"/>
			<point x="949.088" y="1340" type="curve" smooth="yes"/>
			<point x="642.496" y="1340" type="line"/>
		</contour>
		<contour>
			<point x="471.104" y="1246.456" type="line"/>
			<point x="119.224" y="96.088" type="line"/>
			<point x="-39.144" y="41.12" type="line"/>
			<point x="-51.568" y="0" type="line"/>
			<point x="334.384" y="0" type="line"/>
			<point x="743.96" y="1340" type="line"/>
			<point x="356.736" y="1340" type="line"/>
			<point x="344.312" y="1298.88" type="line"/>
		</contour>
	</outline>
	<anchor name="UCtop" x="866.592" y="1340"/>
	<anchor name="bottom" x="537.944" y="0"/>
</glyph>
<glyph name="D" format="2">
	<unicode hex="0044"/>
	<advance width="1484.168"/>
	<outline>
		<contour>
			<point x="536.408" y="104.96" type="curve" smooth="yes"/>
			<point x="245.064" y="104.96" type="line"/>
			<point x="194.44" y="0" type="line"/>
			<point x="530.2" y="0" type="line" smooth="yes"/>
			<point x="1134.384" y="0"/>
			<point x="1487.704" y="370.36"/>
			<point x="1487.704" y="834.416" type="curve" smooth="yes"/>
			<point x="1487.704" y="1149.008"/>
			<point x="1304.184" y="1340"/>
			<point x="875.552" y="1340" type="curve" smooth="yes"/>
			<point x="604.44" y="1340" type="line"/>
			<point x="585.616" y="1235.04" type="line"/>
			<point x="802.776" y="1235.04" type="line" smooth="yes"/>
			<point x="1094.592" y="1235.04"/>
			<point x="1234.752" y="1099.1724155844"/>
			<point x="1234.752" y="853.68" type="curve" smooth="yes"/>
			<point x="1234.752" y="407.7371428571"/>
			<point x="962.712" y="104.96"/>
		</contour>
		<contour>
			<point x="471.68" y="1251.064" type="line"/>
			<point x="119.224" y="93.208" type="line"/>
			<point x="-36.84" y="40.544" type="line"/>
			<point x="-49.264" y="0" type="line"/>
			<point x="335.536" y="0" type="line"/>
			<point x="742.808" y="1340" type="line"/>
			<point x="354.432" y="1340" type="line"/>
			<point x="342.008" y="1299.456" type="line"/>
		</contour>
	</outline>
	<anchor name="UCtop" x="967.768" y="1340"/>
	<anchor name="bottom" x="639.648" y="0"/>
</glyph>
<glyph name="E" format="2">
	<unicode hex="0045"/>
	<advance width="1255.64"/>
	<outline>
		<contour>
			<point x="471.68" y="1251.064" type="line"/>
			<point x="119.224" y="93.208" type="line"/>
			<point x="-36.84" y="40.544" type="line"/>
			<point x="-49.264" y="0" type="line"/>
			<point x="335.536" y="0" type="line"/>
			<point x="742.808" y="1340" type="line"/>
			<point x="354.432" y="1340" type="line"/>
			<point x="342.008" y="1299.456" type="line"/>
		</contour>
		<contour>
			<point x="1175.648" y="1267.184" type="line"/>
			<point x="1248.032" y="947.672" type="line"/>
			<point x="1303.24" y="947.672" type="line"/>
			<point x="1368" y="1400.448" type="line"/>
			<point x="1344.096" y="1400.448" type="line"/>
			<point x="1209.104" y="1340" type="line"/>
			<point x="612.496" y="1340" type="line"/>
			<point x="577.984" y="1235.04" type="line"/>
			<point x="1217.92" y="1235.04" type="line"/>
		</contour>
		<contour>
			<point x="952.648" y="-68.328" type="line"/>
			<point x="978.672" y="-68.328" type="line"/>
			<point x="1200.144" y="389.68" type="line"/>
			<point x="1157.088" y="413.648" type="line"/>
			<point x="822.928" y="73.936" type="line"/>
			<point x="914.224" y="104.96" type="line"/>
			<point x="237.432" y="104.96" type="line"/>
			<point x="202.496" y="0" type="line"/>
			<point x="852.408" y="0" type="line"/>
		</contour>
		<contour>
			<point x="892.368" y="441" type="line"/>
			<point x="972.368" y="703" type="line"/>
			<point x="1052.368" y="965" type="line"/>
			<point x="966.952" y="965" type="line"/>
			<point x="881.496" y="754.904" type="line"/>
			<point x="433.04" y="754.904" type="line"/>
			<point x="401.952" y="651.096" type="line"/>
			<point x="850.408" y="651.096" type="line"/>
			<point x="806.952" y="441" type="line"/>
		</contour>
	</outline>
	<anchor name="UCtop" x="857.384" y="1340"/>
	<anchor name="right" x="877.656" y="0"/>
	<anchor name="bottom" x="553.2" y="0"/>
</glyph>
<glyph name="F" format="2">
  <advance width="1154"/>
  <unicode hex="0046"/>
  <anchor x="839.688" y="1340.0" name="UCtop"/>
  <anchor x="218.504" y="0.0" name="bottom"/>
  <outline>
    <contour>
      <point x="1042.528" y="930.76" type="line"/>
      <point x="957.112" y="930.76" type="line"/>
      <point x="871.656" y="720.664" type="line"/>
      <point x="423.2" y="720.664" type="line"/>
      <point x="392.112" y="616.856" type="line"/>
      <point x="840.568" y="616.856" type="line"/>
      <point x="797.112" y="406.76" type="line"/>
      <point x="882.528" y="406.76" type="line"/>
      <point x="962.528" y="668.76" type="line"/>
    </contour>
    <contour>
      <point x="1280.936" y="947.672" type="line"/>
      <point x="1345.696" y="1400.448" type="line"/>
      <point x="1321.792" y="1400.448" type="line"/>
      <point x="1186.8" y="1340.0" type="line"/>
      <point x="604.016" y="1340.0" type="line"/>
      <point x="569.504" y="1235.04" type="line"/>
      <point x="1195.616" y="1235.04" type="line"/>
      <point x="1153.344" y="1267.184" type="line"/>
      <point x="1225.728" y="947.672" type="line"/>
    </contour>
    <contour>
      <point x="362.23199999999997" y="88.936" type="line"/>
      <point x="743.232" y="1340.0" type="line"/>
      <point x="354.432" y="1340.0" type="line"/>
      <point x="342.008" y="1299.456" type="line"/>
      <point x="471.68" y="1251.064" type="line"/>
      <point x="119.224" y="93.208" type="line"/>
      <point x="-36.84" y="40.544" type="line"/>
      <point x="-49.263999999999996" y="0.0" type="line"/>
      <point x="479.48" y="0.0" type="line"/>
      <point x="491.904" y="40.544" type="line"/>
    </contour>
  </outline>
</glyph>
<glyph name="G" format="2">
  <advance width="1460"/>
  <unicode hex="0047"/>
  <anchor x="993.488" y="1340.0" name="UCtop"/>
  <anchor x="712.648" y="0.0" name="bottom"/>
  <outline>
    <contour>
      <point x="800.696" y="84.776" type="curve" smooth="yes"/>
      <point x="552.592" y="84.776"/>
      <point x="396.592" y="238.536"/>
      <point x="396.592" y="528.456" type="curve" smooth="yes"/>
      <point x="396.592" y="943.816"/>
      <point x="674.454027027027" y="1256.768"/>
      <point x="1060.888" y="1256.768" type="curve" smooth="yes"/>
      <point x="1175.44" y="1256.768"/>
      <point x="1247.928" y="1227.984"/>
      <point x="1334.36" y="1163.104" type="curve"/>
      <point x="1262.04" y="1249.504" type="line"/>
      <point x="1361.168" y="916.496" type="line"/>
      <point x="1413.768" y="916.496" type="line"/>
      <point x="1469.24" y="1406.48" type="line"/>
      <point x="1440.368" y="1406.48" type="line"/>
      <point x="1292.4" y="1309.488" type="line"/>
      <point x="1404.824" y="1313.424" type="line"/>
      <point x="1296.92" y="1353.816"/>
      <point x="1191.832" y="1364.24"/>
      <point x="1077.232" y="1364.24" type="curve" smooth="yes"/>
      <point x="546.2869083333334" y="1364.24"/>
      <point x="142.28" y="1007.632"/>
      <point x="142.28" y="505.816" type="curve" smooth="yes"/>
      <point x="142.28" y="181.696"/>
      <point x="362.0" y="-24.240000000000002"/>
      <point x="753.872" y="-24.240000000000002" type="curve" smooth="yes"/>
      <point x="935.248" y="-24.240000000000002"/>
      <point x="1100.8302592015316" y="1.188753067177184"/>
      <point x="1233.848" y="54.552" type="curve"/>
      <point x="1235.544" y="62.608" type="line"/>
      <point x="1232.28" y="163.432" type="line"/>
      <point x="1336.4" y="505.368" type="line"/>
      <point x="1469.008" y="558.032" type="line"/>
      <point x="1481.432" y="598.576" type="line"/>
      <point x="952.688" y="598.576" type="line"/>
      <point x="940.264" y="558.032" type="line"/>
      <point x="1093.392" y="509.64" type="line"/>
      <point x="956.36" y="61.664" type="line"/>
      <point x="1057.424" y="153.256" type="line"/>
      <point x="992.048" y="112.12"/>
      <point x="883.776" y="84.776"/>
    </contour>
  </outline>
</glyph>
<glyph name="H" format="2">
  <advance width="1560.848"/>
  <unicode hex="0048"/>
  <anchor x="1028.92" y="1340.0" name="UCtop"/>
  <anchor x="659.816" y="0.0" name="bottom"/>
  <outline>
    <contour>
      <point x="388.168" y="631.368" type="line"/>
      <point x="1293.168" y="631.368" type="line"/>
      <point x="1324.832" y="736.328" type="line"/>
      <point x="419.832" y="736.328" type="line"/>
    </contour>
    <contour>
      <point x="471.68" y="1251.064" type="line"/>
      <point x="119.224" y="93.208" type="line"/>
      <point x="-36.84" y="40.544" type="line"/>
      <point x="-49.263999999999996" y="0.0" type="line"/>
      <point x="479.48" y="0.0" type="line"/>
      <point x="491.904" y="40.544" type="line"/>
      <point x="362.23199999999997" y="88.936" type="line"/>
      <point x="714.688" y="1246.792" type="line"/>
      <point x="870.752" y="1299.456" type="line"/>
      <point x="883.176" y="1340.0" type="line"/>
      <point x="354.432" y="1340.0" type="line"/>
      <point x="342.008" y="1299.456" type="line"/>
    </contour>
    <contour>
      <point x="1344.344" y="1251.064" type="line"/>
      <point x="991.888" y="93.208" type="line"/>
      <point x="835.824" y="40.544" type="line"/>
      <point x="823.4" y="0.0" type="line"/>
      <point x="1352.144" y="0.0" type="line"/>
      <point x="1364.568" y="40.544" type="line"/>
      <point x="1234.896" y="88.936" type="line"/>
      <point x="1587.352" y="1246.792" type="line"/>
      <point x="1743.416" y="1299.456" type="line"/>
      <point x="1755.84" y="1340.0" type="line"/>
      <point x="1227.096" y="1340.0" type="line"/>
      <point x="1214.672" y="1299.456" type="line"/>
    </contour>
  </outline>
</glyph>
<glyph name="I" format="2">
	<unicode hex="0049"/>
	<advance width="688.184"/>
	<outline>
		<contour>
			<point x="471.68" y="1251.064" type="line"/>
			<point x="119.224" y="93.208" type="line"/>
			<point x="-36.84" y="40.544" type="line"/>
			<point x="-49.264" y="0" type="line"/>
			<point x="479.48" y="0" type="line"/>
			<point x="491.904" y="40.544" type="line"/>
			<point x="362.232" y="88.936" type="line"/>
			<point x="714.688" y="1246.792" type="line"/>
			<point x="870.752" y="1299.456" type="line"/>
			<point x="883.176" y="1340" type="line"/>
			<point x="354.432" y="1340" type="line"/>
			<point x="342.008" y="1299.456" type="line"/>
		</contour>
	</outline>
	<anchor name="UCtop" x="612.528" y="1340"/>
	<anchor name="right" x="292.368" y="0"/>
	<anchor name="bottom" x="215.2" y="0"/>
</glyph>
<glyph name="J" format="2">
  <advance width="855.032"/>
  <unicode hex="004A"/>
  <anchor x="803.04" y="1340.0" name="UCtop"/>
  <anchor x="321.584" y="0.0" name="bottom"/>
  <outline>
    <contour>
      <point x="665.168" y="430.528" type="curve" smooth="yes"/>
      <point x="913.992" y="1246.792" type="line"/>
      <point x="1070.056" y="1299.456" type="line"/>
      <point x="1082.48" y="1340.0" type="line"/>
      <point x="553.736" y="1340.0" type="line"/>
      <point x="541.312" y="1299.456" type="line"/>
      <point x="670.984" y="1251.064" type="line"/>
      <point x="371.168" y="266.128" type="line" smooth="yes"/>
      <point x="330.376" y="133.024"/>
      <point x="261.76" y="90.384"/>
      <point x="184.512" y="90.384" type="curve" smooth="yes"/>
      <point x="106.93563195143057" y="90.384"/>
      <point x="57.176" y="192.952"/>
      <point x="7.055999999999999" y="192.952" type="curve" smooth="yes"/>
      <point x="-53.912" y="192.952"/>
      <point x="-92.392" y="149.864"/>
      <point x="-92.392" y="95.024" type="curve" smooth="yes"/>
      <point x="-92.392" y="23.696"/>
      <point x="-27.240000000000002" y="-23.816"/>
      <point x="83.72" y="-23.816" type="curve" smooth="yes"/>
      <point x="348.368" y="-23.816"/>
      <point x="581.624" y="156.32"/>
    </contour>
  </outline>
</glyph>
<glyph name="K" format="2">
	<unicode hex="004B"/>
	<advance width="1425.472"/>
	<outline>
		<contour>
			<point x="1218.336" y="87.056" type="line"/>
			<point x="836.56" y="798.248" type="line"/>
			<point x="780.176" y="699.744" type="line"/>
			<point x="1464.288" y="1251.76" type="line"/>
			<point x="1623.016" y="1299.456" type="line"/>
			<point x="1635.288" y="1340" type="line"/>
			<point x="1213.024" y="1340" type="line"/>
			<point x="1200.752" y="1299.456" type="line"/>
			<point x="1333.208" y="1254.64" type="line"/>
			<point x="699.592" y="746.48" type="line"/>
			<point x="478.28" y="746.48" type="line"/>
			<point x="444.344" y="643.52" type="line"/>
			<point x="648.608" y="643.52" type="line"/>
			<point x="939.184" y="86.24" type="line"/>
			<point x="797.12" y="40.544" type="line"/>
			<point x="784.848" y="0" type="line"/>
			<point x="1326.768" y="0" type="line"/>
			<point x="1339.04" y="40.544" type="line"/>
		</contour>
		<contour>
			<point x="471.68" y="1251.064" type="line"/>
			<point x="119.224" y="93.208" type="line"/>
			<point x="-36.84" y="40.544" type="line"/>
			<point x="-49.264" y="0" type="line"/>
			<point x="479.48" y="0" type="line"/>
			<point x="491.904" y="40.544" type="line"/>
			<point x="362.232" y="88.936" type="line"/>
			<point x="714.688" y="1246.792" type="line"/>
			<point x="870.752" y="1299.456" type="line"/>
			<point x="883.176" y="1340" type="line"/>
			<point x="354.432" y="1340" type="line"/>
			<point x="342.008" y="1299.456" type="line"/>
		</contour>
	</outline>
	<anchor name="UCtop" x="981.368" y="1340"/>
	<anchor name="bottom" x="666.192" y="0"/>
</glyph>
<glyph name="L" format="2">
	<unicode hex="004C"/>
	<advance width="1170.904"/>
	<outline>
		<contour>
			<point x="714.264" y="1244.672" type="line"/>
			<point x="871.176" y="1298.608" type="line"/>
			<point x="884.448" y="1340" type="line"/>
			<point x="355.704" y="1340" type="line"/>
			<point x="342.856" y="1298.608" type="line"/>
			<point x="470.408" y="1246.4" type="line"/>
			<point x="120.072" y="95.328" type="line"/>
			<point x="-36.84" y="41.392" type="line"/>
			<point x="-49.688" y="0" type="line"/>
			<point x="335.96" y="0" type="line"/>
		</contour>
		<contour>
			<point x="758.528" y="73.936" type="line"/>
			<point x="849.824" y="104.96" type="line"/>
			<point x="230.632" y="104.96" type="line"/>
			<point x="195.696" y="0" type="line"/>
			<point x="788.008" y="0" type="line"/>
			<point x="886.128" y="-72.992" type="line"/>
			<point x="912.152" y="-72.992" type="line"/>
			<point x="1139.984" y="402.4" type="line"/>
			<point x="1096.928" y="426.368" type="line"/>
		</contour>
	</outline>
	<anchor name="UCtop" x="604.888" y="1340"/>
	<anchor name="right" x="964.528" y="1340"/>
	<anchor name="bottom" x="512.752" y="0"/>
	<anchor name="mid" x="1007.08" y="702"/>
</glyph>
<glyph name="N" format="2">
	<unicode hex="004E"/>
	<advance width="1451.392"/>
	<outline>
		<contour>
			<point x="1132.648" y="240.296" type="line"/>
			<point x="718.904" y="1340" type="line"/>
			<point x="337.856" y="1340" type="line"/>
			<point x="326.856" y="1302.424" type="line"/>
			<point x="471.288" y="1227.704" type="line"/>
			<point x="124.376" y="91.512" type="line"/>
			<point x="-31.688" y="40.544" type="line"/>
			<point x="-44.112" y="0" type="line"/>
			<point x="346.28" y="0" type="line"/>
			<point x="358.704" y="40.544" type="line"/>
			<point x="223.52" y="89.784" type="line"/>
			<point x="570.672" y="1224.816" type="line"/>
			<point x="524.344" y="1222.224" type="line"/>
			<point x="980.28" y="-11.52" type="line"/>
			<point x="1112.016" y="-11.52" type="line"/>
			<point x="1497.2" y="1248.488" type="line"/>
			<point x="1653.264" y="1299.456" type="line"/>
			<point x="1665.688" y="1340" type="line"/>
			<point x="1275.296" y="1340" type="line"/>
			<point x="1262.872" y="1299.456" type="line"/>
			<point x="1398.056" y="1250.216" type="line"/>
			<point x="1069.816" y="176.8" type="line"/>
		</contour>
	</outline>
	<anchor name="UCtop" x="995.632" y="1340"/>
	<anchor name="bottom" x="655.064" y="0"/>
</glyph>
<glyph name="O" format="2">
	<unicode hex="004F"/>
	<advance width="1501.472"/>
	<outline>
		<contour>
			<point x="387.6" y="444.968" type="curve" smooth="yes"/>
			<point x="387.6" y="858.3829239766"/>
			<point x="642.312" y="1257.192"/>
			<point x="959.408" y="1257.192" type="curve" smooth="yes"/>
			<point x="1151.496" y="1257.192"/>
			<point x="1259.176" y="1140.416"/>
			<point x="1259.176" y="895.032" type="curve" smooth="yes"/>
			<point x="1259.176" y="481.808"/>
			<point x="1004.464" y="82.808"/>
			<point x="687.368" y="82.808" type="curve" smooth="yes"/>
			<point x="495.28" y="82.808"/>
			<point x="387.6" y="199.699063197"/>
		</contour>
		<contour>
			<point x="1501.312" y="826.904" type="curve" smooth="yes"/>
			<point x="1501.312" y="1166.632"/>
			<point x="1300.28" y="1364.24"/>
			<point x="957.2" y="1364.24" type="curve" smooth="yes"/>
			<point x="491.064" y="1364.24"/>
			<point x="145.464" y="966.032"/>
			<point x="145.464" y="513.096" type="curve" smooth="yes"/>
			<point x="145.464" y="173.368"/>
			<point x="346.496" y="-24.24"/>
			<point x="689.576" y="-24.24" type="curve" smooth="yes"/>
			<point x="1155.712" y="-24.24"/>
			<point x="1501.312" y="373.968"/>
		</contour>
	</outline>
	<anchor name="UCtop" x="996.768" y="1340"/>
	<anchor name="bottom" x="633" y="0"/>
	<anchor name="right" x="691.368" y="0"/>
	<anchor name="horn" x="1212.96" y="1340"/>
</glyph>
<glyph name="P" format="2">
	<unicode hex="0050"/>
	<advance width="1213.416"/>
	<outline>
		<contour>
			<point x="739.408" y="674.576" type="curve" smooth="yes"/>
			<point x="368.432" y="674.576" type="line"/>
			<point x="341.408" y="569.616" type="line"/>
			<point x="731.152" y="569.616" type="line" smooth="yes"/>
			<point x="1126.92" y="569.616"/>
			<point x="1337.168" y="766.52"/>
			<point x="1337.168" y="1035.552" type="curve" smooth="yes"/>
			<point x="1337.168" y="1204.368"/>
			<point x="1219.016" y="1340"/>
			<point x="902" y="1340" type="curve" smooth="yes"/>
			<point x="578.496" y="1340" type="line"/>
			<point x="536.496" y="1235.04" type="line"/>
			<point x="843.288" y="1235.04" type="line" smooth="yes"/>
			<point x="1019.24" y="1235.04"/>
			<point x="1093.064" y="1158.704"/>
			<point x="1093.064" y="1026.816" type="curve" smooth="yes"/>
			<point x="1093.064" y="811.72"/>
			<point x="965.048" y="674.576"/>
		</contour>
		<contour>
			<point x="362.232" y="88.936" type="line"/>
			<point x="743.232" y="1340" type="line"/>
			<point x="354.432" y="1340" type="line"/>
			<point x="342.008" y="1299.456" type="line"/>
			<point x="471.68" y="1251.064" type="line"/>
			<point x="119.224" y="93.208" type="line"/>
			<point x="-36.84" y="40.544" type="line"/>
			<point x="-49.264" y="0" type="line"/>
			<point x="479.48" y="0" type="line"/>
			<point x="491.904" y="40.544" type="line"/>
		</contour>
	</outline>
	<anchor name="UCtop" x="877.44" y="1340"/>
	<anchor name="bottom" x="209.288" y="0"/>
</glyph>
<glyph name="Q" format="2">
	<unicode hex="0051"/>
	<advance width="1494.656"/>
	<outline>
		<contour>
			<point x="683.768" y="-225.68" type="line" smooth="yes"/>
			<point x="830.16" y="-353.128"/>
			<point x="904.816" y="-395.968"/>
			<point x="1080.544" y="-395.968" type="curve" smooth="yes"/>
			<point x="1196.048" y="-395.968"/>
			<point x="1268.616" y="-380.272"/>
			<point x="1355.616" y="-353.816" type="curve"/>
			<point x="1372.824" y="-297.344" type="line"/>
			<point x="1226.224" y="-312.528"/>
			<point x="1158.368" y="-289.296"/>
			<point x="979.152" y="-173.168" type="curve" smooth="yes"/>
			<point x="619.336" y="58.688" type="line"/>
			<point x="669.336" y="-1.76" type="line"/>
			<point x="1152.664" y="-45.824"/>
			<point x="1497.496" y="398.312"/>
			<point x="1497.496" y="829.448" type="curve" smooth="yes"/>
			<point x="1497.496" y="1164.936"/>
			<point x="1293.496" y="1364.24"/>
			<point x="951.688" y="1364.24" type="curve" smooth="yes"/>
			<point x="496.152" y="1364.24"/>
			<point x="145.04" y="966.456"/>
			<point x="145.04" y="510.552" type="curve" smooth="yes"/>
			<point x="145.04" y="320.12"/>
			<point x="208.952" y="183.36"/>
			<point x="322.048" y="85.632" type="curve" smooth="yes"/>
		</contour>
		<contour>
			<point x="394.384" y="460.232" type="curve" smooth="yes"/>
			<point x="394.384" y="876.7615228677"/>
			<point x="640.616" y="1256.768"/>
			<point x="948.384" y="1256.768" type="curve" smooth="yes"/>
			<point x="1137.928" y="1256.768"/>
			<point x="1248.152" y="1131.9288135593"/>
			<point x="1248.152" y="879.768" type="curve" smooth="yes"/>
			<point x="1248.152" y="463.2384771323"/>
			<point x="1001.92" y="83.232"/>
			<point x="694.152" y="83.232" type="curve" smooth="yes"/>
			<point x="504.608" y="83.232"/>
			<point x="394.384" y="208.0711864407"/>
		</contour>
	</outline>
	<anchor name="UCtop" x="994.648" y="1340"/>
	<anchor name="bottom" x="520.408" y="-153.344"/>
</glyph>
<glyph name="U" format="2">
  <advance width="1467"/>
  <unicode hex="0055"/>
  <anchor x="1021.928" y="1340.0" name="UCtop"/>
  <anchor x="747.4639999999999" y="0.0" name="right"/>
  <anchor x="634.128" y="0.0" name="bottom"/>
  <anchor x="1511.312" y="1340.0" name="horn"/>
  <outline>
    <contour>
      <point x="468.624" y="529.688" type="curve" smooth="yes"/>
      <point x="687.4159999999999" y="1246.792" type="line"/>
      <point x="843.48" y="1299.456" type="line"/>
      <point x="855.904" y="1340.0" type="line"/>
      <point x="327.16" y="1340.0" type="line"/>
      <point x="314.736" y="1299.456" type="line"/>
      <point x="444.408" y="1251.064" type="line"/>
      <point x="220.40800000000002" y="517.912" type="line" smooth="yes"/>
      <point x="113.344" y="167.992"/>
      <point x="299.424" y="-24.240000000000002"/>
      <point x="661.168" y="-24.240000000000002" type="curve" smooth="yes"/>
      <point x="971.096" y="-24.240000000000002"/>
      <point x="1185.52" y="127.6"/>
      <point x="1289.672" y="469.512" type="curve" smooth="yes"/>
      <point x="1527.128" y="1248.488" type="line"/>
      <point x="1683.192" y="1299.456" type="line"/>
      <point x="1695.616" y="1340.0" type="line"/>
      <point x="1305.224" y="1340.0" type="line"/>
      <point x="1292.8" y="1299.456" type="line"/>
      <point x="1427.984" y="1250.216" type="line"/>
      <point x="1204.16" y="516.984" type="line" smooth="yes"/>
      <point x="1118.52" y="235.76"/>
      <point x="956.84" y="136.51999999999998"/>
      <point x="742.568" y="136.51999999999998" type="curve" smooth="yes"/>
      <point x="477.072" y="136.51999999999998"/>
      <point x="387.86400000000003" y="264.832"/>
    </contour>
  </outline>
</glyph>
<glyph name="V" format="2">
  <advance width="1345"/>
  <unicode hex="0056"/>
  <anchor x="961.032" y="1340.0" name="UCtop"/>
  <anchor x="573.552" y="0.0" name="bottom"/>
  <outline>
    <contour>
      <point x="362.488" y="1243.976" type="line"/>
      <point x="477.552" y="-11.52" type="line"/>
      <point x="614.984" y="-11.52" type="line"/>
      <point x="1455.656" y="1248.944" type="line"/>
      <point x="1615.416" y="1299.456" type="line"/>
      <point x="1627.688" y="1340.0" type="line"/>
      <point x="1207.392" y="1340.0" type="line"/>
      <point x="1195.12" y="1299.456" type="line"/>
      <point x="1330.848" y="1248.944" type="line"/>
      <point x="624.232" y="163.232" type="line"/>
      <point x="688.504" y="166.624" type="line"/>
      <point x="604.376" y="1246.824" type="line"/>
      <point x="779.168" y="1299.456" type="line"/>
      <point x="791.864" y="1340.0" type="line"/>
      <point x="249.216" y="1340.0" type="line"/>
      <point x="236.944" y="1299.456" type="line"/>
    </contour>
  </outline>
</glyph>
<glyph name="W" format="2">
  <advance width="1899"/>
  <unicode hex="0057"/>
  <anchor x="1261.496" y="1340.0" name="UCtop"/>
  <anchor x="856.736" y="0.0" name="bottom"/>
  <outline>
    <contour>
      <point x="1885.52" y="1247.216" type="line"/>
      <point x="1341.2" y="205.664" type="line"/>
      <point x="1416.272" y="227.824" type="line"/>
      <point x="1370.04" y="1351.52" type="line"/>
      <point x="1229.76" y="1351.52" type="line"/>
      <point x="511.488" y="250.016" type="line"/>
      <point x="559.52" y="249.168" type="line"/>
      <point x="613.016" y="1245.096" type="line"/>
      <point x="787.232" y="1300.032" type="line"/>
      <point x="799.928" y="1340.0" type="line"/>
      <point x="257.824" y="1340.0" type="line"/>
      <point x="245.552" y="1300.032" type="line"/>
      <point x="371.096" y="1242.248" type="line"/>
      <point x="311.536" y="-11.52" type="line"/>
      <point x="448.392" y="-11.52" type="line"/>
      <point x="1194.8" y="1113.312" type="line"/>
      <point x="1131.128" y="1101.184" type="line"/>
      <point x="1185.536" y="-11.52" type="line"/>
      <point x="1322.392" y="-11.52" type="line"/>
      <point x="2008.024" y="1247.216" type="line"/>
      <point x="2162.024" y="1300.032" type="line"/>
      <point x="2174.296" y="1340.0" type="line"/>
      <point x="1756.304" y="1340.0" type="line"/>
      <point x="1744.032" y="1300.032" type="line"/>
    </contour>
  </outline>
</glyph>
<glyph name="X" format="2">
  <advance width="1377.84"/>
  <unicode hex="0058"/>
  <anchor x="964.736" y="1340.0" name="UCtop"/>
  <anchor x="555.736" y="0.0" name="bottom"/>
  <outline>
    <contour>
      <point x="749.416" y="633.192" type="line"/>
      <point x="827.608" y="685.784" type="line"/>
      <point x="1418.36" y="1242.792" type="line"/>
      <point x="1580.632" y="1299.456" type="line"/>
      <point x="1593.48" y="1340.0" type="line"/>
      <point x="1171.88" y="1340.0" type="line"/>
      <point x="1159.032" y="1299.456" type="line"/>
      <point x="1289.464" y="1245.096" type="line"/>
      <point x="787.52" y="760.96" type="line"/>
      <point x="707.024" y="709.032" type="line"/>
      <point x="45.76" y="97.208" type="line"/>
      <point x="-116.512" y="40.544" type="line"/>
      <point x="-129.36" y="0.0" type="line"/>
      <point x="295.48" y="0.0" type="line"/>
      <point x="308.328" y="40.544" type="line"/>
      <point x="179.472" y="94.904" type="line"/>
    </contour>
    <contour>
      <point x="886.464" y="94.904" type="line"/>
      <point x="717.92" y="40.544" type="line"/>
      <point x="705.072" y="0.0" type="line"/>
      <point x="1272.104" y="0.0" type="line"/>
      <point x="1285.376" y="40.544" type="line"/>
      <point x="1154.584" y="96.904" type="line"/>
      <point x="877.08" y="771.072" type="line"/>
      <point x="863.96" y="801.736" type="line"/>
      <point x="684.256" y="1246.248" type="line"/>
      <point x="855.104" y="1299.456" type="line"/>
      <point x="867.952" y="1340.0" type="line"/>
      <point x="300.92" y="1340.0" type="line"/>
      <point x="288.072" y="1299.456" type="line"/>
      <point x="415.984" y="1244.248" type="line"/>
      <point x="666.552" y="637.256" type="line"/>
      <point x="679.792" y="606.08" type="line"/>
    </contour>
  </outline>
</glyph>
<glyph name="Y" format="2">
  <advance width="1336"/>
  <unicode hex="0059"/>
  <anchor x="921.496" y="1340.0" name="UCtop"/>
  <anchor x="565.888" y="0.0" name="bottom"/>
  <outline>
    <contour>
      <point x="1308.544" y="1252.976" type="line"/>
      <point x="779.96" y="634.056" type="line"/>
      <point x="828.928" y="633.328" type="line"/>
      <point x="618.168" y="1247.976" type="line"/>
      <point x="784.896" y="1299.456" type="line"/>
      <point x="798.168" y="1340.0" type="line"/>
      <point x="255.52" y="1340.0" type="line"/>
      <point x="242.672" y="1299.456" type="line"/>
      <point x="371.672" y="1245.128" type="line"/>
      <point x="610.912" y="586.936" type="line"/>
      <point x="460.488" y="93.208" type="line"/>
      <point x="304.424" y="40.544" type="line"/>
      <point x="292.0" y="0.0" type="line"/>
      <point x="820.744" y="0.0" type="line"/>
      <point x="833.168" y="40.544" type="line"/>
      <point x="703.496" y="88.936" type="line"/>
      <point x="856.496" y="591.392" type="line"/>
      <point x="1428.232" y="1251.248" type="line"/>
      <point x="1583.384" y="1299.456" type="line"/>
      <point x="1596.232" y="1340.0" type="line"/>
      <point x="1180.48" y="1340.0" type="line"/>
      <point x="1167.632" y="1299.456" type="line"/>
    </contour>
  </outline>
</glyph>
<glyph name="Z" format="2">
  <advance width="1238"/>
  <unicode hex="005A"/>
  <anchor x="884.72" y="1340.0" name="UCtop"/>
  <anchor x="519.64" y="0.0" name="bottom"/>
  <outline>
    <contour>
      <point x="1408.04" y="1340.0" type="line"/>
      <point x="568.6" y="1340.0" type="line"/>
      <point x="453.488" y="1405.36" type="line"/>
      <point x="427.128" y="1405.36" type="line"/>
      <point x="220.072" y="961.16" type="line"/>
      <point x="261.28" y="936.648" type="line"/>
      <point x="557.576" y="1235.04" type="line"/>
      <point x="1184.4" y="1235.04" type="line"/>
      <point x="1084.152" y="1271.0" type="line"/>
      <point x="-13.64" y="38.656" type="line"/>
      <point x="-25.152" y="0.0" type="line"/>
      <point x="851.92" y="0.0" type="line"/>
      <point x="959.792" y="-58.751999999999995" type="line"/>
      <point x="982.848" y="-58.751999999999995" type="line"/>
      <point x="1171.448" y="369.168" type="line"/>
      <point x="1127.784" y="380.984" type="line"/>
      <point x="866.824" y="104.96000000000001" type="line"/>
      <point x="210.024" y="104.96000000000001" type="line"/>
      <point x="293.312" y="69.0" type="line"/>
      <point x="1396.104" y="1301.344" type="line"/>
    </contour>
  </outline>
</glyph>
<glyph name="bracketleft" format="2">
  <advance width="603"/>
  <unicode hex="005B"/>
  <outline>
    <contour>
      <point x="-33.568" y="-254.608" type="line"/>
      <point x="364.28" y="-254.608" type="line"/>
      <point x="389.096" y="-171.888" type="line"/>
      <point x="156.44" y="-171.888" type="line"/>
      <point x="611.536" y="1316.28" type="line"/>
      <point x="844.192" y="1316.28" type="line"/>
      <point x="870.008" y="1399.0" type="line"/>
      <point x="471.584" y="1399.0" type="line"/>
    </contour>
  </outline>
</glyph>
<glyph name="backslash" format="2">
  <advance width="741.24"/>
  <unicode hex="005C"/>
  <outline>
    <contour>
      <point x="561.056" y="0.0" type="line"/>
      <point x="431.088" y="1340.0" type="line"/>
      <point x="327.064" y="1340.0" type="line"/>
      <point x="457.184" y="0.0" type="line"/>
    </contour>
  </outline>
</glyph>
<glyph name="bracketright" format="2">
  <advance width="604.704"/>
  <unicode hex="005D"/>
  <outline>
    <contour>
      <point x="724.848" y="1399.576" type="line"/>
      <point x="327.0" y="1399.576" type="line"/>
      <point x="301.76" y="1316.856" type="line"/>
      <point x="534.84" y="1316.856" type="line"/>
      <point x="79.744" y="-171.312" type="line"/>
      <point x="-153.336" y="-171.312" type="line"/>
      <point x="-178.728" y="-254.032" type="line"/>
      <point x="219.696" y="-254.032" type="line"/>
    </contour>
  </outline>
</glyph>
<glyph name="asciicircum" format="2">
	<unicode hex="005E"/>
	<advance width="1000"/>
	<outline>
		<contour>
			<point x="738.344" y="1246" type="line"/>
			<point x="819.944" y="592" type="line"/>
			<point x="927.808" y="592" type="line"/>
			<point x="830.208" y="1340" type="line"/>
			<point x="729.248" y="1340" type="line"/>
			<point x="177.648" y="592" type="line"/>
			<point x="304.904" y="592" type="line"/>
			<point x="784.504" y="1246" type="line"/>
		</contour>
	</outline>
</glyph>
<glyph name="a" format="2">
	<unicode hex="0061"/>
	<advance width="1028.576"/>
	<outline>
		<contour>
			<point x="525.736" y="65.352" type="line" smooth="yes"/>
			<point x="505.528" y="4.728"/>
			<point x="539.888" y="-24.24"/>
			<point x="625.72" y="-24.24" type="curve" smooth="yes"/>
			<point x="739.312" y="-24.24"/>
			<point x="861.208" y="51.96"/>
			<point x="1005.632" y="234.432" type="curve"/>
			<point x="970" y="269.824" type="line"/>
			<point x="873.52" y="173.984"/>
			<point x="781" y="128.104"/>
			<point x="704.4" y="131.472" type="curve"/>
			<point x="735.816" y="71.424" type="line"/>
			<point x="990.208" y="860.48" type="line"/>
			<point x="870.48" y="860.48" type="line"/>
			<point x="757.536" y="813.416" type="line"/>
			<point x="630.784" y="467.92" type="line" smooth="yes"/>
			<point x="559.36" y="271.664"/>
			<point x="394.184" y="137.344"/>
			<point x="313.392" y="137.344" type="curve" smooth="yes"/>
			<point x="269.48" y="137.344"/>
			<point x="244.928" y="157.984"/>
			<point x="244.928" y="209.624" type="curve" smooth="yes"/>
			<point x="244.928" y="372.352"/>
			<point x="429.08" y="771.976"/>
			<point x="627.952" y="771.976" type="curve" smooth="yes"/>
			<point x="689.192" y="771.976"/>
			<point x="725.344" y="738.432"/>
			<point x="737.616" y="701.768" type="curve"/>
			<point x="785.248" y="766.368" type="line"/>
			<point x="731.376" y="842.416"/>
			<point x="671.112" y="873.232"/>
			<point x="583.512" y="873.232" type="curve" smooth="yes"/>
			<point x="280.152" y="873.232"/>
			<point x="14.248" y="452.2"/>
			<point x="14.248" y="181.272" type="curve" smooth="yes"/>
			<point x="14.248" y="41.544"/>
			<point x="93.424" y="-22.512"/>
			<point x="209.632" y="-22.512" type="curve" smooth="yes"/>
			<point x="330.44" y="-22.512"/>
			<point x="448.528" y="56.432"/>
			<point x="657.856" y="387.776" type="curve"/>
			<point x="631.432" y="387.776" type="line"/>
		</contour>
	</outline>
	<anchor name="top" x="649.48" y="860.48"/>
	<anchor name="right" x="766.44" y="0"/>
	<anchor name="bottom" x="378.456" y="0"/>
</glyph>
<glyph name="b" format="2">
  <advance width="967.984"/>
  <unicode hex="0062"/>
  <anchor x="783.656" y="1340.424" name="UCtop"/>
  <anchor x="327.496" y="0.0" name="bottom"/>
  <outline>
    <contour>
      <point x="284.088" y="315.304" type="curve" smooth="yes"/>
      <point x="297.664" y="360.912" type="line" smooth="yes"/>
      <point x="351.088" y="541.552"/>
      <point x="503.312" y="713.32"/>
      <point x="609.472" y="713.32" type="curve" smooth="yes"/>
      <point x="669.328" y="713.32"/>
      <point x="698.968" y="675.224"/>
      <point x="698.968" y="595.672" type="curve" smooth="yes"/>
      <point x="698.968" y="351.128"/>
      <point x="508.896" y="57.024"/>
      <point x="356.88" y="57.024" type="curve" smooth="yes"/>
      <point x="293.816" y="57.024"/>
      <point x="259.088" y="94.056"/>
      <point x="259.088" y="172.816" type="curve" smooth="yes"/>
      <point x="259.088" y="210.12"/>
      <point x="267.088" y="258.0"/>
    </contour>
    <contour>
      <point x="351.712" y="1227.568" type="curve"/>
      <point x="95.912" y="378.496" type="line" smooth="yes"/>
      <point x="81.488" y="331.648"/>
      <point x="74.912" y="287.376"/>
      <point x="74.912" y="246.528" type="curve" smooth="yes"/>
      <point x="74.912" y="83.752"/>
      <point x="183.96" y="-24.240000000000002"/>
      <point x="353.672" y="-24.240000000000002" type="curve" smooth="yes"/>
      <point x="663.128" y="-24.240000000000002"/>
      <point x="939.5840000000001" y="314.272"/>
      <point x="939.5840000000001" y="651.424" type="curve" smooth="yes"/>
      <point x="939.5840000000001" y="788.904"/>
      <point x="864.712" y="884.72"/>
      <point x="732.2" y="884.72" type="curve" smooth="yes"/>
      <point x="614.992" y="884.72"/>
      <point x="475.784" y="788.112"/>
      <point x="328.544" y="544.272" type="curve"/>
      <point x="344.752" y="526.08" type="line"/>
      <point x="627.016" y="1423.24" type="line"/>
      <point x="597.232" y="1423.24" type="line"/>
      <point x="236.10399999999998" y="1362.64" type="line"/>
      <point x="224.864" y="1324.072" type="line"/>
      <point x="281.592" y="1294.168"/>
      <point x="314.984" y="1267.08"/>
    </contour>
  </outline>
</glyph>
<glyph name="c" format="2">
  <advance width="776.624"/>
  <unicode hex="0063"/>
  <anchor x="507.424" y="860.48" name="top"/>
  <anchor x="518.144" y="0.0" name="right"/>
  <anchor x="352.216" y="0.0" name="bottom"/>
  <outline>
    <contour>
      <point x="505.064" y="793.152" type="curve" smooth="yes"/>
      <point x="545.216" y="793.152"/>
      <point x="580.064" y="763.0"/>
      <point x="613.728" y="715.736" type="curve" smooth="yes"/>
      <point x="647.392" y="668.472"/>
      <point x="667.152" y="642.68"/>
      <point x="685.032" y="643.256" type="curve" smooth="yes"/>
      <point x="751.112" y="643.832"/>
      <point x="796.136" y="678.16"/>
      <point x="796.136" y="740.76" type="curve" smooth="yes"/>
      <point x="796.136" y="818.632"/>
      <point x="729.656" y="884.72"/>
      <point x="579.704" y="884.72" type="curve" smooth="yes"/>
      <point x="300.2" y="884.72"/>
      <point x="49.368" y="622.224"/>
      <point x="49.368" y="271.8" type="curve" smooth="yes"/>
      <point x="49.368" y="80.536"/>
      <point x="147.056" y="-24.240000000000002"/>
      <point x="326.552" y="-24.240000000000002" type="curve" smooth="yes"/>
      <point x="487.688" y="-24.240000000000002"/>
      <point x="595.952" y="50.544"/>
      <point x="704.768" y="306.952" type="curve"/>
      <point x="645.68" y="306.952" type="line"/>
      <point x="570.256" y="173.464"/>
      <point x="497.648" y="131.16"/>
      <point x="413.104" y="131.16" type="curve" smooth="yes"/>
      <point x="319.624" y="131.16"/>
      <point x="276.624" y="182.16"/>
      <point x="276.624" y="317.192" type="curve" smooth="yes"/>
      <point x="276.624" y="551.856"/>
      <point x="380.536" y="793.152"/>
    </contour>
  </outline>
</glyph>
<glyph name="d" format="2">
  <advance width="1030"/>
  <unicode hex="0064"/>
  <anchor x="881.472" y="1414.88" name="UCtop"/>
  <anchor x="1177.248" y="1399.0" name="right"/>
  <anchor x="407.312" y="0.0" name="bottom"/>
  <anchor x="926.664" y="1074.544" name="center"/>
  <outline>
    <contour>
      <point x="739.288" y="707.528" type="curve"/>
      <point x="786.92" y="772.704" type="line"/>
      <point x="733.048" y="848.752"/>
      <point x="672.784" y="880.144"/>
      <point x="585.184" y="880.144" type="curve" smooth="yes"/>
      <point x="278.944" y="880.144"/>
      <point x="16.096" y="455.656"/>
      <point x="16.096" y="183.0" type="curve" smooth="yes"/>
      <point x="16.096" y="42.12"/>
      <point x="95.272" y="-22.512"/>
      <point x="211.48" y="-22.512" type="curve" smooth="yes"/>
      <point x="333.44" y="-22.512"/>
      <point x="449.048" y="55.28"/>
      <point x="659.528" y="387.776" type="curve"/>
      <point x="633.104" y="387.776" type="line"/>
      <point x="526.984" y="65.352" type="line" smooth="yes"/>
      <point x="506.776" y="4.728"/>
      <point x="541.136" y="-24.240000000000002"/>
      <point x="626.968" y="-24.240000000000002" type="curve" smooth="yes"/>
      <point x="740.56" y="-24.240000000000002"/>
      <point x="862.456" y="51.96"/>
      <point x="1006.88" y="234.43200000000002" type="curve"/>
      <point x="971.248" y="269.824" type="line"/>
      <point x="874.768" y="173.984"/>
      <point x="782.248" y="128.10399999999998"/>
      <point x="705.648" y="131.472" type="curve"/>
      <point x="737.064" y="71.424" type="line"/>
      <point x="1165.936" y="1423.24" type="line"/>
      <point x="1136.152" y="1423.24" type="line"/>
      <point x="775.144" y="1363.216" type="line"/>
      <point x="763.328" y="1324.648" type="line"/>
      <point x="813.544" y="1298.56"/>
      <point x="851.024" y="1265.96"/>
      <point x="885.328" y="1220.512" type="curve"/>
      <point x="661.712" y="520.496" type="line" smooth="yes"/>
      <point x="584.992" y="282.816"/>
      <point x="401.216" y="137.344"/>
      <point x="315.24" y="137.344" type="curve" smooth="yes"/>
      <point x="271.328" y="137.344"/>
      <point x="246.776" y="159.136"/>
      <point x="246.776" y="211.352" type="curve" smooth="yes"/>
      <point x="246.776" y="375.23199999999997"/>
      <point x="427.296" y="778.312"/>
      <point x="629.624" y="778.312" type="curve" smooth="yes"/>
      <point x="690.864" y="778.312"/>
      <point x="727.016" y="744.192"/>
    </contour>
  </outline>
</glyph>
<glyph name="e" format="2">
	<unicode hex="0065"/>
	<advance width="818.32"/>
	<outline>
		<contour>
			<point x="536.856" y="800.76" type="curve" smooth="yes"/>
			<point x="586.832" y="800.76"/>
			<point x="613.048" y="768.696"/>
			<point x="613.048" y="717.088" type="curve" smooth="yes"/>
			<point x="613.048" y="619.88"/>
			<point x="545.224" y="550.144"/>
			<point x="232.704" y="451.936" type="curve"/>
			<point x="229.704" y="371.88" type="line"/>
			<point x="404.088" y="417.792"/>
			<point x="584.104" y="476.064"/>
			<point x="738.256" y="540.64" type="curve"/>
			<point x="778.104" y="579"/>
			<point x="805.104" y="642.424"/>
			<point x="805.104" y="703.24" type="curve" smooth="yes"/>
			<point x="805.104" y="801.568"/>
			<point x="738.048" y="884.72"/>
			<point x="570.488" y="884.72" type="curve" smooth="yes"/>
			<point x="300.2" y="884.72"/>
			<point x="49.368" y="622.224"/>
			<point x="49.368" y="271.8" type="curve" smooth="yes"/>
			<point x="49.368" y="83.416"/>
			<point x="158.24" y="-24.24"/>
			<point x="344.28" y="-24.24" type="curve" smooth="yes"/>
			<point x="517.024" y="-24.24"/>
			<point x="624.224" y="48.848"/>
			<point x="732.552" y="306.952" type="curve"/>
			<point x="672.312" y="306.952" type="line"/>
			<point x="597.496" y="170.584"/>
			<point x="525.648" y="131.16"/>
			<point x="428.44" y="131.16" type="curve" smooth="yes"/>
			<point x="337.048" y="131.16"/>
			<point x="276.624" y="182.16"/>
			<point x="276.624" y="317.192" type="curve" smooth="yes"/>
			<point x="276.624" y="526.032"/>
			<point x="381.136" y="800.76"/>
		</contour>
	</outline>
	<anchor name="top" x="523.248" y="860.48"/>
	<anchor name="right" x="558.632" y="0"/>
	<anchor name="bottom" x="339.856" y="0"/>
</glyph>
<glyph name="f" format="2">
  <advance width="656.016"/>
  <unicode hex="0066"/>
  <anchor x="828.248" y="1340.0" name="UCtop"/>
  <anchor x="20.759999999999998" y="-505.76" name="bottom"/>
  <outline>
    <contour>
      <point x="98.52" y="768.184" type="line"/>
      <point x="755.4639999999999" y="768.184" type="line"/>
      <point x="773.5840000000001" y="860.48" type="line"/>
      <point x="115.64" y="860.48" type="line"/>
    </contour>
    <contour>
      <point x="410.072" y="256.176" type="curve" smooth="yes"/>
      <point x="577.5840000000001" y="1041.168" type="line" smooth="yes"/>
      <point x="621.008" y="1244.328"/>
      <point x="690.504" y="1321.192"/>
      <point x="809.944" y="1321.192" type="curve" smooth="yes"/>
      <point x="864.216" y="1321.192"/>
      <point x="908.696" y="1295.408"/>
      <point x="947.176" y="1251.232" type="curve" smooth="yes"/>
      <point x="985.656" y="1207.056"/>
      <point x="1012.776" y="1165.84"/>
      <point x="1040.144" y="1165.84" type="curve" smooth="yes"/>
      <point x="1099.264" y="1165.84"/>
      <point x="1148.104" y="1211.048"/>
      <point x="1148.104" y="1272.584" type="curve" smooth="yes"/>
      <point x="1148.104" y="1356.488"/>
      <point x="1070.104" y="1423.24"/>
      <point x="908.84" y="1423.24" type="curve" smooth="yes"/>
      <point x="626.456" y="1423.24"/>
      <point x="389.184" y="1222.368"/>
      <point x="311.312" y="839.424" type="curve" smooth="yes"/>
      <point x="127.26400000000001" y="-64.59199999999998" type="line" smooth="yes"/>
      <point x="68.16" y="-360.176"/>
      <point x="2.848" y="-426.4"/>
      <point x="-90.072" y="-426.4" type="curve" smooth="yes"/>
      <point x="-124.92" y="-426.4"/>
      <point x="-159.496" y="-409.28"/>
      <point x="-197.4" y="-359.864" type="curve" smooth="yes"/>
      <point x="-235.304" y="-310.448"/>
      <point x="-259.152" y="-285.72"/>
      <point x="-283.88" y="-285.72" type="curve" smooth="yes"/>
      <point x="-335.24" y="-285.72"/>
      <point x="-376.872" y="-331.416"/>
      <point x="-376.872" y="-389.256" type="curve" smooth="yes"/>
      <point x="-376.872" y="-470.4"/>
      <point x="-312.088" y="-530.0"/>
      <point x="-175.312" y="-530.0" type="curve" smooth="yes"/>
      <point x="73.312" y="-530.0"/>
      <point x="281.024" y="-338.824"/>
    </contour>
  </outline>
</glyph>
<glyph name="g" format="2">
	<unicode hex="0067"/>
	<advance width="880.344"/>
	<outline>
		<contour>
			<point x="905.768" y="719.488" type="curve" smooth="yes"/>
			<point x="966.456" y="719.488"/>
			<point x="1014.968" y="772.328"/>
			<point x="1014.968" y="840.112" type="curve" smooth="yes"/>
			<point x="1014.968" y="874.232"/>
			<point x="993.576" y="890.656"/>
			<point x="959.576" y="890.656" type="curve" smooth="yes"/>
			<point x="877.152" y="890.656"/>
			<point x="795.488" y="845.176"/>
			<point x="602.208" y="871.872" type="curve"/>
			<point x="612.912" y="818.936" type="line"/>
			<point x="814.32" y="847.344"/>
			<point x="819.808" y="719.488"/>
		</contour>
		<contour>
			<point x="370.704" y="310.904" type="curve"/>
			<point x="324.848" y="310.904"/>
			<point x="298.904" y="343.544"/>
			<point x="298.904" y="423.824" type="curve" smooth="yes"/>
			<point x="298.904" y="605.512"/>
			<point x="399.976" y="815.512"/>
			<point x="510.888" y="815.512" type="curve"/>
			<point x="556.744" y="815.512"/>
			<point x="582.688" y="782.872"/>
			<point x="582.688" y="702.592" type="curve" smooth="yes"/>
			<point x="582.688" y="520.904"/>
			<point x="481.616" y="310.904"/>
		</contour>
		<contour>
			<point x="519.496" y="884.72" type="curve"/>
			<point x="285.36" y="884.72"/>
			<point x="99.032" y="710.016"/>
			<point x="99.032" y="490.928" type="curve" smooth="yes"/>
			<point x="99.032" y="341.752"/>
			<point x="191.176" y="241.696"/>
			<point x="362.096" y="241.696" type="curve"/>
			<point x="596.232" y="241.696"/>
			<point x="782.56" y="416.4"/>
			<point x="782.56" y="635.488" type="curve" smooth="yes"/>
			<point x="782.56" y="784.664"/>
			<point x="690.416" y="884.72"/>
		</contour>
		<contour>
			<point x="275.288" y="-530" type="curve" smooth="yes"/>
			<point x="574.7773005549" y="-530"/>
			<point x="753.512" y="-400.6878592147"/>
			<point x="753.512" y="-221.384" type="curve" smooth="yes"/>
			<point x="753.512" y="-102.928"/>
			<point x="677.728" y="-14.176"/>
			<point x="422.888" y="55.68" type="curve" smooth="yes"/>
			<point x="238.568" y="104.744"/>
			<point x="205.176" y="136.08"/>
			<point x="205.176" y="175.416" type="curve" smooth="yes"/>
			<point x="205.176" y="216.1663003567"/>
			<point x="245.784" y="255.872"/>
			<point x="331.904" y="263.36" type="curve"/>
			<point x="295.112" y="286.48" type="line"/>
			<point x="128.136" y="261.352"/>
			<point x="34.632" y="180.512"/>
			<point x="34.632" y="72.648" type="curve" smooth="yes"/>
			<point x="34.632" y="-10.432"/>
			<point x="81.744" y="-83.976"/>
			<point x="258.632" y="-127.368" type="curve" smooth="yes"/>
			<point x="483.232" y="-184.128"/>
			<point x="565.792" y="-223.768"/>
			<point x="565.792" y="-305.36" type="curve" smooth="yes"/>
			<point x="565.792" y="-385.848"/>
			<point x="482.488" y="-454.704"/>
			<point x="309.784" y="-454.704" type="curve" smooth="yes"/>
			<point x="119.728" y="-454.704"/>
			<point x="28.512" y="-382.704"/>
			<point x="28.512" y="-289.48" type="curve" smooth="yes"/>
			<point x="28.512" y="-179.752"/>
			<point x="149.608" y="-109.688"/>
			<point x="352.696" y="-100.144" type="curve"/>
			<point x="356.088" y="-82.504" type="line"/>
			<point x="263.032" y="-82.504" type="line"/>
			<point x="-36.392" y="-115.624"/>
			<point x="-139.072" y="-201.952"/>
			<point x="-139.072" y="-314.536" type="curve" smooth="yes"/>
			<point x="-139.072" y="-446.304"/>
			<point x="-1.184" y="-530"/>
		</contour>
	</outline>
	<anchor name="top" x="517.488" y="860.48"/>
	<anchor name="bottom" x="266.304" y="-517.28"/>
</glyph>
<glyph name="h" format="2">
  <advance width="1032"/>
  <unicode hex="0068"/>
  <anchor x="755.872" y="1373.984" name="UCtop"/>
  <anchor x="386.936" y="0.0" name="bottom"/>
  <anchor x="454.464" y="1074.544" name="center"/>
  <outline>
    <contour>
      <point x="281.72" y="212.648" type="line"/>
      <point x="377.744" y="528.112"/>
      <point x="549.096" y="718.352"/>
      <point x="656.896" y="718.352" type="curve" smooth="yes"/>
      <point x="701.872" y="718.352"/>
      <point x="718.176" y="698.048"/>
      <point x="718.176" y="667.592" type="curve" smooth="yes"/>
      <point x="718.176" y="645.44"/>
      <point x="710.176" y="618.44"/>
      <point x="694.088" y="576.872" type="curve" smooth="yes"/>
      <point x="505.56" y="89.96000000000001" type="line" smooth="yes"/>
      <point x="472.744" y="5.208"/>
      <point x="498.04" y="-24.240000000000002"/>
      <point x="602.424" y="-24.240000000000002" type="curve" smooth="yes"/>
      <point x="722.376" y="-24.240000000000002"/>
      <point x="848.424" y="45.416"/>
      <point x="997.904" y="232.888" type="curve"/>
      <point x="961.968" y="268.552" type="line"/>
      <point x="865.704" y="177.016"/>
      <point x="779.912" y="131.32"/>
      <point x="698.376" y="130.472" type="curve"/>
      <point x="719.696" y="71.848" type="line"/>
      <point x="908.3679999999999" y="563.528" type="line" smooth="yes"/>
      <point x="934.336" y="631.584"/>
      <point x="947.912" y="690.368"/>
      <point x="947.912" y="736.76" type="curve" smooth="yes"/>
      <point x="947.912" y="822.936"/>
      <point x="902.16" y="882.992"/>
      <point x="776.048" y="882.992" type="curve" smooth="yes"/>
      <point x="615.472" y="882.992"/>
      <point x="458.384" y="728.912"/>
      <point x="316.704" y="440.664" type="curve"/>
      <point x="329.704" y="427.216" type="line"/>
      <point x="652.288" y="1423.24" type="line"/>
      <point x="622.504" y="1423.24" type="line"/>
      <point x="260.224" y="1363.216" type="line"/>
      <point x="248.40800000000002" y="1324.648" type="line"/>
      <point x="304.56" y="1294.744"/>
      <point x="337.376" y="1267.656"/>
      <point x="372.952" y="1228.144" type="curve"/>
      <point x="1.9760000000000009" y="0.0" type="line"/>
      <point x="217.656" y="0.0" type="line"/>
    </contour>
  </outline>
</glyph>
<glyph name="i" format="2">
	<unicode hex="0069"/>
	<advance width="599.448"/>
	<outline>
		<contour>
			<point x="64.152" y="68.072" type="line" smooth="yes"/>
			<point x="40.976" y="5.784"/>
			<point x="72.184" y="-24.24"/>
			<point x="169.08" y="-24.24" type="curve" smooth="yes"/>
			<point x="287.76" y="-24.24"/>
			<point x="413.08" y="43.144"/>
			<point x="560.44" y="222.984" type="curve"/>
			<point x="525.656" y="259.648" type="line"/>
			<point x="427.904" y="168.048"/>
			<point x="338.624" y="123.472"/>
			<point x="252.424" y="129.352" type="curve"/>
			<point x="289.776" y="71.848" type="line"/>
			<point x="545.96" y="792.408" type="line" smooth="yes"/>
			<point x="568.136" y="853.544"/>
			<point x="535.624" y="884.72"/>
			<point x="451.976" y="884.72" type="curve" smooth="yes"/>
			<point x="331.296" y="884.72"/>
			<point x="202.888" y="818.336"/>
			<point x="61.496" y="613.856" type="curve"/>
			<point x="98.28" y="580.192" type="line"/>
			<point x="190.576" y="681.064"/>
			<point x="278.4" y="731.248"/>
			<point x="365.448" y="728.824" type="curve"/>
			<point x="320.336" y="768.632" type="line"/>
		</contour>
		<contour>
			<point x="413.84" y="1275.408" type="curve" smooth="yes"/>
			<point x="413.84" y="1192.752"/>
			<point x="473.832" y="1132.304"/>
			<point x="556.248" y="1132.304" type="curve" smooth="yes"/>
			<point x="639.088" y="1132.304"/>
			<point x="699.08" y="1192.752"/>
			<point x="699.08" y="1275.408" type="curve" smooth="yes"/>
			<point x="699.08" y="1358.912"/>
			<point x="639.088" y="1418.512"/>
			<point x="556.248" y="1418.512" type="curve" smooth="yes"/>
			<point x="473.832" y="1418.512"/>
			<point x="413.84" y="1358.912"/>
		</contour>
	</outline>
	<anchor name="top" x="577.528" y="1373.984"/>
	<anchor name="bottom" x="180.216" y="0"/>
	<anchor name="right" x="306.848" y="0"/>
</glyph>
<glyph name="j" format="2">
	<unicode hex="006A"/>
	<advance width="552.232"/>
	<outline>
		<contour>
			<point x="397.656" y="1275.408" type="curve" smooth="yes"/>
			<point x="397.656" y="1192.752"/>
			<point x="457.648" y="1132.304"/>
			<point x="540.064" y="1132.304" type="curve" smooth="yes"/>
			<point x="622.904" y="1132.304"/>
			<point x="682.896" y="1192.752"/>
			<point x="682.896" y="1275.408" type="curve" smooth="yes"/>
			<point x="682.896" y="1358.912"/>
			<point x="622.904" y="1418.512"/>
			<point x="540.064" y="1418.512" type="curve" smooth="yes"/>
			<point x="457.648" y="1418.512"/>
			<point x="397.656" y="1358.912"/>
		</contour>
		<contour>
			<point x="300.952" y="20.936" type="curve" smooth="yes"/>
			<point x="529.776" y="792.408" type="line" smooth="yes"/>
			<point x="548.256" y="855.392"/>
			<point x="519.44" y="884.72"/>
			<point x="435.792" y="884.72" type="curve" smooth="yes"/>
			<point x="307.624" y="884.72"/>
			<point x="178.064" y="806.24"/>
			<point x="45.312" y="613.856" type="curve"/>
			<point x="82.096" y="580.192" type="line"/>
			<point x="174.392" y="681.064"/>
			<point x="262.216" y="731.248"/>
			<point x="349.264" y="728.824" type="curve"/>
			<point x="304.152" y="768.632" type="line"/>
			<point x="39.104" y="-104.392" type="line" smooth="yes"/>
			<point x="-35.208" y="-350.392"/>
			<point x="-106.4" y="-420.456"/>
			<point x="-191.648" y="-420.456" type="curve" smooth="yes"/>
			<point x="-222.68" y="-420.456"/>
			<point x="-255.104" y="-401.336"/>
			<point x="-289.072" y="-355.616" type="curve" smooth="yes"/>
			<point x="-323.04" y="-309.896"/>
			<point x="-339.16" y="-295.504"/>
			<point x="-353.28" y="-295.504" type="curve" smooth="yes"/>
			<point x="-410.968" y="-295.504"/>
			<point x="-451.512" y="-338.32"/>
			<point x="-451.512" y="-397.256" type="curve" smooth="yes"/>
			<point x="-451.512" y="-473.368"/>
			<point x="-394.912" y="-530"/>
			<point x="-273.992" y="-530" type="curve" smooth="yes"/>
			<point x="-48.92" y="-530"/>
			<point x="193.136" y="-342.48"/>
		</contour>
	</outline>
	<anchor name="top" x="551.344" y="1373.984"/>
	<anchor name="bottom" x="-32.376" y="-505.76"/>
</glyph>
<glyph name="k" format="2">
  <advance width="1014"/>
  <unicode hex="006B"/>
  <anchor x="797.384" y="1414.88" name="UCtop"/>
  <anchor x="416.088" y="0.0" name="bottom"/>
  <outline>
    <contour>
      <point x="648.048" y="1423.24" type="line"/>
      <point x="618.264" y="1423.24" type="line"/>
      <point x="260.224" y="1363.792" type="line"/>
      <point x="248.40800000000002" y="1325.224" type="line"/>
      <point x="304.56" y="1295.32"/>
      <point x="337.376" y="1268.232"/>
      <point x="372.952" y="1228.72" type="curve"/>
      <point x="1.9760000000000009" y="0.0" type="line"/>
      <point x="217.656" y="0.0" type="line"/>
    </contour>
    <contour>
      <point x="350.144" y="472.608" type="line"/>
      <point x="505.424" y="39.176"/>
      <point x="555.5360000000001" y="-24.240000000000002"/>
      <point x="636.96" y="-24.240000000000002" type="curve" smooth="yes"/>
      <point x="738.008" y="-24.240000000000002"/>
      <point x="840.176" y="53.296"/>
      <point x="967.024" y="234.44" type="curve"/>
      <point x="929.512" y="267.256" type="line"/>
      <point x="850.032" y="172.624"/>
      <point x="788.4159999999999" y="130.16"/>
      <point x="749.808" y="130.16" type="curve" smooth="yes"/>
      <point x="705.08" y="130.16"/>
      <point x="670.296" y="172.368"/>
      <point x="512.688" y="591.76" type="curve"/>
      <point x="447.952" y="493.784" type="line"/>
      <point x="568.528" y="627.36"/>
      <point x="719.112" y="727.944"/>
      <point x="788.3199999999999" y="727.944" type="curve" smooth="yes"/>
      <point x="811.832" y="727.944"/>
      <point x="828.224" y="713.128"/>
      <point x="848.768" y="673.92" type="curve" smooth="yes"/>
      <point x="869.312" y="634.712"/>
      <point x="882.704" y="620.864"/>
      <point x="902.824" y="620.864" type="curve" smooth="yes"/>
      <point x="981.2719999999999" y="620.864"/>
      <point x="1047.872" y="675.952"/>
      <point x="1047.872" y="761.216" type="curve" smooth="yes"/>
      <point x="1047.872" y="827.392"/>
      <point x="1000.24" y="884.72"/>
      <point x="920.128" y="884.72" type="curve" smooth="yes"/>
      <point x="797.4639999999999" y="884.72"/>
      <point x="680.592" y="818.84"/>
      <point x="364.472" y="502.6" type="curve"/>
    </contour>
  </outline>
</glyph>
<glyph name="l" format="2">
	<unicode hex="006C"/>
	<advance width="560.384"/>
	<outline>
		<contour>
			<point x="389.16" y="1230.688" type="curve"/>
			<point x="27.064" y="68.072" type="line" smooth="yes"/>
			<point x="6.16" y="3.208"/>
			<point x="41.432" y="-24.24"/>
			<point x="131.992" y="-24.24" type="curve" smooth="yes"/>
			<point x="254.488" y="-24.24"/>
			<point x="387.44" y="38.904"/>
			<point x="536.072" y="222.984" type="curve"/>
			<point x="501.288" y="259.224" type="line"/>
			<point x="400.992" y="164.656"/>
			<point x="307.472" y="122.624"/>
			<point x="218.728" y="131.048" type="curve"/>
			<point x="249.808" y="77.608" type="line"/>
			<point x="670.616" y="1423.24" type="line"/>
			<point x="640.832" y="1423.24" type="line"/>
			<point x="278.552" y="1363.216" type="line"/>
			<point x="266.736" y="1324.648" type="line"/>
			<point x="322.04" y="1295.592"/>
			<point x="354.432" y="1269.352"/>
		</contour>
	</outline>
	<anchor name="UCtop" x="521.712" y="1414.88"/>
	<anchor name="bottom" x="122.64" y="0"/>
	<anchor name="right" x="681.352" y="1399"/>
	<anchor name="mid" x="633.704" y="546"/>
</glyph>
<glyph name="n" format="2">
	<unicode hex="006E"/>
	<advance width="1118"/>
	<outline>
		<contour>
			<point x="88.608" y="554.44" type="line"/>
			<point x="162.576" y="695.736"/>
			<point x="214.432" y="723.952"/>
			<point x="290.248" y="723.952" type="curve" smooth="yes"/>
			<point x="295.248" y="723.952"/>
			<point x="300.248" y="723.952"/>
			<point x="305.248" y="723.952" type="curve"/>
			<point x="86.032" y="0" type="line"/>
			<point x="302.864" y="0" type="line"/>
			<point x="367.928" y="212.648" type="line"/>
			<point x="464.376" y="528.112"/>
			<point x="635.304" y="718.352"/>
			<point x="743.104" y="718.352" type="curve" smooth="yes"/>
			<point x="788.08" y="718.352"/>
			<point x="804.384" y="698.048"/>
			<point x="804.384" y="667.592" type="curve" smooth="yes"/>
			<point x="804.384" y="645.44"/>
			<point x="796.384" y="618.44"/>
			<point x="780.296" y="576.872" type="curve" smooth="yes"/>
			<point x="591.768" y="89.96" type="line" smooth="yes"/>
			<point x="558.952" y="5.208"/>
			<point x="584.248" y="-24.24"/>
			<point x="688.632" y="-24.24" type="curve" smooth="yes"/>
			<point x="808.584" y="-24.24"/>
			<point x="934.632" y="45.416"/>
			<point x="1084.112" y="232.888" type="curve"/>
			<point x="1048.176" y="268.552" type="line"/>
			<point x="951.912" y="177.016"/>
			<point x="866.12" y="131.32"/>
			<point x="784.584" y="130.472" type="curve"/>
			<point x="805.904" y="71.848" type="line"/>
			<point x="994.576" y="563.528" type="line" smooth="yes"/>
			<point x="1020.544" y="631.584"/>
			<point x="1034.12" y="690.368"/>
			<point x="1034.12" y="736.76" type="curve" smooth="yes"/>
			<point x="1034.12" y="822.936"/>
			<point x="988.368" y="882.992"/>
			<point x="862.256" y="882.992" type="curve" smooth="yes"/>
			<point x="698.8" y="882.992"/>
			<point x="538.832" y="722.576"/>
			<point x="394.848" y="425.112" type="curve"/>
			<point x="401.696" y="414.512" type="line"/>
			<point x="533.992" y="863.872" type="line"/>
			<point x="478.912" y="877.144"/>
			<point x="438.096" y="883.72"/>
			<point x="381.864" y="883.72" type="curve" smooth="yes"/>
			<point x="246.152" y="883.72"/>
			<point x="127.672" y="811.816"/>
			<point x="42.856" y="572.832" type="curve"/>
		</contour>
	</outline>
	<anchor name="top" x="681.824" y="860.48"/>
	<anchor name="bottom" x="483.2" y="0"/>
</glyph>
<glyph name="o" format="2">
  <advance width="929"/>
  <unicode hex="006F"/>
  <anchor x="583.88" y="860.48" name="top"/>
  <anchor x="332.856" y="0.0" name="bottom"/>
  <anchor x="661.92" y="860.48" name="horn"/>
  <anchor x="397.536" y="0.0" name="right"/>
  <outline>
    <contour>
      <point x="565.16" y="884.72" type="curve" smooth="yes"/>
      <point x="280.536" y="884.72"/>
      <point x="53.944" y="615.648"/>
      <point x="53.944" y="297.44" type="curve" smooth="yes"/>
      <point x="53.944" y="99.29599999999999"/>
      <point x="165.24" y="-24.240000000000002"/>
      <point x="363.672" y="-24.240000000000002" type="curve" smooth="yes"/>
      <point x="648.296" y="-24.240000000000002"/>
      <point x="874.888" y="244.832"/>
      <point x="874.888" y="563.04" type="curve" smooth="yes"/>
      <point x="874.888" y="761.184"/>
      <point x="763.592" y="884.72"/>
    </contour>
    <contour>
      <point x="363.552" y="59.72" type="curve" smooth="yes"/>
      <point x="299.20799999999997" y="59.72"/>
      <point x="269.568" y="103.456"/>
      <point x="269.568" y="213.344" type="curve" smooth="yes"/>
      <point x="269.568" y="478.16"/>
      <point x="421.992" y="800.76"/>
      <point x="565.28" y="800.76" type="curve" smooth="yes"/>
      <point x="629.624" y="800.76"/>
      <point x="659.264" y="757.024"/>
      <point x="659.264" y="647.136" type="curve" smooth="yes"/>
      <point x="659.264" y="382.32"/>
      <point x="506.84" y="59.72"/>
    </contour>
  </outline>
</glyph>
<glyph name="q" format="2">
  <advance width="969.064"/>
  <unicode hex="0071"/>
  <anchor x="630.608" y="860.48" name="top"/>
  <anchor x="450.776" y="-505.76" name="bottom"/>
  <outline>
    <contour>
      <point x="365.8" y="-415.368" type="line"/>
      <point x="190.03199999999998" y="-466.64" type="line"/>
      <point x="177.76" y="-505.76" type="line"/>
      <point x="685.76" y="-505.76" type="line"/>
      <point x="698.032" y="-467.064" type="line"/>
      <point x="587.4159999999999" y="-415.52" type="line"/>
      <point x="983.848" y="860.48" type="line"/>
      <point x="794.424" y="860.48" type="line"/>
      <point x="736.2" y="766.184" type="line"/>
      <point x="632.904" y="473.432" type="line" smooth="yes"/>
      <point x="562.328" y="270.392"/>
      <point x="394.18399999999997" y="137.344"/>
      <point x="313.392" y="137.344" type="curve" smooth="yes"/>
      <point x="269.48" y="137.344"/>
      <point x="244.928" y="157.984"/>
      <point x="244.928" y="209.624" type="curve" smooth="yes"/>
      <point x="244.928" y="372.352"/>
      <point x="429.08" y="771.976"/>
      <point x="627.952" y="771.976" type="curve" smooth="yes"/>
      <point x="689.192" y="771.976"/>
      <point x="725.344" y="738.432"/>
      <point x="737.616" y="701.768" type="curve"/>
      <point x="785.248" y="766.368" type="line"/>
      <point x="731.376" y="842.416"/>
      <point x="671.112" y="873.232"/>
      <point x="583.512" y="873.232" type="curve" smooth="yes"/>
      <point x="280.152" y="873.232"/>
      <point x="14.248000000000001" y="452.2"/>
      <point x="14.248000000000001" y="181.272" type="curve" smooth="yes"/>
      <point x="14.248000000000001" y="41.544"/>
      <point x="93.424" y="-22.512"/>
      <point x="209.632" y="-22.512" type="curve" smooth="yes"/>
      <point x="330.44" y="-22.512"/>
      <point x="447.68" y="59.4"/>
      <point x="657.008" y="390.744" type="curve"/>
      <point x="620.832" y="390.744" type="line"/>
    </contour>
  </outline>
</glyph>
<glyph name="r" format="2">
  <advance width="851"/>
  <unicode hex="0072"/>
  <anchor x="548.328" y="860.48" name="top"/>
  <anchor x="196.888" y="0.0" name="bottom"/>
  <outline>
    <contour>
      <point x="305.248" y="723.952" type="curve"/>
      <point x="86.032" y="0.0" type="line"/>
      <point x="303.712" y="0.0" type="line"/>
      <point x="371.296" y="223.632" type="line" smooth="yes"/>
      <point x="462.32" y="526.912"/>
      <point x="597.448" y="707.048"/>
      <point x="679.6" y="707.048" type="curve" smooth="yes"/>
      <point x="703.992" y="707.048"/>
      <point x="721.96" y="693.472"/>
      <point x="741.928" y="663.656" type="curve" smooth="yes"/>
      <point x="761.896" y="633.84"/>
      <point x="773.744" y="623.296"/>
      <point x="788.984" y="623.296" type="curve" smooth="yes"/>
      <point x="866.672" y="623.296"/>
      <point x="932.816" y="681.44"/>
      <point x="932.816" y="762.552" type="curve" smooth="yes"/>
      <point x="932.816" y="834.816"/>
      <point x="889.912" y="884.72"/>
      <point x="801.616" y="884.72" type="curve" smooth="yes"/>
      <point x="676.528" y="884.72"/>
      <point x="544.328" y="765.936"/>
      <point x="403.096" y="458.064" type="curve"/>
      <point x="411.488" y="446.192" type="line"/>
      <point x="533.992" y="863.872" type="line"/>
      <point x="478.912" y="877.144"/>
      <point x="438.096" y="883.72"/>
      <point x="381.864" y="883.72" type="curve" smooth="yes"/>
      <point x="246.152" y="883.72"/>
      <point x="127.672" y="811.816"/>
      <point x="42.856" y="572.832" type="curve"/>
      <point x="88.608" y="554.44" type="line"/>
      <point x="162.576" y="695.736"/>
      <point x="214.432" y="723.952"/>
      <point x="290.248" y="723.952" type="curve" smooth="yes"/>
      <point x="295.248" y="723.952"/>
      <point x="300.248" y="723.952"/>
    </contour>
  </outline>
</glyph>
<glyph name="t" format="2">
	<unicode hex="0074"/>
	<advance width="670.504"/>
	<outline>
		<contour>
			<point x="113.128" y="768.184" type="line"/>
			<point x="711.552" y="768.184" type="line"/>
			<point x="729.672" y="860.48" type="line"/>
			<point x="131.976" y="860.48" type="line"/>
		</contour>
		<contour>
			<point x="367.576" y="302.584" type="curve" smooth="yes"/>
			<point x="596.76" y="1061.616" type="line"/>
			<point x="375.264" y="1061.616" type="line"/>
			<point x="152.296" y="307.232" type="line" smooth="yes"/>
			<point x="127.664" y="226.032"/>
			<point x="116.424" y="160.8"/>
			<point x="116.424" y="117.592" type="curve" smooth="yes"/>
			<point x="116.424" y="11.424"/>
			<point x="164.6" y="-23.088"/>
			<point x="236.864" y="-23.088" type="curve" smooth="yes"/>
			<point x="351.4" y="-23.088"/>
			<point x="483.936" y="78.016"/>
			<point x="623.68" y="297.992" type="curve"/>
			<point x="577.744" y="330.776" type="line"/>
			<point x="485.2" y="211.2"/>
			<point x="406.552" y="149.16"/>
			<point x="367.672" y="149.16" type="curve" smooth="yes"/>
			<point x="350.704" y="149.16"/>
			<point x="340.584" y="158.736"/>
			<point x="340.584" y="183.28" type="curve" smooth="yes"/>
			<point x="340.584" y="203.096"/>
			<point x="344.16" y="230.184"/>
		</contour>
	</outline>
	<anchor name="bottom" x="275.728" y="0"/>
	<anchor name="right" x="668.76" y="1352.344"/>
</glyph>
<glyph name="u" format="2">
  <advance width="1063"/>
  <unicode hex="0075"/>
  <anchor x="620.24" y="860.48" name="top"/>
  <anchor x="867.3199999999999" y="0.0" name="right"/>
  <anchor x="426.496" y="0.0" name="bottom"/>
  <anchor x="891.032" y="860.48" name="horn"/>
  <outline>
    <contour>
      <point x="583.4" y="59.592" type="line" smooth="yes"/>
      <point x="566.4639999999999" y="-0.30400000000000005"/>
      <point x="593.976" y="-24.240000000000002"/>
      <point x="681.12" y="-24.240000000000002" type="curve" smooth="yes"/>
      <point x="786.232" y="-24.240000000000002"/>
      <point x="916.64" y="51.2"/>
      <point x="1055.52" y="234.43200000000002" type="curve"/>
      <point x="1019.888" y="269.824" type="line"/>
      <point x="923.408" y="173.984"/>
      <point x="830.312" y="129.832"/>
      <point x="754.288" y="131.472" type="curve"/>
      <point x="775.336" y="77.032" type="line"/>
      <point x="1012.728" y="860.48" type="line"/>
      <point x="795.896" y="860.48" type="line"/>
      <point x="707.088" y="571.088" type="line" smooth="yes"/>
      <point x="627.536" y="310.824"/>
      <point x="479.448" y="142.704"/>
      <point x="386.528" y="142.704" type="curve" smooth="yes"/>
      <point x="348.616" y="142.704"/>
      <point x="330.344" y="160.552"/>
      <point x="330.344" y="189.43200000000002" type="curve" smooth="yes"/>
      <point x="330.344" y="209.28"/>
      <point x="338.03999999999996" y="233.552"/>
      <point x="352.704" y="275.544" type="curve" smooth="yes"/>
      <point x="541.208" y="792.408" type="line" smooth="yes"/>
      <point x="563.5360000000001" y="854.544"/>
      <point x="530.872" y="884.72"/>
      <point x="444.344" y="884.72" type="curve" smooth="yes"/>
      <point x="320.632" y="884.72"/>
      <point x="189.61599999999999" y="813.728"/>
      <point x="47.496" y="614.856" type="curve"/>
      <point x="86.008" y="580.616" type="line"/>
      <point x="182.336" y="683.216"/>
      <point x="275.04" y="732.4"/>
      <point x="364.816" y="729.4" type="curve"/>
      <point x="323.128" y="788.632" type="line"/>
      <point x="144.272" y="298.104" type="line" smooth="yes"/>
      <point x="116.272" y="221.56"/>
      <point x="101.848" y="160.89600000000002"/>
      <point x="101.848" y="114.50399999999999" type="curve" smooth="yes"/>
      <point x="101.848" y="31.208"/>
      <point x="148.48" y="-24.240000000000002"/>
      <point x="262.104" y="-24.240000000000002" type="curve" smooth="yes"/>
      <point x="415.568" y="-24.240000000000002"/>
      <point x="539.136" y="87.24799999999999"/>
      <point x="714.664" y="433.52" type="curve"/>
      <point x="697.064" y="445.392" type="line"/>
    </contour>
  </outline>
</glyph>
<glyph name="v" format="2">
  <advance width="971.92"/>
  <unicode hex="0076"/>
  <anchor x="602.944" y="860.48" name="top"/>
  <anchor x="394.688" y="0.0" name="bottom"/>
  <outline>
    <contour>
      <point x="945.552" y="722.944" type="curve" smooth="yes"/>
      <point x="945.552" y="830.056"/>
      <point x="894.256" y="884.72"/>
      <point x="814.624" y="884.72" type="curve" smooth="yes"/>
      <point x="748.056" y="884.72"/>
      <point x="687.816" y="834.76"/>
      <point x="687.816" y="757.704" type="curve" smooth="yes"/>
      <point x="687.816" y="713.016"/>
      <point x="800.872" y="669.304"/>
      <point x="800.872" y="564.888" type="curve" smooth="yes"/>
      <point x="800.872" y="383.24"/>
      <point x="610.08" y="114.832"/>
      <point x="450.608" y="114.832" type="curve" smooth="yes"/>
      <point x="396.76" y="114.832"/>
      <point x="364.336" y="143.648"/>
      <point x="364.336" y="202.16" type="curve" smooth="yes"/>
      <point x="364.336" y="224.976"/>
      <point x="369.76" y="252.216"/>
      <point x="380.032" y="283.88" type="curve" smooth="yes"/>
      <point x="571.528" y="863.872" type="line"/>
      <point x="528.592" y="875.448"/>
      <point x="478.568" y="882.872"/>
      <point x="415.248" y="882.872" type="curve" smooth="yes"/>
      <point x="253.912" y="882.872"/>
      <point x="139.064" y="808.424"/>
      <point x="46.584" y="575.376" type="curve"/>
      <point x="93.608" y="554.44" type="line"/>
      <point x="167.576" y="692.344"/>
      <point x="217.312" y="723.952"/>
      <point x="291.008" y="723.952" type="curve" smooth="yes"/>
      <point x="296.008" y="723.952"/>
      <point x="301.008" y="723.952"/>
      <point x="306.008" y="723.952" type="curve"/>
      <point x="149.72" y="253.43200000000002" type="line" smooth="yes"/>
      <point x="137.6" y="216.376"/>
      <point x="131.752" y="181.59199999999998"/>
      <point x="131.752" y="150.656" type="curve" smooth="yes"/>
      <point x="131.752" y="41.968"/>
      <point x="204.688" y="-24.240000000000002"/>
      <point x="331.464" y="-24.240000000000002" type="curve" smooth="yes"/>
      <point x="645.968" y="-24.240000000000002"/>
      <point x="945.552" y="393.216"/>
    </contour>
  </outline>
</glyph>
<glyph name="w" format="2">
	<unicode hex="0077"/>
	<advance width="1397.128"/>
	<outline>
		<contour>
			<point x="789.448" y="860.48" type="line"/>
			<point x="672.328" y="460.448" type="line" smooth="yes"/>
			<point x="612.24" y="255.424"/>
			<point x="511.808" y="118.648"/>
			<point x="424.344" y="118.648" type="curve" smooth="yes"/>
			<point x="383.128" y="118.648"/>
			<point x="359.368" y="138.408"/>
			<point x="359.368" y="184.712" type="curve" smooth="yes"/>
			<point x="359.368" y="207.376"/>
			<point x="365.064" y="238.28"/>
			<point x="377.728" y="278.12" type="curve" smooth="yes"/>
			<point x="570.952" y="863.872" type="line"/>
			<point x="532.256" y="875.024"/>
			<point x="482.232" y="882.872"/>
			<point x="414.672" y="882.872" type="curve" smooth="yes"/>
			<point x="253.336" y="882.872"/>
			<point x="138.488" y="808.424"/>
			<point x="46.008" y="575.376" type="curve"/>
			<point x="93.032" y="554.44" type="line"/>
			<point x="167" y="692.344"/>
			<point x="216.736" y="723.952"/>
			<point x="290.432" y="723.952" type="curve" smooth="yes"/>
			<point x="295.432" y="723.952"/>
			<point x="300.432" y="723.952"/>
			<point x="305.432" y="723.952" type="curve"/>
			<point x="154.904" y="269.56" type="line" smooth="yes"/>
			<point x="140.48" y="224.592"/>
			<point x="133.056" y="184.048"/>
			<point x="133.056" y="148.504" type="curve" smooth="yes"/>
			<point x="133.056" y="38.512"/>
			<point x="200.384" y="-24.24"/>
			<point x="312.552" y="-24.24" type="curve" smooth="yes"/>
			<point x="441.568" y="-24.24"/>
			<point x="592.224" y="73.512"/>
			<point x="701.184" y="377.68" type="curve"/>
			<point x="676.944" y="383.192" type="line"/>
			<point x="637.2" y="246.872" type="line" smooth="yes"/>
			<point x="622.504" y="194.208"/>
			<point x="615.232" y="150.24"/>
			<point x="615.232" y="115.12" type="curve" smooth="yes"/>
			<point x="615.232" y="12.336"/>
			<point x="674.712" y="-24.24"/>
			<point x="781.824" y="-24.24" type="curve" smooth="yes"/>
			<point x="1079.6" y="-24.24"/>
			<point x="1366.456" y="393.216"/>
			<point x="1366.456" y="722.944" type="curve" smooth="yes"/>
			<point x="1366.456" y="830.056"/>
			<point x="1314.736" y="884.72"/>
			<point x="1236.8" y="884.72" type="curve" smooth="yes"/>
			<point x="1171.504" y="884.72"/>
			<point x="1108.72" y="834.76"/>
			<point x="1108.72" y="757.704" type="curve" smooth="yes"/>
			<point x="1108.72" y="713.016"/>
			<point x="1223.472" y="669.304"/>
			<point x="1223.472" y="564.888" type="curve" smooth="yes"/>
			<point x="1223.472" y="383.24"/>
			<point x="1044.288" y="114.832"/>
			<point x="897.696" y="114.832" type="curve" smooth="yes"/>
			<point x="849.272" y="114.832"/>
			<point x="822.424" y="137.496"/>
			<point x="822.424" y="191.856" type="curve" smooth="yes"/>
			<point x="822.424" y="214.672"/>
			<point x="827.272" y="243.184"/>
			<point x="836.968" y="278.12" type="curve" smooth="yes"/>
			<point x="1003.4" y="860.48" type="line"/>
		</contour>
	</outline>
	<anchor name="top" x="862.696" y="860.48"/>
	<anchor name="bottom" x="623.192" y="0"/>
</glyph>
<glyph name="x" format="2">
  <advance width="987.2"/>
  <unicode hex="0078"/>
  <anchor x="613.408" y="860.48" name="top"/>
  <anchor x="383.584" y="0.0" name="bottom"/>
  <outline>
    <contour>
      <point x="536.704" y="398.128" type="line"/>
      <point x="650.856" y="557.888" type="line" smooth="yes"/>
      <point x="730.736" y="670.376"/>
      <point x="790.608" y="709.432"/>
      <point x="834.424" y="709.432" type="curve" smooth="yes"/>
      <point x="856.784" y="709.432"/>
      <point x="871.752" y="700.16"/>
      <point x="890.872" y="672.192" type="curve" smooth="yes"/>
      <point x="909.992" y="644.224"/>
      <point x="921.5360000000001" y="637.224"/>
      <point x="939.232" y="637.224" type="curve" smooth="yes"/>
      <point x="1001.984" y="637.224"/>
      <point x="1058.92" y="690.008"/>
      <point x="1058.92" y="766.032" type="curve" smooth="yes"/>
      <point x="1058.92" y="830.936"/>
      <point x="1013.712" y="884.72"/>
      <point x="930.84" y="884.72" type="curve" smooth="yes"/>
      <point x="843.752" y="884.72"/>
      <point x="769.456" y="837.088"/>
      <point x="671.768" y="701.28" type="curve" smooth="yes"/>
      <point x="515.432" y="482.576" type="line"/>
      <point x="455.528" y="474.472" type="line"/>
      <point x="332.648" y="303.864" type="line" smooth="yes"/>
      <point x="247.224" y="184.44"/>
      <point x="194.56" y="151.048"/>
      <point x="155.864" y="151.048" type="curve" smooth="yes"/>
      <point x="134.352" y="151.048"/>
      <point x="118.96000000000001" y="160.32"/>
      <point x="100.992" y="185.712" type="curve" smooth="yes"/>
      <point x="83.024" y="211.10399999999998"/>
      <point x="71.6" y="223.256"/>
      <point x="51.056" y="223.256" type="curve" smooth="yes"/>
      <point x="-10.848" y="223.256"/>
      <point x="-68.632" y="171.32"/>
      <point x="-68.632" y="94.44800000000001" type="curve" smooth="yes"/>
      <point x="-68.632" y="29.544"/>
      <point x="-24.0" y="-24.240000000000002"/>
      <point x="59.448" y="-24.240000000000002" type="curve" smooth="yes"/>
      <point x="145.38400000000001" y="-24.240000000000002"/>
      <point x="215.56" y="17.0"/>
      <point x="313.432" y="155.808" type="curve" smooth="yes"/>
      <point x="480.616" y="392.144" type="line"/>
    </contour>
    <contour>
      <point x="938.136" y="338.632" type="curve"/>
      <point x="880.84" y="338.632" type="line"/>
      <point x="790.528" y="168.224"/>
      <point x="742.3199999999999" y="130.288"/>
      <point x="686.96" y="130.288" type="curve" smooth="yes"/>
      <point x="672.504" y="130.288"/>
      <point x="669.352" y="133.44"/>
      <point x="659.776" y="179.32" type="curve" smooth="yes"/>
      <point x="530.56" y="789.096" type="line" smooth="yes"/>
      <point x="516.016" y="858.392"/>
      <point x="487.384" y="884.72"/>
      <point x="422.488" y="884.72" type="curve" smooth="yes"/>
      <point x="285.112" y="884.72"/>
      <point x="177.76" y="801.816"/>
      <point x="105.55199999999999" y="530.488" type="curve"/>
      <point x="166.24" y="530.488" type="line"/>
      <point x="215.848" y="678.192"/>
      <point x="269.88" y="724.528"/>
      <point x="317.608" y="724.528" type="curve" smooth="yes"/>
      <point x="330.184" y="724.528"/>
      <point x="332.608" y="720.376"/>
      <point x="340.456" y="685.56" type="curve" smooth="yes"/>
      <point x="473.128" y="70.80799999999999" type="line" smooth="yes"/>
      <point x="488.672" y="0.9359999999999999"/>
      <point x="518.608" y="-24.240000000000002"/>
      <point x="584.656" y="-24.240000000000002" type="curve" smooth="yes"/>
      <point x="732.208" y="-24.240000000000002"/>
      <point x="826.736" y="48.751999999999995"/>
    </contour>
  </outline>
</glyph>
<glyph name="y" format="2">
	<unicode hex="0079"/>
	<advance width="962.72"/>
	<outline>
		<contour>
			<point x="103.184" y="491.8" type="line"/>
			<point x="138.76" y="657.016"/>
			<point x="184.608" y="707.136"/>
			<point x="228.064" y="707.136" type="curve" smooth="yes"/>
			<point x="248.216" y="707.136"/>
			<point x="255.912" y="692.712"/>
			<point x="286.392" y="539.6" type="curve" smooth="yes"/>
			<point x="316.872" y="386.064"/>
			<point x="350.2" y="183.344"/>
			<point x="405.56" y="-224.12" type="curve"/>
			<point x="577.928" y="-23.12" type="line"/>
			<point x="524.896" y="391.552"/>
			<point x="488.688" y="620.344"/>
			<point x="456.784" y="735.792" type="curve" smooth="yes"/>
			<point x="424.88" y="851.24"/>
			<point x="393.368" y="884.72"/>
			<point x="333.528" y="884.72" type="curve" smooth="yes"/>
			<point x="184.24" y="884.72"/>
			<point x="94.64" y="779.976"/>
			<point x="46.496" y="491.8" type="curve"/>
		</contour>
		<contour>
			<point x="474.032" y="-55.008" type="line"/>
			<point x="356.696" y="-263.28"/>
			<point x="216.056" y="-386.712"/>
			<point x="135.424" y="-386.712" type="curve" smooth="yes"/>
			<point x="105" y="-386.712"/>
			<point x="72.88" y="-372.32"/>
			<point x="36.576" y="-331.352" type="curve" smooth="yes"/>
			<point x="0.272" y="-290.384"/>
			<point x="-13.392" y="-279.568"/>
			<point x="-27.512" y="-279.568" type="curve" smooth="yes"/>
			<point x="-85.808" y="-279.568"/>
			<point x="-134.376" y="-327.048"/>
			<point x="-134.376" y="-394.616" type="curve" smooth="yes"/>
			<point x="-134.376" y="-474.52"/>
			<point x="-87.168" y="-530"/>
			<point x="27.368" y="-530" type="curve" smooth="yes"/>
			<point x="205.272" y="-530"/>
			<point x="381.472" y="-392.616"/>
			<point x="625.112" y="-5.208" type="curve" smooth="yes"/>
			<point x="868.752" y="382.2"/>
			<point x="962.896" y="661.176"/>
			<point x="962.896" y="833.056" type="curve" smooth="yes"/>
			<point x="962.896" y="866.48"/>
			<point x="944.896" y="880.48"/>
			<point x="909.472" y="880.48" type="curve" smooth="yes"/>
			<point x="865.176" y="880.48"/>
			<point x="810.976" y="874.36"/>
			<point x="768.552" y="862.056" type="curve"/>
			<point x="771.824" y="492.848"/>
			<point x="709.312" y="266.32"/>
			<point x="510.424" y="-38.936" type="curve"/>
		</contour>
	</outline>
	<anchor name="top" x="556.976" y="860.48"/>
	<anchor name="bottom" x="757.248" y="-144.128"/>
</glyph>
<glyph name="z" format="2">
	<unicode hex="007A"/>
	<advance width="840.12"/>
	<outline>
		<contour>
			<point x="-20.696" y="33.416" type="line"/>
			<point x="41.544" y="-20" type="line"/>
			<point x="887.632" y="842.608" type="line"/>
			<point x="828.848" y="900.904" type="line"/>
		</contour>
		<contour>
			<point x="121.312" y="549.44" type="line"/>
			<point x="208.864" y="681.424"/>
			<point x="244.496" y="696.24"/>
			<point x="380.192" y="659.392" type="curve" smooth="yes"/>
			<point x="603.712" y="598.512" type="line"/>
			<point x="765.824" y="772.088" type="line"/>
			<point x="432.504" y="861.72" type="line" smooth="yes"/>
			<point x="277.696" y="902.808"/>
			<point x="191.704" y="844.704"/>
			<point x="77.04" y="569.56" type="curve"/>
		</contour>
		<contour>
			<point x="427.352" y="2.088" type="line" smooth="yes"/>
			<point x="543.736" y="-51.24"/>
			<point x="611.032" y="-35.088"/>
			<point x="804.32" y="266" type="curve"/>
			<point x="764.352" y="296.12" type="line"/>
			<point x="644.896" y="155.752"/>
			<point x="604.872" y="144.48"/>
			<point x="499.568" y="196.936" type="curve" smooth="yes"/>
			<point x="304.328" y="293.664" type="line"/>
			<point x="142.36" y="131.688" type="line"/>
		</contour>
	</outline>
	<anchor name="top" x="504.952" y="860.48"/>
	<anchor name="bottom" x="352.984" y="0"/>
</glyph>
<glyph name="bar" format="2">
	<unicode hex="007C"/>
	<advance width="466.04"/>
	<outline>
		<contour>
			<point x="-106.416" y="-530" type="line"/>
			<point x="8.184" y="-530" type="line"/>
			<point x="596.184" y="1470" type="line"/>
			<point x="481.584" y="1470" type="line"/>
		</contour>
	</outline>
</glyph>
<glyph name="braceright" format="2">
  <advance width="598"/>
  <unicode hex="007D"/>
  <outline>
    <contour>
      <point x="618.4" y="610.36" type="line"/>
      <point x="545.936" y="613.36" type="line" smooth="yes"/>
      <point x="481.448" y="615.784"/>
      <point x="449.536" y="640.512"/>
      <point x="449.536" y="691.696" type="curve" smooth="yes"/>
      <point x="449.536" y="804.144"/>
      <point x="606.408" y="1054.704"/>
      <point x="606.408" y="1189.392" type="curve" smooth="yes"/>
      <point x="606.408" y="1296.24"/>
      <point x="540.832" y="1388.904"/>
      <point x="415.624" y="1408.784" type="curve" smooth="yes"/>
      <point x="354.544" y="1418.056" type="line"/>
      <point x="327.608" y="1356.792" type="line"/>
      <point x="362.392" y="1349.216" type="line" smooth="yes"/>
      <point x="422.76" y="1334.88"/>
      <point x="446.64" y="1292.936"/>
      <point x="446.64" y="1232.056" type="curve" smooth="yes"/>
      <point x="446.64" y="1105.368"/>
      <point x="316.248" y="846.72"/>
      <point x="316.248" y="724.064" type="curve" smooth="yes"/>
      <point x="316.248" y="650.368"/>
      <point x="352.28" y="590.456"/>
      <point x="441.584" y="565.12" type="curve"/>
      <point x="446.736" y="581.728" type="line"/>
      <point x="315.28" y="551.936"/>
      <point x="234.824" y="465.744"/>
      <point x="203.192" y="357.816" type="curve" smooth="yes"/>
      <point x="165.072" y="221.088"/>
      <point x="151.472" y="90.672"/>
      <point x="121.624" y="-15.208" type="curve" smooth="yes"/>
      <point x="92.50399999999999" y="-117.632"/>
      <point x="41.232" y="-187.336"/>
      <point x="-75.232" y="-196.216" type="curve" smooth="yes"/>
      <point x="-148.728" y="-202.096" type="line"/>
      <point x="-163.272" y="-275.816" type="line"/>
      <point x="-59.903999999999996" y="-268.24" type="line" smooth="yes"/>
      <point x="151.448" y="-252.544"/>
      <point x="269.632" y="-137.264"/>
      <point x="308.632" y="1.9520000000000017" type="curve" smooth="yes"/>
      <point x="343.448" y="125.03999999999999"/>
      <point x="331.688" y="271.952"/>
      <point x="367.48" y="402.88" type="curve" smooth="yes"/>
      <point x="392.176" y="487.728"/>
      <point x="434.392" y="525.032"/>
      <point x="522.696" y="528.88" type="curve" smooth="yes"/>
      <point x="594.856" y="531.88" type="line"/>
    </contour>
  </outline>
</glyph>
<glyph name="exclamdown" format="2">
	<unicode hex="00A1"/>
	<advance width="499.104"/>
	<outline>
		<contour>
			<point x="-145.288" y="-422.936" type="line" smooth="yes"/>
			<point x="-164.192" y="-482.616"/>
			<point x="-107.392" y="-506.272"/>
			<point x="-30.464" y="-506.272" type="curve" smooth="yes"/>
			<point x="45.736" y="-506.272"/>
			<point x="104.624" y="-483.192"/>
			<point x="122.376" y="-424.664" type="curve" smooth="yes"/>
			<point x="151.144" y="-322.112" type="line" smooth="yes"/>
			<point x="183.784" y="-211.704"/>
			<point x="206.952" y="-0.912"/>
			<point x="275.088" y="412.992" type="curve"/>
			<point x="213" y="412.992" type="line"/>
			<point x="27.976" y="-0.912"/>
			<point x="-76.968" y="-211.704"/>
			<point x="-112.488" y="-322.112" type="curve" smooth="yes"/>
		</contour>
		<contour>
			<point x="318.272" y="576.936" type="curve" smooth="yes"/>
			<point x="415.384" y="576.936"/>
			<point x="488.648" y="652.384"/>
			<point x="488.648" y="748.008" type="curve" smooth="yes"/>
			<point x="488.648" y="818"/>
			<point x="440.984" y="872.176"/>
			<point x="360.872" y="872.176" type="curve" smooth="yes"/>
			<point x="263.76" y="872.176"/>
			<point x="190.496" y="796.728"/>
			<point x="190.496" y="701.104" type="curve" smooth="yes"/>
			<point x="190.496" y="631.112"/>
			<point x="238.16" y="576.936"/>
		</contour>
	</outline>
</glyph>
<glyph name="currency" format="2">
  <advance width="863.344"/>
  <unicode hex="00A4"/>
  <outline>
    <contour>
      <point x="186.368" y="705.512" type="line"/>
      <point x="273.664" y="573.008" type="line"/>
      <point x="364.8" y="642.512" type="line"/>
      <point x="276.384" y="772.592" type="line"/>
    </contour>
    <contour>
      <point x="732.368" y="748.808" type="line"/>
      <point x="602.864" y="641.48" type="line"/>
      <point x="661.616" y="563.128" type="line"/>
      <point x="792.392" y="669.184" type="line"/>
    </contour>
    <contour>
      <point x="680.704" y="166.488" type="line"/>
      <point x="593.408" y="298.992" type="line"/>
      <point x="502.272" y="229.488" type="line"/>
      <point x="590.688" y="99.408" type="line"/>
    </contour>
    <contour>
      <point x="74.68" y="202.816" type="line"/>
      <point x="134.704" y="123.19200000000001" type="line"/>
      <point x="264.208" y="230.52" type="line"/>
      <point x="205.456" y="308.872" type="line"/>
    </contour>
    <contour>
      <point x="481.112" y="715.72" type="curve" smooth="yes"/>
      <point x="271.848" y="715.72"/>
      <point x="143.848" y="559.752"/>
      <point x="143.848" y="390.24" type="curve" smooth="yes"/>
      <point x="143.848" y="257.456"/>
      <point x="245.024" y="156.28"/>
      <point x="385.96" y="156.28" type="curve" smooth="yes"/>
      <point x="595.224" y="156.28"/>
      <point x="723.224" y="312.248"/>
      <point x="723.224" y="481.76" type="curve" smooth="yes"/>
      <point x="723.224" y="614.544"/>
      <point x="622.048" y="715.72"/>
    </contour>
    <contour>
      <point x="397.928" y="256.328" type="curve" smooth="yes"/>
      <point x="307.016" y="256.328"/>
      <point x="252.44" y="315.904"/>
      <point x="252.44" y="402.936" type="curve" smooth="yes"/>
      <point x="252.44" y="515.336"/>
      <point x="331.144" y="615.672"/>
      <point x="469.144" y="615.672" type="curve" smooth="yes"/>
      <point x="560.056" y="615.672"/>
      <point x="614.632" y="556.096"/>
      <point x="614.632" y="469.064" type="curve" smooth="yes"/>
      <point x="614.632" y="356.664"/>
      <point x="535.928" y="256.328"/>
    </contour>
  </outline>
</glyph>
<glyph name="brokenbar" format="2">
	<unicode hex="00A6"/>
	<advance width="466.04"/>
	<outline>
		<contour>
			<point x="366.816" y="687.56" type="line"/>
			<point x="596.76" y="1470" type="line"/>
			<point x="482.16" y="1470" type="line"/>
			<point x="252.216" y="687.56" type="line"/>
		</contour>
		<contour>
			<point x="-105.84" y="-530" type="line"/>
			<point x="8.76" y="-530" type="line"/>
			<point x="254.816" y="307.56" type="line"/>
			<point x="140.216" y="307.56" type="line"/>
		</contour>
	</outline>
</glyph>
<glyph name="section" format="2">
	<unicode hex="00A7"/>
	<advance width="1056.16"/>
	<outline>
		<contour>
			<point x="544.184" y="775.928" type="curve"/>
			<point x="504.736" y="835.232" type="line"/>
			<point x="226.984" y="786.48"/>
			<point x="105.584" y="646.784"/>
			<point x="105.584" y="476.328" type="curve" smooth="yes"/>
			<point x="105.584" y="161.672"/>
			<point x="558.896" y="198.528"/>
			<point x="558.896" y="-22.992" type="curve" smooth="yes"/>
			<point x="558.896" y="-110.304"/>
			<point x="493.192" y="-191.28"/>
			<point x="373.704" y="-191.28" type="curve" smooth="yes"/>
			<point x="174.848" y="-191.28"/>
			<point x="199.608" y="-18.768"/>
			<point x="84.344" y="-18.768" type="curve" smooth="yes"/>
			<point x="31.44" y="-18.768"/>
			<point x="-8.528" y="-57.704"/>
			<point x="-8.528" y="-119.64" type="curve" smooth="yes"/>
			<point x="-8.528" y="-212.336"/>
			<point x="107.384" y="-279.24"/>
			<point x="311.432" y="-279.24" type="curve" smooth="yes"/>
			<point x="608.16" y="-279.24"/>
			<point x="759.096" y="-113.8"/>
			<point x="759.096" y="81.528" type="curve" smooth="yes"/>
			<point x="759.096" y="392.336"/>
			<point x="309.96" y="364.016"/>
			<point x="309.96" y="578.208" type="curve" smooth="yes"/>
			<point x="309.96" y="670.464"/>
			<point x="376.76" y="753.872"/>
		</contour>
		<contour>
			<point x="812.776" y="527.528" type="curve" smooth="yes"/>
			<point x="812.776" y="423.752"/>
			<point x="734.456" y="344.376"/>
			<point x="581.432" y="323.472" type="curve"/>
			<point x="620.88" y="263.592" type="line"/>
			<point x="892.296" y="303.704"/>
			<point x="1021.184" y="440.52"/>
			<point x="1021.184" y="618.464" type="curve" smooth="yes"/>
			<point x="1021.184" y="925.632"/>
			<point x="563.264" y="890.504"/>
			<point x="563.264" y="1111.448" type="curve" smooth="yes"/>
			<point x="563.264" y="1197.032"/>
			<point x="628.392" y="1274.552"/>
			<point x="761.704" y="1274.552" type="curve" smooth="yes"/>
			<point x="939.824" y="1274.552"/>
			<point x="912.76" y="1100.888"/>
			<point x="1033.208" y="1100.888" type="curve" smooth="yes"/>
			<point x="1087.84" y="1100.888"/>
			<point x="1130.688" y="1142.128"/>
			<point x="1130.688" y="1200.032" type="curve" smooth="yes"/>
			<point x="1130.688" y="1280.632"/>
			<point x="1037.24" y="1364.24"/>
			<point x="816.488" y="1364.24" type="curve" smooth="yes"/>
			<point x="505.36" y="1364.24"/>
			<point x="366.52" y="1200.528"/>
			<point x="366.52" y="1014.992" type="curve" smooth="yes"/>
			<point x="366.52" y="707.064"/>
			<point x="812.776" y="734.808"/>
		</contour>
	</outline>
</glyph>
<glyph name="copyright" format="2">
  <advance width="1657"/>
  <unicode hex="00A9"/>
  <outline>
    <contour>
      <point x="905.568" y="354.36" type="curve" smooth="yes"/>
      <point x="775.728" y="354.36"/>
      <point x="712.176" y="435.64"/>
      <point x="712.176" y="576.528" type="curve" smooth="yes"/>
      <point x="712.176" y="788.096"/>
      <point x="821.296" y="994.488"/>
      <point x="1025.32" y="994.488" type="curve" smooth="yes"/>
      <point x="1082.72" y="994.488"/>
      <point x="1141.728" y="978.912"/>
      <point x="1176.792" y="948.792" type="curve"/>
      <point x="1133.064" y="996.968" type="line"/>
      <point x="1191.152" y="788.096" type="line"/>
      <point x="1230.632" y="793.608" type="line"/>
      <point x="1280.328" y="1092.152" type="line"/>
      <point x="1258.88" y="1092.152" type="line"/>
      <point x="1159.0" y="1035.064" type="line"/>
      <point x="1212.512" y="1044.304" type="line"/>
      <point x="1157.88" y="1057.848"/>
      <point x="1094.232" y="1065.0"/>
      <point x="1037.352" y="1065.0" type="curve" smooth="yes"/>
      <point x="696.824" y="1065.0"/>
      <point x="506.912" y="849.152"/>
      <point x="506.912" y="601.184" type="curve" smooth="yes"/>
      <point x="506.912" y="410.424"/>
      <point x="638.368" y="286.152"/>
      <point x="869.672" y="286.152" type="curve" smooth="yes"/>
      <point x="952.032" y="286.152"/>
      <point x="1003.968" y="296.304"/>
      <point x="1077.272" y="317.336" type="curve"/>
      <point x="1181.664" y="538.488" type="line"/>
      <point x="1139.12" y="538.488" type="line"/>
      <point x="956.856" y="339.608" type="line"/>
      <point x="1037.76" y="388.664" type="line"/>
      <point x="980.904" y="360.904"/>
      <point x="954.088" y="354.36"/>
    </contour>
    <contour>
      <point x="826.728" y="70.24" type="curve" smooth="yes"/>
      <point x="500.52" y="70.24"/>
      <point x="295.544" y="278.056"/>
      <point x="295.544" y="579.392" type="curve" smooth="yes"/>
      <point x="295.544" y="954.352"/>
      <point x="581.056" y="1269.76"/>
      <point x="976.392" y="1269.76" type="curve" smooth="yes"/>
      <point x="1302.6" y="1269.76"/>
      <point x="1507.576" y="1061.944"/>
      <point x="1507.576" y="760.608" type="curve" smooth="yes"/>
      <point x="1507.576" y="385.224"/>
      <point x="1222.064" y="70.24"/>
    </contour>
    <contour>
      <point x="982.36" y="1364.24" type="curve" smooth="yes"/>
      <point x="518.24" y="1364.24"/>
      <point x="186.488" y="1001.624"/>
      <point x="186.488" y="566.272" type="curve" smooth="yes"/>
      <point x="186.488" y="210.968"/>
      <point x="435.28" y="-24.240000000000002"/>
      <point x="820.184" y="-24.240000000000002" type="curve" smooth="yes"/>
      <point x="1284.88" y="-24.240000000000002"/>
      <point x="1616.632" y="337.952"/>
      <point x="1616.632" y="773.728" type="curve" smooth="yes"/>
      <point x="1616.632" y="1129.032"/>
      <point x="1367.84" y="1364.24"/>
    </contour>
  </outline>
</glyph>
<glyph name="ordfeminine" format="2">
  <advance width="920.184"/>
  <unicode hex="00AA"/>
  <outline>
    <contour>
      <point x="155.096" y="455.096" type="line"/>
      <point x="787.248" y="455.096" type="line"/>
      <point x="820.184" y="562.328" type="line"/>
      <point x="188.184" y="562.328" type="line"/>
    </contour>
    <contour>
      <point x="622.384" y="745.296" type="line" smooth="yes"/>
      <point x="605.568" y="693.848"/>
      <point x="632.384" y="670.0"/>
      <point x="700.192" y="670.0" type="curve" smooth="yes"/>
      <point x="782.8441516034985" y="670.0"/>
      <point x="859.056" y="703.416"/>
      <point x="983.992" y="822.568" type="curve"/>
      <point x="959.72" y="859.928" type="line"/>
      <point x="873.48" y="803.712"/>
      <point x="813.48" y="789.408"/>
      <point x="758.392" y="791.896" type="curve"/>
      <point x="792.4159999999999" y="742.392" type="line"/>
      <point x="982.992" y="1340.0" type="line"/>
      <point x="889.584" y="1340.0" type="line"/>
      <point x="786.728" y="1304.808" type="line"/>
      <point x="692.216" y="1044.16" type="line" smooth="yes"/>
      <point x="638.3220604677838" y="892.7801577352317"/>
      <point x="529.3958857142857" y="799.528"/>
      <point x="470.192" y="799.528" type="curve" smooth="yes"/>
      <point x="437.432" y="799.528"/>
      <point x="424.672" y="815.44"/>
      <point x="424.672" y="854.928" type="curve" smooth="yes"/>
      <point x="424.672" y="977.4649633507853"/>
      <point x="549.9686666666666" y="1265.52"/>
      <point x="692.688" y="1265.52" type="curve" smooth="yes"/>
      <point x="737.656" y="1265.52"/>
      <point x="760.776" y="1237.368"/>
      <point x="773.08" y="1200.336" type="curve"/>
      <point x="811.472" y="1258.608" type="line"/>
      <point x="778.328" y="1315.144"/>
      <point x="734.456" y="1350.208"/>
      <point x="662.336" y="1350.208" type="curve" smooth="yes"/>
      <point x="435.616" y="1350.208"/>
      <point x="237.704" y="1034.808"/>
      <point x="237.704" y="826.544" type="curve" smooth="yes"/>
      <point x="237.704" y="719.664"/>
      <point x="301.52" y="671.152"/>
      <point x="388.184" y="671.152" type="curve" smooth="yes"/>
      <point x="479.056" y="671.152"/>
      <point x="567.6" y="730.792"/>
      <point x="724.688" y="983.112" type="curve"/>
      <point x="698.928" y="983.112" type="line"/>
    </contour>
  </outline>
</glyph>
<glyph name="degree" format="2">
	<unicode hex="00B0"/>
	<advance width="757.856"/>
	<outline>
		<contour>
			<point x="600.216" y="1354.24" type="curve" smooth="yes"/>
			<point x="391.976" y="1354.24"/>
			<point x="250.4" y="1194.424"/>
			<point x="250.4" y="1000.424" type="curve" smooth="yes"/>
			<point x="250.4" y="849.216"/>
			<point x="357.552" y="745.76"/>
			<point x="523.792" y="745.76" type="curve" smooth="yes"/>
			<point x="732.032" y="745.76"/>
			<point x="873.608" y="905.576"/>
			<point x="873.608" y="1099.576" type="curve" smooth="yes"/>
			<point x="873.608" y="1250.784"/>
			<point x="766.456" y="1354.24"/>
		</contour>
		<contour>
			<point x="534.216" y="830.36" type="curve" smooth="yes"/>
			<point x="411.76" y="830.36"/>
			<point x="343.152" y="897.576"/>
			<point x="343.152" y="1011.728" type="curve" smooth="yes"/>
			<point x="343.152" y="1143.032"/>
			<point x="428.032" y="1269.216"/>
			<point x="590.64" y="1269.216" type="curve" smooth="yes"/>
			<point x="712.248" y="1269.216"/>
			<point x="780.856" y="1202.424"/>
			<point x="780.856" y="1088.272" type="curve" smooth="yes"/>
			<point x="780.856" y="956.968"/>
			<point x="695.976" y="830.784"/>
		</contour>
	</outline>
</glyph>
<glyph name="uni00B3" format="2">
  <advance width="639.104"/>
  <unicode hex="00B3"/>
  <outline>
    <contour>
      <point x="357.272" y="934.248" type="line"/>
      <point x="396.576" y="942.552" type="line" smooth="yes"/>
      <point x="497.6222857142857" y="963.9445714285714"/>
      <point x="542.824" y="930.944"/>
      <point x="542.824" y="861.424" type="curve" smooth="yes"/>
      <point x="542.824" y="739.696"/>
      <point x="457.696" y="647.176"/>
      <point x="360.272" y="647.176" type="curve" smooth="yes"/>
      <point x="270.0" y="647.176"/>
      <point x="262.544" y="736.624"/>
      <point x="194.184" y="736.624" type="curve" smooth="yes"/>
      <point x="148.52" y="736.624"/>
      <point x="128.128" y="704.656"/>
      <point x="128.128" y="671.872" type="curve" smooth="yes"/>
      <point x="128.128" y="624.24"/>
      <point x="171.76" y="575.456"/>
      <point x="320.32" y="575.456" type="curve" smooth="yes"/>
      <point x="555.344" y="575.456"/>
      <point x="716.28" y="707.152"/>
      <point x="716.28" y="870.728" type="curve" smooth="yes"/>
      <point x="716.28" y="967.392"/>
      <point x="649.408" y="1029.024"/>
      <point x="536.504" y="1025.632" type="curve"/>
      <point x="529.44" y="1020.48" type="line"/>
      <point x="670.256" y="1051.304"/>
      <point x="736.8" y="1130.88"/>
      <point x="736.8" y="1216.272" type="curve" smooth="yes"/>
      <point x="736.8" y="1298.88"/>
      <point x="674.344" y="1359.512"/>
      <point x="564.896" y="1359.512" type="curve" smooth="yes"/>
      <point x="418.36" y="1359.512"/>
      <point x="333.304" y="1277.632"/>
      <point x="284.096" y="1131.216" type="curve"/>
      <point x="329.12" y="1114.856" type="line"/>
      <point x="363.816" y="1200.192"/>
      <point x="411.304" y="1235.224"/>
      <point x="483.336" y="1235.224" type="curve" smooth="yes"/>
      <point x="540.4" y="1235.224"/>
      <point x="574.976" y="1204.04"/>
      <point x="574.976" y="1153.432" type="curve" smooth="yes"/>
      <point x="574.976" y="1085.976"/>
      <point x="533.672" y="1032.488"/>
      <point x="353.184" y="987.424" type="curve"/>
    </contour>
  </outline>
</glyph>
<glyph name="uni00B5" format="2">
  <advance width="1129"/>
  <unicode hex="00B5"/>
  <outline>
    <contour>
      <point x="701.4" y="571.088" type="line"/>
      <point x="621.848" y="310.824"/>
      <point x="473.76" y="142.704"/>
      <point x="380.84000000000003" y="142.704" type="curve" smooth="yes"/>
      <point x="342.928" y="142.704"/>
      <point x="324.656" y="160.552"/>
      <point x="324.656" y="189.43200000000002" type="curve" smooth="yes"/>
      <point x="324.656" y="209.28"/>
      <point x="331.08" y="237.368"/>
      <point x="345.32" y="279.784" type="curve" smooth="yes"/>
      <point x="551.912" y="860.48" type="line"/>
      <point x="335.808" y="860.48" type="line"/>
      <point x="-139.304" y="-520.0" type="line"/>
      <point x="-109.8" y="-520.0" type="line"/>
      <point x="59.552" y="-496.792" type="line"/>
      <point x="151.584" y="182.744" type="line"/>
      <point x="115.744" y="164.04" type="line"/>
      <point x="94.432" y="43.88"/>
      <point x="148.552" y="-24.240000000000002"/>
      <point x="258.144" y="-24.240000000000002" type="curve" smooth="yes"/>
      <point x="409.88" y="-24.240000000000002"/>
      <point x="533.448" y="87.24799999999999"/>
      <point x="708.976" y="433.52" type="curve"/>
      <point x="691.376" y="445.392" type="line"/>
      <point x="577.712" y="59.592" type="line" smooth="yes"/>
      <point x="560.776" y="-0.30400000000000005"/>
      <point x="588.288" y="-24.240000000000002"/>
      <point x="675.432" y="-24.240000000000002" type="curve" smooth="yes"/>
      <point x="780.544" y="-24.240000000000002"/>
      <point x="910.952" y="51.2"/>
      <point x="1049.8319999999999" y="234.43200000000002" type="curve"/>
      <point x="1014.2" y="269.824" type="line"/>
      <point x="917.72" y="173.984"/>
      <point x="824.624" y="129.832"/>
      <point x="748.6" y="131.472" type="curve"/>
      <point x="769.648" y="77.032" type="line"/>
      <point x="1007.04" y="860.48" type="line"/>
      <point x="790.208" y="860.48" type="line"/>
    </contour>
  </outline>
</glyph>
<glyph name="paragraph" format="2">
	<unicode hex="00B6"/>
	<advance width="1190.968"/>
	<outline>
		<contour>
			<point x="490.856" y="-252.88" type="line"/>
			<point x="945.616" y="1235.4" type="line"/>
			<point x="1111.856" y="1235.4" type="line"/>
			<point x="1144.248" y="1340" type="line"/>
			<point x="870.32" y="1340" type="line"/>
			<point x="382.744" y="-252.88" type="line"/>
		</contour>
		<contour>
			<point x="741.784" y="-252.88" type="line"/>
			<point x="1199.392" y="1244.4" type="line"/>
			<point x="1373.296" y="1296.368" type="line"/>
			<point x="1386.416" y="1340" type="line"/>
			<point x="1121.248" y="1340" type="line"/>
			<point x="634.096" y="-252.88" type="line"/>
		</contour>
		<contour>
			<point x="934.656" y="1340" type="line"/>
			<point x="692.136" y="1340" type="line" smooth="yes"/>
			<point x="356.544" y="1340"/>
			<point x="216.704" y="1113.5419810419"/>
			<point x="216.704" y="899.08" type="curve" smooth="yes"/>
			<point x="216.704" y="736.376"/>
			<point x="308.04" y="643.08"/>
			<point x="516.848" y="643.08" type="curve" smooth="yes"/>
			<point x="721.48" y="643.08" type="line"/>
		</contour>
	</outline>
</glyph>
<glyph name="uni00B9" format="2">
  <advance width="514"/>
  <unicode hex="00B9"/>
  <outline>
    <contour>
      <point x="274.488" y="658.936" type="line"/>
      <point x="156.368" y="627.24" type="line"/>
      <point x="145.672" y="592.0" type="line"/>
      <point x="524.976" y="592.0" type="line"/>
      <point x="535.824" y="627.24" type="line"/>
      <point x="443.976" y="658.936" type="line"/>
      <point x="653.432" y="1342.88" type="line"/>
      <point x="561.848" y="1342.88" type="line"/>
      <point x="258.312" y="1197.52" type="line"/>
      <point x="264.944" y="1151.888" type="line"/>
      <point x="488.784" y="1211.824" type="line"/>
      <point x="464.944" y="1281.456" type="line"/>
    </contour>
  </outline>
</glyph>
<glyph name="ordmasculine" format="2">
	<unicode hex="00BA"/>
	<advance width="876.216"/>
	<outline>
		<contour>
			<point x="137.552" y="455.096" type="line"/>
			<point x="769.704" y="455.096" type="line"/>
			<point x="802.64" y="562.328" type="line"/>
			<point x="170.64" y="562.328" type="line"/>
		</contour>
		<contour>
			<point x="696.32" y="1360" type="curve" smooth="yes"/>
			<point x="462.512" y="1360"/>
			<point x="277.16" y="1157.96"/>
			<point x="277.16" y="916.688" type="curve" smooth="yes"/>
			<point x="277.16" y="767.632"/>
			<point x="364.304" y="675.184"/>
			<point x="531.56" y="675.184" type="curve" smooth="yes"/>
			<point x="764.944" y="675.184"/>
			<point x="950.296" y="877.224"/>
			<point x="950.296" y="1118.496" type="curve" smooth="yes"/>
			<point x="950.296" y="1267.552"/>
			<point x="863.152" y="1360"/>
		</contour>
		<contour>
			<point x="534.984" y="753.872" type="curve" smooth="yes"/>
			<point x="484.16" y="753.872"/>
			<point x="461.16" y="783.968"/>
			<point x="461.16" y="864.064" type="curve" smooth="yes"/>
			<point x="461.16" y="1053.856"/>
			<point x="571.16" y="1281.736"/>
			<point x="692.472" y="1281.736" type="curve" smooth="yes"/>
			<point x="743.296" y="1281.736"/>
			<point x="766.296" y="1251.64"/>
			<point x="766.296" y="1171.544" type="curve" smooth="yes"/>
			<point x="766.296" y="981.752"/>
			<point x="656.296" y="753.872"/>
		</contour>
	</outline>
</glyph>
<glyph name="questiondown" format="2">
  <advance width="916"/>
  <unicode hex="00BF"/>
  <outline>
    <contour>
      <point x="598.496" y="579.24" type="curve" smooth="yes"/>
      <point x="695.608" y="579.24"/>
      <point x="768.872" y="654.688"/>
      <point x="768.872" y="750.312" type="curve" smooth="yes"/>
      <point x="768.872" y="820.304"/>
      <point x="721.208" y="874.48"/>
      <point x="641.096" y="874.48" type="curve" smooth="yes"/>
      <point x="543.984" y="874.48"/>
      <point x="470.72" y="799.032"/>
      <point x="470.72" y="703.408" type="curve" smooth="yes"/>
      <point x="470.72" y="633.416"/>
      <point x="518.384" y="579.24"/>
    </contour>
    <contour>
      <point x="393.328" y="-508.0" type="curve" smooth="yes"/>
      <point x="572.08" y="-508.0"/>
      <point x="634.072" y="-448.976"/>
      <point x="634.072" y="-377.224" type="curve" smooth="yes"/>
      <point x="634.072" y="-325.776"/>
      <point x="595.2" y="-288.872"/>
      <point x="544.688" y="-288.872" type="curve" smooth="yes"/>
      <point x="445.4" y="-288.872"/>
      <point x="404.984" y="-387.888"/>
      <point x="269.736" y="-387.888" type="curve" smooth="yes"/>
      <point x="167.488" y="-387.888"/>
      <point x="91.64" y="-297.392"/>
      <point x="91.64" y="-187.89600000000002" type="curve" smooth="yes"/>
      <point x="91.64" y="-20.031999999999996"/>
      <point x="199.952" y="59.304"/>
      <point x="502.352" y="43.728" type="curve"/>
      <point x="560.736" y="415.296" type="line"/>
      <point x="512.104" y="415.296" type="line"/>
      <point x="378.272" y="94.344" type="line"/>
      <point x="498.56" y="236.176" type="line"/>
      <point x="109.776" y="257.536"/>
      <point x="-22.28" y="118.472"/>
      <point x="-22.28" y="-118.70400000000001" type="curve" smooth="yes"/>
      <point x="-22.28" y="-332.824"/>
      <point x="138.328" y="-508.0"/>
    </contour>
  </outline>
</glyph>
<glyph name="multiply" format="2">
  <advance width="1000.0"/>
  <unicode hex="00D7"/>
  <outline>
    <contour>
      <point x="91.92" y="187.696" type="line"/>
      <point x="148.064" y="106.19200000000001" type="line"/>
      <point x="911.232" y="684.304" type="line"/>
      <point x="855.088" y="765.808" type="line"/>
    </contour>
    <contour>
      <point x="257.376" y="697.032" type="line"/>
      <point x="654.064" y="106.19200000000001" type="line"/>
      <point x="745.776" y="174.968" type="line"/>
      <point x="349.088" y="765.808" type="line"/>
    </contour>
  </outline>
</glyph>
<glyph name="Oslash" format="2">
  <advance width="1521"/>
  <unicode hex="00D8"/>
  <anchor x="1007.224" y="1340.0" name="UCtop"/>
  <anchor x="643.456" y="0.0" name="bottom"/>
  <outline>
    <contour>
      <point x="1709.952" y="1340.0" type="line"/>
      <point x="1545.024" y="1340.0" type="line"/>
      <point x="1345.632" y="1172.0" type="line"/>
      <point x="1276.768" y="1118.04" type="line"/>
      <point x="342.2" y="314.2" type="line"/>
      <point x="270.64" y="262.968" type="line"/>
      <point x="-41.111999999999995" y="0.0" type="line"/>
      <point x="123.816" y="0.0" type="line"/>
      <point x="324.36" y="169.152" type="line"/>
      <point x="387.76800000000003" y="220.536" type="line"/>
      <point x="1320.032" y="1022.072" type="line"/>
      <point x="1402.808" y="1081.064" type="line"/>
    </contour>
    <contour>
      <point x="398.056" y="444.968" type="curve" smooth="yes"/>
      <point x="398.056" y="858.192"/>
      <point x="652.768" y="1257.192"/>
      <point x="969.864" y="1257.192" type="curve" smooth="yes"/>
      <point x="1161.952" y="1257.192"/>
      <point x="1269.632" y="1140.416"/>
      <point x="1269.632" y="895.032" type="curve" smooth="yes"/>
      <point x="1269.632" y="481.808"/>
      <point x="1014.92" y="82.80799999999999"/>
      <point x="697.824" y="82.80799999999999" type="curve" smooth="yes"/>
      <point x="505.736" y="82.80799999999999"/>
      <point x="398.056" y="199.584"/>
    </contour>
    <contour>
      <point x="1511.768" y="826.904" type="curve" smooth="yes"/>
      <point x="1511.768" y="1166.632"/>
      <point x="1310.736" y="1364.24"/>
      <point x="967.656" y="1364.24" type="curve" smooth="yes"/>
      <point x="501.52" y="1364.24"/>
      <point x="155.92000000000002" y="966.032"/>
      <point x="155.92000000000002" y="513.096" type="curve" smooth="yes"/>
      <point x="155.92000000000002" y="173.368"/>
      <point x="356.952" y="-24.240000000000002"/>
      <point x="700.032" y="-24.240000000000002" type="curve" smooth="yes"/>
      <point x="1166.168" y="-24.240000000000002"/>
      <point x="1511.768" y="373.968"/>
    </contour>
  </outline>
</glyph>
<glyph name="Thorn" format="2">
  <advance width="1240"/>
  <unicode hex="00DE"/>
  <outline>
    <contour>
      <point x="661.496" y="411.784" type="curve" smooth="yes"/>
      <point x="290.52" y="411.784" type="line"/>
      <point x="263.496" y="306.824" type="line"/>
      <point x="653.24" y="306.824" type="line" smooth="yes"/>
      <point x="1049.008" y="306.824"/>
      <point x="1259.256" y="503.728"/>
      <point x="1259.256" y="772.76" type="curve" smooth="yes"/>
      <point x="1259.256" y="941.576"/>
      <point x="1141.104" y="1077.208"/>
      <point x="824.088" y="1077.208" type="curve" smooth="yes"/>
      <point x="500.584" y="1077.208" type="line"/>
      <point x="458.584" y="972.248" type="line"/>
      <point x="765.376" y="972.248" type="line" smooth="yes"/>
      <point x="941.328" y="972.248"/>
      <point x="1015.152" y="895.912"/>
      <point x="1015.152" y="764.024" type="curve" smooth="yes"/>
      <point x="1015.152" y="548.928"/>
      <point x="887.136" y="411.784"/>
    </contour>
    <contour>
      <point x="471.68" y="1251.064" type="line"/>
      <point x="119.224" y="93.208" type="line"/>
      <point x="-36.84" y="40.544" type="line"/>
      <point x="-49.263999999999996" y="0.0" type="line"/>
      <point x="479.48" y="0.0" type="line"/>
      <point x="491.904" y="40.544" type="line"/>
      <point x="362.23199999999997" y="88.936" type="line"/>
      <point x="714.688" y="1246.792" type="line"/>
      <point x="870.752" y="1299.456" type="line"/>
      <point x="883.176" y="1340.0" type="line"/>
      <point x="354.432" y="1340.0" type="line"/>
      <point x="342.008" y="1299.456" type="line"/>
    </contour>
  </outline>
</glyph>
<glyph name="germandbls" format="2">
  <advance width="1194"/>
  <unicode hex="00DF"/>
  <outline>
    <contour>
      <point x="98.52" y="768.184" type="line"/>
      <point x="413.064" y="768.184" type="line"/>
      <point x="431.18399999999997" y="860.48" type="line"/>
      <point x="115.64" y="860.48" type="line"/>
    </contour>
    <contour>
      <point x="410.072" y="256.176" type="curve" smooth="yes"/>
      <point x="577.5840000000001" y="1041.168" type="line" smooth="yes"/>
      <point x="623.432" y="1255.024"/>
      <point x="723.08" y="1343.584"/>
      <point x="865.056" y="1343.584" type="curve" smooth="yes"/>
      <point x="969.456" y="1343.584"/>
      <point x="1027.032" y="1273.52"/>
      <point x="1027.032" y="1178.76" type="curve" smooth="yes"/>
      <point x="1027.032" y="1098.664"/>
      <point x="989.456" y="1023.208"/>
      <point x="853.272" y="917.0" type="curve" smooth="yes"/>
      <point x="717.088" y="810.792"/>
      <point x="664.664" y="731.192"/>
      <point x="664.664" y="631.768" type="curve" smooth="yes"/>
      <point x="664.664" y="554.016"/>
      <point x="696.6" y="479.928"/>
      <point x="799.656" y="385.92" type="curve" smooth="yes"/>
      <point x="902.712" y="291.912"/>
      <point x="931.952" y="241.12"/>
      <point x="931.952" y="181.0" type="curve" smooth="yes"/>
      <point x="931.952" y="101.784"/>
      <point x="873.8" y="54.480000000000004"/>
      <point x="789.136" y="54.480000000000004" type="curve" smooth="yes"/>
      <point x="744.288" y="54.480000000000004"/>
      <point x="705.504" y="77.328"/>
      <point x="665.872" y="135.112" type="curve" smooth="yes"/>
      <point x="626.24" y="192.89600000000002"/>
      <point x="613.12" y="203.89600000000002"/>
      <point x="598.24" y="203.89600000000002" type="curve" smooth="yes"/>
      <point x="539.912" y="203.89600000000002"/>
      <point x="499.464" y="162.808"/>
      <point x="499.464" y="111.088" type="curve" smooth="yes"/>
      <point x="499.464" y="39.456"/>
      <point x="570.52" y="-24.240000000000002"/>
      <point x="736.232" y="-24.240000000000002" type="curve" smooth="yes"/>
      <point x="937.936" y="-24.240000000000002"/>
      <point x="1089.104" y="112.384"/>
      <point x="1089.104" y="285.28" type="curve" smooth="yes"/>
      <point x="1089.104" y="371.152"/>
      <point x="1054.56" y="449.696"/>
      <point x="953.232" y="550.944" type="curve" smooth="yes"/>
      <point x="851.904" y="652.192"/>
      <point x="832.328" y="695.072"/>
      <point x="832.328" y="741.4639999999999" type="curve" smooth="yes"/>
      <point x="832.328" y="797.496"/>
      <point x="859.296" y="843.56"/>
      <point x="1001.784" y="928.832" type="curve" smooth="yes"/>
      <point x="1144.272" y="1014.104"/>
      <point x="1198.248" y="1085.016"/>
      <point x="1198.248" y="1185.632" type="curve" smooth="yes"/>
      <point x="1198.248" y="1320.024"/>
      <point x="1090.248" y="1423.24"/>
      <point x="893.08" y="1423.24" type="curve" smooth="yes"/>
      <point x="613.064" y="1423.24"/>
      <point x="390.032" y="1226.032"/>
      <point x="311.312" y="839.424" type="curve" smooth="yes"/>
      <point x="127.26400000000001" y="-64.59199999999998" type="line" smooth="yes"/>
      <point x="68.16" y="-360.176"/>
      <point x="2.848" y="-426.4"/>
      <point x="-90.072" y="-426.4" type="curve" smooth="yes"/>
      <point x="-124.92" y="-426.4"/>
      <point x="-159.496" y="-409.28"/>
      <point x="-197.4" y="-359.864" type="curve" smooth="yes"/>
      <point x="-235.304" y="-310.448"/>
      <point x="-259.152" y="-285.72"/>
      <point x="-283.88" y="-285.72" type="curve" smooth="yes"/>
      <point x="-335.24" y="-285.72"/>
      <point x="-376.872" y="-331.416"/>
      <point x="-376.872" y="-389.256" type="curve" smooth="yes"/>
      <point x="-376.872" y="-470.4"/>
      <point x="-312.088" y="-530.0"/>
      <point x="-175.312" y="-530.0" type="curve" smooth="yes"/>
      <point x="73.312" y="-530.0"/>
      <point x="281.024" y="-338.824"/>
    </contour>
  </outline>
</glyph>
<glyph name="ae" format="2">
	<unicode hex="00E6"/>
	<advance width="1393.84"/>
	<outline>
		<contour>
			<point x="938.064" y="741.448" type="line"/>
			<point x="975.368" y="860.48" type="line"/>
			<point x="870.48" y="860.48" type="line"/>
			<point x="757.536" y="813.416" type="line"/>
			<point x="630.784" y="467.92" type="line" smooth="yes"/>
			<point x="559.36" y="271.664"/>
			<point x="394.184" y="137.344"/>
			<point x="313.392" y="137.344" type="curve" smooth="yes"/>
			<point x="269.48" y="137.344"/>
			<point x="244.928" y="157.984"/>
			<point x="244.928" y="209.624" type="curve" smooth="yes"/>
			<point x="244.928" y="372.352"/>
			<point x="429.08" y="771.976"/>
			<point x="627.952" y="771.976" type="curve" smooth="yes"/>
			<point x="689.192" y="771.976"/>
			<point x="725.344" y="738.432"/>
			<point x="737.616" y="701.768" type="curve"/>
			<point x="785.248" y="766.368" type="line"/>
			<point x="731.376" y="842.416"/>
			<point x="671.112" y="873.232"/>
			<point x="583.512" y="873.232" type="curve" smooth="yes"/>
			<point x="280.152" y="873.232"/>
			<point x="14.248" y="452.2"/>
			<point x="14.248" y="181.272" type="curve" smooth="yes"/>
			<point x="14.248" y="41.544"/>
			<point x="93.424" y="-22.512"/>
			<point x="209.632" y="-22.512" type="curve" smooth="yes"/>
			<point x="335.952" y="-22.512"/>
			<point x="451.92" y="62.368"/>
			<point x="657.856" y="387.776" type="curve"/>
			<point x="636.072" y="404.48" type="line"/>
			<point x="596.912" y="114.512"/>
			<point x="706.632" y="-24.24"/>
			<point x="919.8" y="-24.24" type="curve" smooth="yes"/>
			<point x="1089.576" y="-24.24"/>
			<point x="1198.896" y="46.728"/>
			<point x="1308.072" y="306.952" type="curve"/>
			<point x="1247.832" y="306.952" type="line"/>
			<point x="1173.016" y="170.584"/>
			<point x="1101.168" y="131.16"/>
			<point x="1003.96" y="131.16" type="curve" smooth="yes"/>
			<point x="912.568" y="131.16"/>
			<point x="852.144" y="182.16"/>
			<point x="852.144" y="317.192" type="curve" smooth="yes"/>
			<point x="852.144" y="515.432"/>
			<point x="951.568" y="800.76"/>
			<point x="1112.376" y="800.76" type="curve" smooth="yes"/>
			<point x="1162.352" y="800.76"/>
			<point x="1188.568" y="768.696"/>
			<point x="1188.568" y="717.088" type="curve" smooth="yes"/>
			<point x="1188.568" y="619.88"/>
			<point x="1120.744" y="550.144"/>
			<point x="808.224" y="451.936" type="curve"/>
			<point x="805.224" y="371.88" type="line"/>
			<point x="974.944" y="417.368"/>
			<point x="1155.384" y="474.368"/>
			<point x="1313.776" y="540.64" type="curve"/>
			<point x="1349.808" y="573.488"/>
			<point x="1380.624" y="637.76"/>
			<point x="1380.624" y="703.24" type="curve" smooth="yes"/>
			<point x="1380.624" y="801.72"/>
			<point x="1322.504" y="884.72"/>
			<point x="1185.752" y="884.72" type="curve" smooth="yes"/>
			<point x="1059.384" y="884.72"/>
			<point x="956.392" y="817.592"/>
			<point x="898.328" y="726.472" type="curve"/>
		</contour>
	</outline>
	<anchor name="top" x="853.28" y="860.48"/>
	<anchor name="bottom" x="590.736" y="0"/>
</glyph>
<glyph name="divide" format="2">
  <advance width="1000"/>
  <unicode hex="00F7"/>
  <outline>
    <contour>
      <point x="148.248" y="490.72" type="line"/>
      <point x="114.616" y="381.28" type="line"/>
      <point x="854.056" y="381.28" type="line"/>
      <point x="887.688" y="490.72" type="line"/>
    </contour>
    <contour>
      <point x="596.152" y="868.72" type="curve" smooth="yes"/>
      <point x="524.52" y="868.72"/>
      <point x="473.432" y="813.784"/>
      <point x="473.432" y="747.0" type="curve" smooth="yes"/>
      <point x="473.432" y="680.216"/>
      <point x="524.52" y="625.28"/>
      <point x="596.152" y="625.28" type="curve" smooth="yes"/>
      <point x="667.784" y="625.28"/>
      <point x="718.872" y="680.216"/>
      <point x="718.872" y="747.0" type="curve" smooth="yes"/>
      <point x="718.872" y="813.784"/>
      <point x="667.784" y="868.72"/>
    </contour>
    <contour>
      <point x="406.152" y="246.72" type="curve" smooth="yes"/>
      <point x="334.52" y="246.72"/>
      <point x="283.432" y="191.784"/>
      <point x="283.432" y="125.0" type="curve" smooth="yes"/>
      <point x="283.432" y="58.216"/>
      <point x="334.52" y="3.280000000000001"/>
      <point x="406.152" y="3.280000000000001" type="curve" smooth="yes"/>
      <point x="477.784" y="3.280000000000001"/>
      <point x="528.872" y="58.216"/>
      <point x="528.872" y="125.0" type="curve" smooth="yes"/>
      <point x="528.872" y="191.784"/>
      <point x="477.784" y="246.72"/>
    </contour>
  </outline>
</glyph>
<glyph name="oslash" format="2">
  <advance width="957"/>
  <unicode hex="00F8"/>
  <anchor x="597.728" y="860.48" name="top"/>
  <anchor x="346.704" y="0.0" name="bottom"/>
  <outline>
    <contour>
      <point x="579.008" y="884.72" type="curve" smooth="yes"/>
      <point x="294.384" y="884.72"/>
      <point x="67.792" y="615.648"/>
      <point x="67.792" y="297.44" type="curve" smooth="yes"/>
      <point x="67.792" y="99.29599999999999"/>
      <point x="179.088" y="-24.240000000000002"/>
      <point x="377.52" y="-24.240000000000002" type="curve" smooth="yes"/>
      <point x="662.144" y="-24.240000000000002"/>
      <point x="888.736" y="244.832"/>
      <point x="888.736" y="563.04" type="curve" smooth="yes"/>
      <point x="888.736" y="761.184"/>
      <point x="777.44" y="884.72"/>
    </contour>
    <contour>
      <point x="377.4" y="59.72" type="curve" smooth="yes"/>
      <point x="313.056" y="59.72"/>
      <point x="283.416" y="103.456"/>
      <point x="283.416" y="213.344" type="curve" smooth="yes"/>
      <point x="283.416" y="478.16"/>
      <point x="435.84000000000003" y="800.76"/>
      <point x="579.128" y="800.76" type="curve" smooth="yes"/>
      <point x="643.472" y="800.76"/>
      <point x="673.112" y="757.024"/>
      <point x="673.112" y="647.136" type="curve" smooth="yes"/>
      <point x="673.112" y="382.32"/>
      <point x="520.688" y="59.72"/>
    </contour>
    <contour>
      <point x="876.744" y="860.48" type="line"/>
      <point x="764.032" y="759.064" type="line"/>
      <point x="697.136" y="713.464" type="line"/>
      <point x="209.43200000000002" y="228.168" type="line"/>
      <point x="141.928" y="185.776" type="line"/>
      <point x="-63.896" y="0.0" type="line"/>
      <point x="79.784" y="0.0" type="line"/>
      <point x="193.648" y="102.568" type="line"/>
      <point x="259.968" y="147.016" type="line"/>
      <point x="743.64" y="628.856" type="line"/>
      <point x="812.296" y="671.824" type="line"/>
      <point x="1020.424" y="860.48" type="line"/>
    </contour>
  </outline>
</glyph>
<glyph name="Aogonek" format="2">
  <advance width="1390.712"/>
  <unicode hex="0104"/>
  <outline>
    <contour>
      <point x="347.496" y="466.416" type="line"/>
      <point x="986.52" y="466.416" type="line"/>
      <point x="1020.032" y="566.224" type="line"/>
      <point x="381.008" y="566.224" type="line"/>
    </contour>
    <contour>
      <point x="1173.8" y="96.024" type="line"/>
      <point x="1036.864" y="1351.52" type="line"/>
      <point x="899.432" y="1351.52" type="line"/>
      <point x="33.944" y="91.056" type="line"/>
      <point x="-125.816" y="40.544" type="line"/>
      <point x="-138.088" y="0.0" type="line"/>
      <point x="282.208" y="0.0" type="line"/>
      <point x="294.48" y="40.544" type="line"/>
      <point x="158.752" y="91.056" type="line"/>
      <point x="890.184" y="1176.768" type="line"/>
      <point x="828.456" y="1173.376" type="line"/>
      <point x="934.456" y="93.176" type="line"/>
      <point x="759.664" y="40.544" type="line"/>
      <point x="746.968" y="0.0" type="line"/>
      <point x="1287.0720000000001" y="0.0" type="line"/>
      <point x="1299.344" y="40.544" type="line"/>
    </contour>
    <contour>
      <point x="869.4159999999999" y="-329.464" type="curve" smooth="yes"/>
      <point x="869.4159999999999" y="-273.8"/>
      <point x="897.296" y="-204.344"/>
      <point x="1000.4" y="-90.632" type="curve" smooth="yes"/>
      <point x="1117.904" y="46.0" type="line"/>
      <point x="1054.608" y="46.0" type="line"/>
      <point x="888.504" y="-123.80799999999999" type="line" smooth="yes"/>
      <point x="749.344" y="-260.52"/>
      <point x="725.704" y="-333.128"/>
      <point x="725.704" y="-394.976" type="curve" smooth="yes"/>
      <point x="725.704" y="-474.248"/>
      <point x="778.856" y="-530.0"/>
      <point x="863.64" y="-530.0" type="curve" smooth="yes"/>
      <point x="952.032" y="-530.0"/>
      <point x="1012.88" y="-489.512"/>
      <point x="1124.968" y="-377.632" type="curve"/>
      <point x="1101.456" y="-341.456" type="line"/>
      <point x="1028.176" y="-397.616"/>
      <point x="994.024" y="-412.192"/>
      <point x="953.024" y="-412.192" type="curve" smooth="yes"/>
      <point x="899.6" y="-412.192"/>
      <point x="869.4159999999999" y="-380.496"/>
    </contour>
  </outline>
</glyph>
<glyph name="aogonek" format="2">
	<unicode hex="0105"/>
	<advance width="1030.848"/>
	<outline>
		<contour>
			<point x="1005.632" y="234.432" type="curve"/>
			<point x="970" y="269.824" type="line"/>
			<point x="873.52" y="173.984"/>
			<point x="781" y="128.104"/>
			<point x="704.4" y="131.472" type="curve"/>
			<point x="735.816" y="71.424" type="line"/>
			<point x="990.208" y="860.48" type="line"/>
			<point x="870.48" y="860.48" type="line"/>
			<point x="757.536" y="813.416" type="line"/>
			<point x="630.784" y="467.92" type="line" smooth="yes"/>
			<point x="559.36" y="271.664"/>
			<point x="394.184" y="137.344"/>
			<point x="313.392" y="137.344" type="curve" smooth="yes"/>
			<point x="269.48" y="137.344"/>
			<point x="244.928" y="157.984"/>
			<point x="244.928" y="209.624" type="curve" smooth="yes"/>
			<point x="244.928" y="372.352"/>
			<point x="429.08" y="771.976"/>
			<point x="627.952" y="771.976" type="curve" smooth="yes"/>
			<point x="689.192" y="771.976"/>
			<point x="725.344" y="738.432"/>
			<point x="737.616" y="701.768" type="curve"/>
			<point x="785.248" y="766.368" type="line"/>
			<point x="731.376" y="842.416"/>
			<point x="671.112" y="873.232"/>
			<point x="583.512" y="873.232" type="curve" smooth="yes"/>
			<point x="280.152" y="873.232"/>
			<point x="14.248" y="452.2"/>
			<point x="14.248" y="181.272" type="curve" smooth="yes"/>
			<point x="14.248" y="41.544"/>
			<point x="93.424" y="-22.512"/>
			<point x="209.632" y="-22.512" type="curve" smooth="yes"/>
			<point x="330.44" y="-22.512"/>
			<point x="448.528" y="56.432"/>
			<point x="657.856" y="387.776" type="curve"/>
			<point x="631.432" y="387.776" type="line"/>
			<point x="525.736" y="65.352" type="line" smooth="yes"/>
			<point x="505.528" y="4.728"/>
			<point x="539.888" y="-24.24"/>
			<point x="625.72" y="-24.24" type="curve" smooth="yes"/>
			<point x="664.232" y="-24.24"/>
			<point x="703.896" y="-15.392"/>
			<point x="744.712" y="2.88" type="curve"/>
			<point x="736.656" y="22.12" type="line"/>
			<point x="585.944" y="-104.8" type="line" smooth="yes"/>
			<point x="428.808" y="-239.088"/>
			<point x="399.528" y="-312.968"/>
			<point x="399.528" y="-387.488" type="curve" smooth="yes"/>
			<point x="399.528" y="-468.488"/>
			<point x="457.288" y="-530"/>
			<point x="544.376" y="-530" type="curve" smooth="yes"/>
			<point x="632.768" y="-530"/>
			<point x="693.616" y="-489.512"/>
			<point x="805.704" y="-377.632" type="curve"/>
			<point x="782.192" y="-341.456" type="line"/>
			<point x="708.912" y="-397.616"/>
			<point x="674.76" y="-412.192"/>
			<point x="633.76" y="-412.192" type="curve" smooth="yes"/>
			<point x="575.728" y="-412.192"/>
			<point x="543.816" y="-375.888"/>
			<point x="543.816" y="-321.976" type="curve" smooth="yes"/>
			<point x="543.816" y="-254.792"/>
			<point x="575.216" y="-186.704"/>
			<point x="698.416" y="-72.776" type="curve" smooth="yes"/>
			<point x="854.28" y="71.632" type="line" smooth="yes"/>
			<point x="914.584" y="127.936"/>
			<point x="964.488" y="180.688"/>
		</contour>
	</outline>
</glyph>
<glyph name="Eogonek" format="2">
  <advance width="1256"/>
  <unicode hex="0118"/>
  <outline>
    <contour>
      <point x="471.68" y="1251.064" type="line"/>
      <point x="119.224" y="93.208" type="line"/>
      <point x="-36.84" y="40.544" type="line"/>
      <point x="-49.263999999999996" y="0.0" type="line"/>
      <point x="335.536" y="0.0" type="line"/>
      <point x="742.808" y="1340.0" type="line"/>
      <point x="354.432" y="1340.0" type="line"/>
      <point x="342.008" y="1299.456" type="line"/>
    </contour>
    <contour>
      <point x="806.952" y="441.0" type="line"/>
      <point x="892.368" y="441.0" type="line"/>
      <point x="972.368" y="703.0" type="line"/>
      <point x="1052.368" y="965.0" type="line"/>
      <point x="966.952" y="965.0" type="line"/>
      <point x="881.496" y="754.904" type="line"/>
      <point x="433.04" y="754.904" type="line"/>
      <point x="401.952" y="651.096" type="line"/>
      <point x="850.408" y="651.096" type="line"/>
    </contour>
    <contour>
      <point x="1303.24" y="947.672" type="line"/>
      <point x="1368.0" y="1400.448" type="line"/>
      <point x="1344.096" y="1400.448" type="line"/>
      <point x="1209.104" y="1340.0" type="line"/>
      <point x="612.496" y="1340.0" type="line"/>
      <point x="577.984" y="1235.04" type="line"/>
      <point x="1217.92" y="1235.04" type="line"/>
      <point x="1175.648" y="1267.184" type="line"/>
      <point x="1248.032" y="947.672" type="line"/>
    </contour>
    <contour>
      <point x="952.648" y="-68.328" type="line"/>
      <point x="978.672" y="-68.328" type="line"/>
      <point x="1200.144" y="389.68" type="line"/>
      <point x="1157.088" y="413.648" type="line"/>
      <point x="822.928" y="73.936" type="line"/>
      <point x="914.224" y="104.96000000000001" type="line"/>
      <point x="237.43200000000002" y="104.96000000000001" type="line"/>
      <point x="202.496" y="0.0" type="line"/>
      <point x="852.408" y="0.0" type="line"/>
    </contour>
    <contour>
      <point x="661.368" y="-329.464" type="curve" smooth="yes"/>
      <point x="661.368" y="-273.8"/>
      <point x="689.248" y="-204.344"/>
      <point x="792.352" y="-90.632" type="curve" smooth="yes"/>
      <point x="909.856" y="46.0" type="line"/>
      <point x="846.56" y="46.0" type="line"/>
      <point x="680.456" y="-123.80799999999999" type="line" smooth="yes"/>
      <point x="541.296" y="-260.52"/>
      <point x="517.656" y="-333.128"/>
      <point x="517.656" y="-394.976" type="curve" smooth="yes"/>
      <point x="517.656" y="-474.248"/>
      <point x="570.808" y="-530.0"/>
      <point x="655.592" y="-530.0" type="curve" smooth="yes"/>
      <point x="743.984" y="-530.0"/>
      <point x="804.832" y="-489.512"/>
      <point x="916.92" y="-377.632" type="curve"/>
      <point x="893.408" y="-341.456" type="line"/>
      <point x="820.128" y="-397.616"/>
      <point x="785.976" y="-412.192"/>
      <point x="744.976" y="-412.192" type="curve" smooth="yes"/>
      <point x="691.552" y="-412.192"/>
      <point x="661.368" y="-380.496"/>
    </contour>
  </outline>
</glyph>
<glyph name="eogonek" format="2">
	<unicode hex="0119"/>
	<advance width="818.896"/>
	<outline>
		<contour>
			<point x="606.352" y="86.576" type="line" smooth="yes"/>
			<point x="651.256" y="137.936"/>
			<point x="691.616" y="208.264"/>
			<point x="733.128" y="306.952" type="curve"/>
			<point x="672.888" y="306.952" type="line"/>
			<point x="598.072" y="170.584"/>
			<point x="526.224" y="131.16"/>
			<point x="429.016" y="131.16" type="curve" smooth="yes"/>
			<point x="337.624" y="131.16"/>
			<point x="277.2" y="182.16"/>
			<point x="277.2" y="317.192" type="curve" smooth="yes"/>
			<point x="277.2" y="526.032"/>
			<point x="381.712" y="800.76"/>
			<point x="537.432" y="800.76" type="curve" smooth="yes"/>
			<point x="587.408" y="800.76"/>
			<point x="613.624" y="768.696"/>
			<point x="613.624" y="717.088" type="curve" smooth="yes"/>
			<point x="613.624" y="619.88"/>
			<point x="545.8" y="550.144"/>
			<point x="233.28" y="451.936" type="curve"/>
			<point x="230.28" y="371.88" type="line"/>
			<point x="404.664" y="417.792"/>
			<point x="584.68" y="476.064"/>
			<point x="738.832" y="540.64" type="curve"/>
			<point x="778.68" y="579"/>
			<point x="805.68" y="642.424"/>
			<point x="805.68" y="703.24" type="curve" smooth="yes"/>
			<point x="805.68" y="801.568"/>
			<point x="738.624" y="884.72"/>
			<point x="571.064" y="884.72" type="curve" smooth="yes"/>
			<point x="300.776" y="884.72"/>
			<point x="49.944" y="622.224"/>
			<point x="49.944" y="271.8" type="curve" smooth="yes"/>
			<point x="49.944" y="83.416"/>
			<point x="158.816" y="-24.24"/>
			<point x="344.856" y="-24.24" type="curve" smooth="yes"/>
			<point x="396.824" y="-24.24"/>
			<point x="442.64" y="-17.664"/>
			<point x="484.456" y="-0.936" type="curve"/>
			<point x="473.304" y="14.76" type="line"/>
			<point x="360.28" y="-109.512" type="line" smooth="yes"/>
			<point x="222.272" y="-252.464"/>
			<point x="194.968" y="-333.552"/>
			<point x="194.968" y="-397.096" type="curve" smooth="yes"/>
			<point x="194.968" y="-478.488"/>
			<point x="252.36" y="-530"/>
			<point x="337.144" y="-530" type="curve" smooth="yes"/>
			<point x="425.536" y="-530"/>
			<point x="486.384" y="-489.512"/>
			<point x="598.472" y="-377.632" type="curve"/>
			<point x="574.96" y="-341.456" type="line"/>
			<point x="501.68" y="-397.616"/>
			<point x="467.528" y="-412.192"/>
			<point x="426.528" y="-412.192" type="curve" smooth="yes"/>
			<point x="373.104" y="-412.192"/>
			<point x="342.92" y="-375.408"/>
			<point x="342.92" y="-323.104" type="curve" smooth="yes"/>
			<point x="342.92" y="-265.744"/>
			<point x="367.8" y="-194.048"/>
			<point x="472.176" y="-75.064" type="curve" smooth="yes"/>
		</contour>
	</outline>
</glyph>
<glyph name="hbar" format="2">
	<unicode hex="0127"/>
	<advance width="1031.792"/>
	<outline>
		<contour>
			<point x="281.72" y="212.648" type="line"/>
			<point x="377.744" y="528.112"/>
			<point x="549.096" y="718.352"/>
			<point x="656.896" y="718.352" type="curve" smooth="yes"/>
			<point x="701.872" y="718.352"/>
			<point x="718.176" y="698.048"/>
			<point x="718.176" y="667.592" type="curve" smooth="yes"/>
			<point x="718.176" y="645.44"/>
			<point x="710.176" y="618.44"/>
			<point x="694.088" y="576.872" type="curve" smooth="yes"/>
			<point x="505.56" y="89.96" type="line" smooth="yes"/>
			<point x="472.744" y="5.208"/>
			<point x="498.04" y="-24.24"/>
			<point x="602.424" y="-24.24" type="curve" smooth="yes"/>
			<point x="722.376" y="-24.24"/>
			<point x="848.424" y="45.416"/>
			<point x="997.904" y="232.888" type="curve"/>
			<point x="961.968" y="268.552" type="line"/>
			<point x="865.704" y="177.016"/>
			<point x="779.912" y="131.32"/>
			<point x="698.376" y="130.472" type="curve"/>
			<point x="719.696" y="71.848" type="line"/>
			<point x="908.368" y="563.528" type="line" smooth="yes"/>
			<point x="934.336" y="631.584"/>
			<point x="947.912" y="690.368"/>
			<point x="947.912" y="736.76" type="curve" smooth="yes"/>
			<point x="947.912" y="822.936"/>
			<point x="902.16" y="882.992"/>
			<point x="776.048" y="882.992" type="curve" smooth="yes"/>
			<point x="615.472" y="882.992"/>
			<point x="458.384" y="728.912"/>
			<point x="316.704" y="440.664" type="curve"/>
			<point x="329.704" y="427.216" type="line"/>
			<point x="652.288" y="1423.24" type="line"/>
			<point x="622.504" y="1423.24" type="line"/>
			<point x="260.224" y="1363.216" type="line"/>
			<point x="248.408" y="1324.648" type="line"/>
			<point x="304.56" y="1294.744"/>
			<point x="337.376" y="1267.656"/>
			<point x="372.952" y="1228.144" type="curve"/>
			<point x="1.976" y="0" type="line"/>
			<point x="217.656" y="0" type="line"/>
		</contour>
		<contour>
			<point x="127.464" y="1022.64" type="line"/>
			<point x="773.992" y="1022.64" type="line"/>
			<point x="806.08" y="1127.296" type="line"/>
			<point x="158.976" y="1127.296" type="line"/>
		</contour>
	</outline>
</glyph>
<glyph name="Iogonek" format="2">
	<unicode hex="012E"/>
	<advance width="688.184"/>
	<outline>
		<contour>
			<point x="471.68" y="1251.064" type="line"/>
			<point x="119.224" y="93.208" type="line"/>
			<point x="-36.84" y="40.544" type="line"/>
			<point x="-49.264" y="0" type="line"/>
			<point x="479.48" y="0" type="line"/>
			<point x="491.904" y="40.544" type="line"/>
			<point x="362.232" y="88.936" type="line"/>
			<point x="714.688" y="1246.792" type="line"/>
			<point x="870.752" y="1299.456" type="line"/>
			<point x="883.176" y="1340" type="line"/>
			<point x="354.432" y="1340" type="line"/>
			<point x="342.008" y="1299.456" type="line"/>
		</contour>
		<contour>
			<point x="76.08" y="-324.28" type="curve" smooth="yes"/>
			<point x="76.08" y="-268.616"/>
			<point x="99.928" y="-199.16"/>
			<point x="194.968" y="-84.872" type="curve" smooth="yes"/>
			<point x="291.16" y="46" type="line"/>
			<point x="227.864" y="46" type="line"/>
			<point x="84.8" y="-118.048" type="line" smooth="yes"/>
			<point x="-44.568" y="-254.76"/>
			<point x="-67.632" y="-328.52"/>
			<point x="-67.632" y="-390.368" type="curve" smooth="yes"/>
			<point x="-67.632" y="-471.368"/>
			<point x="-15.632" y="-530"/>
			<point x="70.304" y="-530" type="curve" smooth="yes"/>
			<point x="158.696" y="-530"/>
			<point x="219.544" y="-489.512"/>
			<point x="331.632" y="-377.632" type="curve"/>
			<point x="308.12" y="-341.456" type="line"/>
			<point x="234.84" y="-397.616"/>
			<point x="200.688" y="-412.192"/>
			<point x="159.688" y="-412.192" type="curve" smooth="yes"/>
			<point x="105.112" y="-412.192"/>
			<point x="76.08" y="-377.616"/>
		</contour>
	</outline>
</glyph>
<glyph name="iogonek" format="2">
  <advance width="603.144"/>
  <unicode hex="012F"/>
  <outline>
    <contour>
      <point x="413.84" y="1275.408" type="curve" smooth="yes"/>
      <point x="413.84" y="1192.752"/>
      <point x="473.832" y="1132.304"/>
      <point x="556.248" y="1132.304" type="curve" smooth="yes"/>
      <point x="639.088" y="1132.304"/>
      <point x="699.08" y="1192.752"/>
      <point x="699.08" y="1275.408" type="curve" smooth="yes"/>
      <point x="699.08" y="1358.912"/>
      <point x="639.088" y="1418.512"/>
      <point x="556.248" y="1418.512" type="curve" smooth="yes"/>
      <point x="473.832" y="1418.512"/>
      <point x="413.84" y="1358.912"/>
    </contour>
    <contour>
      <point x="423.856" y="78.008" type="line" smooth="yes"/>
      <point x="464.008" y="115.008"/>
      <point x="511.648" y="163.768"/>
      <point x="560.44" y="222.984" type="curve"/>
      <point x="525.656" y="259.648" type="line"/>
      <point x="427.904" y="168.048"/>
      <point x="338.624" y="123.472"/>
      <point x="252.424" y="129.352" type="curve"/>
      <point x="289.776" y="71.848" type="line"/>
      <point x="545.96" y="792.408" type="line" smooth="yes"/>
      <point x="568.136" y="853.544"/>
      <point x="535.624" y="884.72"/>
      <point x="451.976" y="884.72" type="curve" smooth="yes"/>
      <point x="331.296" y="884.72"/>
      <point x="202.888" y="818.336"/>
      <point x="61.496" y="613.856" type="curve"/>
      <point x="98.28" y="580.192" type="line"/>
      <point x="190.576" y="681.064"/>
      <point x="278.4" y="731.248"/>
      <point x="365.448" y="728.824" type="curve"/>
      <point x="320.336" y="768.632" type="line"/>
      <point x="64.152" y="68.072" type="line" smooth="yes"/>
      <point x="40.976" y="5.784"/>
      <point x="72.184" y="-24.240000000000002"/>
      <point x="169.07999999999998" y="-24.240000000000002" type="curve" smooth="yes"/>
      <point x="209.408" y="-24.240000000000002"/>
      <point x="250.464" y="-16.544"/>
      <point x="293.672" y="1.576" type="curve"/>
      <point x="288.584" y="21.424" type="line"/>
      <point x="131.168" y="-111.928" type="line" smooth="yes"/>
      <point x="-21.480000000000004" y="-241.064"/>
      <point x="-53.152" y="-325.064"/>
      <point x="-53.152" y="-393.248" type="curve" smooth="yes"/>
      <point x="-53.152" y="-472.52"/>
      <point x="0.0" y="-530.0"/>
      <point x="84.78399999999999" y="-530.0" type="curve" smooth="yes"/>
      <point x="173.176" y="-530.0"/>
      <point x="234.024" y="-489.512"/>
      <point x="346.11199999999997" y="-377.632" type="curve"/>
      <point x="322.6" y="-341.456" type="line"/>
      <point x="249.32" y="-397.616"/>
      <point x="215.168" y="-412.192"/>
      <point x="174.168" y="-412.192" type="curve" smooth="yes"/>
      <point x="120.744" y="-412.192"/>
      <point x="90.56" y="-380.496"/>
      <point x="90.56" y="-329.464" type="curve" smooth="yes"/>
      <point x="90.56" y="-265.736"/>
      <point x="129.352" y="-191.464"/>
      <point x="245.368" y="-84.872" type="curve" smooth="yes"/>
    </contour>
  </outline>
</glyph>
<glyph name="dotlessi" format="2">
	<unicode hex="0131"/>
	<advance width="599.448"/>
	<outline>
		<contour>
			<point x="64.152" y="68.072" type="line" smooth="yes"/>
			<point x="40.976" y="5.784"/>
			<point x="72.184" y="-24.24"/>
			<point x="169.08" y="-24.24" type="curve" smooth="yes"/>
			<point x="287.76" y="-24.24"/>
			<point x="413.08" y="43.144"/>
			<point x="560.44" y="222.984" type="curve"/>
			<point x="525.656" y="259.648" type="line"/>
			<point x="427.904" y="168.048"/>
			<point x="338.624" y="123.472"/>
			<point x="252.424" y="129.352" type="curve"/>
			<point x="289.776" y="71.848" type="line"/>
			<point x="545.96" y="792.408" type="line" smooth="yes"/>
			<point x="568.136" y="853.544"/>
			<point x="535.624" y="884.72"/>
			<point x="451.976" y="884.72" type="curve" smooth="yes"/>
			<point x="331.296" y="884.72"/>
			<point x="202.888" y="818.336"/>
			<point x="61.496" y="613.856" type="curve"/>
			<point x="98.28" y="580.192" type="line"/>
			<point x="190.576" y="681.064"/>
			<point x="278.4" y="731.248"/>
			<point x="365.448" y="728.824" type="curve"/>
			<point x="320.336" y="768.632" type="line"/>
		</contour>
	</outline>
	<anchor name="top" x="420.312" y="860.48"/>
	<anchor name="right" x="316.064" y="0"/>
	<anchor name="bottom" x="196.92" y="0"/>
</glyph>
<glyph name="kgreenlandic" format="2">
  <advance width="1094"/>
  <unicode hex="0138"/>
  <outline>
    <contour>
      <point x="563.136" y="865.144" type="line"/>
      <point x="524.44" y="876.72"/>
      <point x="475.688" y="882.872"/>
      <point x="411.52" y="882.872" type="curve" smooth="yes"/>
      <point x="250.184" y="882.872"/>
      <point x="135.336" y="808.424"/>
      <point x="42.856" y="575.376" type="curve"/>
      <point x="89.88" y="554.44" type="line"/>
      <point x="163.848" y="692.344"/>
      <point x="213.584" y="723.952"/>
      <point x="287.28" y="723.952" type="curve" smooth="yes"/>
      <point x="292.28" y="723.952"/>
      <point x="297.28" y="723.952"/>
      <point x="302.28" y="723.952" type="curve"/>
      <point x="81.336" y="0.0" type="line"/>
      <point x="296.44" y="0.0" type="line"/>
    </contour>
    <contour>
      <point x="982.76" y="620.864" type="curve" smooth="yes"/>
      <point x="1061.208" y="620.864"/>
      <point x="1127.808" y="675.528"/>
      <point x="1127.808" y="761.216" type="curve" smooth="yes"/>
      <point x="1127.808" y="827.392"/>
      <point x="1080.176" y="884.72"/>
      <point x="1000.064" y="884.72" type="curve" smooth="yes"/>
      <point x="895.888" y="884.72"/>
      <point x="797.4159999999999" y="833.392"/>
      <point x="436.832" y="467.536" type="curve"/>
      <point x="422.504" y="437.544" type="line"/>
      <point x="574.848" y="36.08"/>
      <point x="632.2" y="-24.240000000000002"/>
      <point x="716.896" y="-24.240000000000002" type="curve" smooth="yes"/>
      <point x="817.944" y="-24.240000000000002"/>
      <point x="920.112" y="53.296"/>
      <point x="1046.96" y="234.44" type="curve"/>
      <point x="1009.448" y="267.256" type="line"/>
      <point x="930.696" y="173.352"/>
      <point x="868.2" y="130.16"/>
      <point x="823.984" y="130.16" type="curve" smooth="yes"/>
      <point x="776.472" y="130.16"/>
      <point x="731.024" y="189.904"/>
      <point x="585.048" y="556.696" type="curve"/>
      <point x="520.312" y="458.72" type="line"/>
      <point x="670.4639999999999" y="627.872"/>
      <point x="809.744" y="727.944"/>
      <point x="868.256" y="727.944" type="curve" smooth="yes"/>
      <point x="891.768" y="727.944"/>
      <point x="908.16" y="713.128"/>
      <point x="928.704" y="673.92" type="curve" smooth="yes"/>
      <point x="949.248" y="634.712"/>
      <point x="962.64" y="620.864"/>
    </contour>
  </outline>
</glyph>
<glyph name="lslash" format="2">
  <advance width="681"/>
  <unicode hex="0142"/>
  <outline>
    <contour>
      <point x="75.248" y="504.672" type="line"/>
      <point x="30.888" y="357.744" type="line"/>
      <point x="298.176" y="532.736" type="line"/>
      <point x="390.64" y="551.432" type="line"/>
      <point x="667.752" y="733.216" type="line"/>
      <point x="712.5360000000001" y="880.144" type="line"/>
      <point x="423.904" y="690.872" type="line"/>
      <point x="328.712" y="670.448" type="line"/>
    </contour>
    <contour>
      <point x="444.344" y="1230.688" type="curve"/>
      <point x="82.248" y="68.072" type="line" smooth="yes"/>
      <point x="61.344" y="3.208"/>
      <point x="96.616" y="-24.240000000000002"/>
      <point x="187.176" y="-24.240000000000002" type="curve" smooth="yes"/>
      <point x="309.672" y="-24.240000000000002"/>
      <point x="442.624" y="38.903999999999996"/>
      <point x="591.256" y="222.984" type="curve"/>
      <point x="556.472" y="259.224" type="line"/>
      <point x="456.176" y="164.656"/>
      <point x="362.656" y="122.624"/>
      <point x="273.912" y="131.048" type="curve"/>
      <point x="304.992" y="77.608" type="line"/>
      <point x="725.8" y="1423.24" type="line"/>
      <point x="696.016" y="1423.24" type="line"/>
      <point x="333.736" y="1363.216" type="line"/>
      <point x="321.92" y="1324.648" type="line"/>
      <point x="377.224" y="1295.592"/>
      <point x="409.616" y="1269.352"/>
    </contour>
  </outline>
</glyph>
<glyph name="Eng" format="2">
  <advance width="1451.392"/>
  <unicode hex="014A"/>
  <outline>
    <contour>
      <point x="1135.424" y="281.36" type="line"/>
      <point x="716.36" y="1340.0" type="line"/>
      <point x="337.856" y="1340.0" type="line"/>
      <point x="326.856" y="1302.424" type="line"/>
      <point x="471.288" y="1227.704" type="line"/>
      <point x="124.376" y="91.512" type="line"/>
      <point x="-31.688" y="40.544" type="line"/>
      <point x="-44.111999999999995" y="0.0" type="line"/>
      <point x="346.28" y="0.0" type="line"/>
      <point x="358.704" y="40.544" type="line"/>
      <point x="223.52" y="89.784" type="line"/>
      <point x="570.672" y="1224.816" type="line"/>
      <point x="524.344" y="1222.224" type="line"/>
      <point x="1030.968" y="-79.848" type="line"/>
    </contour>
    <contour>
      <point x="1090.928" y="-80.328" type="curve" smooth="yes"/>
      <point x="1497.2" y="1248.488" type="line"/>
      <point x="1653.264" y="1299.456" type="line"/>
      <point x="1665.688" y="1340.0" type="line"/>
      <point x="1275.296" y="1340.0" type="line"/>
      <point x="1262.872" y="1299.456" type="line"/>
      <point x="1398.056" y="1250.216" type="line"/>
      <point x="986.512" y="-94.688" type="line" smooth="yes"/>
      <point x="915.112" y="-327.92"/>
      <point x="802.84" y="-405.432"/>
      <point x="700.6" y="-405.432" type="curve" smooth="yes"/>
      <point x="626.112" y="-405.432"/>
      <point x="579.176" y="-301.168"/>
      <point x="522.12" y="-301.168" type="curve" smooth="yes"/>
      <point x="462.216" y="-301.168"/>
      <point x="425.976" y="-351.952"/>
      <point x="425.976" y="-407.04" type="curve" smooth="yes"/>
      <point x="425.976" y="-481.216"/>
      <point x="490.064" y="-530.0"/>
      <point x="618.568" y="-530.0" type="curve" smooth="yes"/>
      <point x="844.256" y="-530.0"/>
      <point x="996.472" y="-389.272"/>
    </contour>
  </outline>
</glyph>
<glyph name="eng" format="2">
  <advance width="1057"/>
  <unicode hex="014B"/>
  <outline>
    <contour>
      <point x="312.608" y="-530.0" type="curve" smooth="yes"/>
      <point x="498.192" y="-530.0"/>
      <point x="691.384" y="-373.824"/>
      <point x="786.92" y="-59.128" type="curve" smooth="yes"/>
      <point x="970.448" y="545.672" type="line" smooth="yes"/>
      <point x="994.872" y="625.52"/>
      <point x="1009.024" y="690.368"/>
      <point x="1009.024" y="736.76" type="curve" smooth="yes"/>
      <point x="1009.024" y="822.936"/>
      <point x="963.2719999999999" y="882.992"/>
      <point x="837.16" y="882.992" type="curve" smooth="yes"/>
      <point x="678.312" y="882.992"/>
      <point x="538.256" y="721.424"/>
      <point x="394.848" y="425.112" type="curve"/>
      <point x="401.696" y="414.512" type="line"/>
      <point x="533.992" y="863.872" type="line"/>
      <point x="478.912" y="877.144"/>
      <point x="438.096" y="883.72"/>
      <point x="381.864" y="883.72" type="curve" smooth="yes"/>
      <point x="246.152" y="883.72"/>
      <point x="127.672" y="811.816"/>
      <point x="42.856" y="572.832" type="curve"/>
      <point x="88.608" y="554.44" type="line"/>
      <point x="162.576" y="695.736"/>
      <point x="214.432" y="723.952"/>
      <point x="290.248" y="723.952" type="curve" smooth="yes"/>
      <point x="295.248" y="723.952"/>
      <point x="300.248" y="723.952"/>
      <point x="305.248" y="723.952" type="curve"/>
      <point x="86.032" y="0.0" type="line"/>
      <point x="302.86400000000003" y="0.0" type="line"/>
      <point x="367.928" y="212.648" type="line"/>
      <point x="464.376" y="527.536"/>
      <point x="616.208" y="718.352"/>
      <point x="720.552" y="718.352" type="curve" smooth="yes"/>
      <point x="765.528" y="718.352"/>
      <point x="781.832" y="698.048"/>
      <point x="781.832" y="667.592" type="curve" smooth="yes"/>
      <point x="781.832" y="639.68"/>
      <point x="771.376" y="601.584"/>
      <point x="755.68" y="547.496" type="curve" smooth="yes"/>
      <point x="538.736" y="-206.344" type="line" smooth="yes"/>
      <point x="488.464" y="-380.616"/>
      <point x="447.952" y="-420.456"/>
      <point x="380.56" y="-420.456" type="curve" smooth="yes"/>
      <point x="359.2" y="-420.456"/>
      <point x="339.504" y="-406.064"/>
      <point x="313.776" y="-364.432" type="curve" smooth="yes"/>
      <point x="288.048" y="-322.8"/>
      <point x="270.048" y="-305.68"/>
      <point x="252.536" y="-305.68" type="curve" smooth="yes"/>
      <point x="197.816" y="-305.68"/>
      <point x="158.968" y="-346.8"/>
      <point x="158.968" y="-403.192" type="curve" smooth="yes"/>
      <point x="158.968" y="-475.064"/>
      <point x="212.6" y="-530.0"/>
    </contour>
  </outline>
</glyph>
<glyph name="OE" format="2">
  <advance width="2019"/>
  <unicode hex="0152"/>
  <outline>
    <contour>
      <point x="1263.68" y="1340.0" type="line"/>
      <point x="853.68" y="0.0" type="line"/>
      <point x="1098.112" y="0.0" type="line"/>
      <point x="1507.688" y="1340.0" type="line"/>
    </contour>
    <contour>
      <point x="1090.48" y="1340.0" type="line" smooth="yes"/>
      <point x="493.208" y="1340.0"/>
      <point x="144.496" y="966.184"/>
      <point x="144.496" y="521.712" type="curve" smooth="yes"/>
      <point x="144.496" y="227.28"/>
      <point x="334.928" y="0.0"/>
      <point x="775.656" y="0.0" type="curve" smooth="yes"/>
      <point x="1615.56" y="0.0" type="line"/>
      <point x="1715.8" y="-68.328" type="line"/>
      <point x="1741.824" y="-68.328" type="line"/>
      <point x="1963.296" y="389.68" type="line"/>
      <point x="1920.24" y="413.648" type="line"/>
      <point x="1586.08" y="73.936" type="line"/>
      <point x="1677.376" y="104.96000000000001" type="line"/>
      <point x="864.56" y="104.96000000000001" type="line"/>
      <point x="540.488" y="104.96000000000001"/>
      <point x="393.416" y="263.432"/>
      <point x="393.416" y="510.512" type="curve" smooth="yes"/>
      <point x="393.416" y="903.584"/>
      <point x="615.344" y="1235.04"/>
      <point x="1096.368" y="1235.04" type="curve" smooth="yes"/>
      <point x="1981.072" y="1235.04" type="line"/>
      <point x="1938.8" y="1267.184" type="line"/>
      <point x="2011.184" y="947.672" type="line"/>
      <point x="2066.392" y="947.672" type="line"/>
      <point x="2131.152" y="1400.448" type="line"/>
      <point x="2107.248" y="1400.448" type="line"/>
      <point x="1972.256" y="1340.0" type="line"/>
    </contour>
    <contour>
      <point x="1655.52" y="441.0" type="line"/>
      <point x="1735.52" y="703.0" type="line"/>
      <point x="1815.52" y="965.0" type="line"/>
      <point x="1730.104" y="965.0" type="line"/>
      <point x="1644.648" y="754.904" type="line"/>
      <point x="1196.192" y="754.904" type="line"/>
      <point x="1165.104" y="651.096" type="line"/>
      <point x="1613.56" y="651.096" type="line"/>
      <point x="1570.104" y="441.0" type="line"/>
    </contour>
  </outline>
</glyph>
<glyph name="Scedilla" format="2">
  <advance width="1090.216"/>
  <unicode hex="015E"/>
  <outline>
    <contour>
      <point x="1011.552" y="1161.832" type="curve"/>
      <point x="938.168" y="1278.088" type="line"/>
      <point x="1032.424" y="930.912" type="line"/>
      <point x="1085.024" y="930.912" type="line"/>
      <point x="1152.368" y="1406.48" type="line"/>
      <point x="1123.496" y="1406.48" type="line"/>
      <point x="984.856" y="1320.512" type="line"/>
      <point x="1034.528" y="1319.36" type="line"/>
      <point x="945.28" y="1352.12"/>
      <point x="868.072" y="1364.24"/>
      <point x="776.496" y="1364.24" type="curve" smooth="yes"/>
      <point x="468.024" y="1364.24"/>
      <point x="269.312" y="1195.88"/>
      <point x="269.312" y="948.624" type="curve" smooth="yes"/>
      <point x="269.312" y="794.288"/>
      <point x="343.8" y="703.088"/>
      <point x="501.992" y="624.608" type="curve" smooth="yes"/>
      <point x="659.76" y="547.128"/>
      <point x="785.432" y="496.376"/>
      <point x="785.432" y="335.376" type="curve" smooth="yes"/>
      <point x="785.432" y="177.392"/>
      <point x="659.064" y="79.08"/>
      <point x="421.816" y="79.08" type="curve" smooth="yes"/>
      <point x="341.704" y="79.08"/>
      <point x="273.2" y="93.56"/>
      <point x="193.24" y="127.312" type="curve"/>
      <point x="296.176" y="47.64" type="line"/>
      <point x="131.424" y="408.472" type="line"/>
      <point x="81.52" y="408.472" type="line"/>
      <point x="83.49600000000001" y="42.88" type="line"/>
      <point x="184.528" y="-3.3040000000000003"/>
      <point x="284.608" y="-24.240000000000002"/>
      <point x="415.76" y="-24.240000000000002" type="curve" smooth="yes"/>
      <point x="766.768" y="-24.240000000000002"/>
      <point x="998.328" y="152.12"/>
      <point x="998.328" y="428.496" type="curve" smooth="yes"/>
      <point x="998.328" y="607.96"/>
      <point x="909.984" y="705.68"/>
      <point x="743.4" y="788.248" type="curve" smooth="yes"/>
      <point x="576.24" y="871.392"/>
      <point x="476.24" y="917.24"/>
      <point x="476.24" y="1042.536" type="curve" smooth="yes"/>
      <point x="476.24" y="1185.064"/>
      <point x="570.64" y="1266.888"/>
      <point x="740.888" y="1266.888" type="curve" smooth="yes"/>
      <point x="855.8" y="1266.888"/>
      <point x="934.304" y="1232.8"/>
    </contour>
    <contour>
      <point x="278.744" y="-530.0" type="curve"/>
      <point x="447.496" y="-530.0"/>
      <point x="572.864" y="-413.64"/>
      <point x="572.864" y="-281.424" type="curve" smooth="yes"/>
      <point x="572.864" y="-209.184"/>
      <point x="527.08" y="-144.64"/>
      <point x="379.632" y="-112.432" type="curve"/>
      <point x="347.328" y="-219.816" type="line"/>
      <point x="571.744" y="49.576" type="line"/>
      <point x="489.84" y="49.576" type="line"/>
      <point x="261.096" y="-222.872" type="line"/>
      <point x="256.368" y="-237.904" type="line"/>
      <point x="405.784" y="-264.384"/>
      <point x="448.696" y="-300.808"/>
      <point x="448.696" y="-350.6" type="curve" smooth="yes"/>
      <point x="448.696" y="-410.0"/>
      <point x="405.904" y="-452.64"/>
      <point x="339.808" y="-452.64" type="curve" smooth="yes"/>
      <point x="270.144" y="-452.64"/>
      <point x="263.632" y="-384.552"/>
      <point x="210.784" y="-384.552" type="curve" smooth="yes"/>
      <point x="169.512" y="-384.552"/>
      <point x="146.088" y="-414.248"/>
      <point x="146.088" y="-447.096" type="curve" smooth="yes"/>
      <point x="146.088" y="-490.304"/>
      <point x="189.84" y="-530.0"/>
    </contour>
  </outline>
</glyph>
<glyph name="scedilla" format="2">
	<unicode hex="015F"/>
	<advance width="701.664"/>
	<outline>
		<contour>
			<point x="64.76" y="-530" type="curve"/>
			<point x="233.512" y="-530"/>
			<point x="358.88" y="-413.64"/>
			<point x="358.88" y="-281.424" type="curve" smooth="yes"/>
			<point x="358.88" y="-209.184"/>
			<point x="313.096" y="-144.64"/>
			<point x="165.648" y="-112.432" type="curve"/>
			<point x="133.344" y="-219.816" type="line"/>
			<point x="337.6" y="24.232" type="line"/>
			<point x="255.696" y="24.232" type="line"/>
			<point x="47.112" y="-222.872" type="line"/>
			<point x="42.384" y="-237.904" type="line"/>
			<point x="191.8" y="-264.384"/>
			<point x="234.712" y="-300.808"/>
			<point x="234.712" y="-350.6" type="curve" smooth="yes"/>
			<point x="234.712" y="-410"/>
			<point x="191.92" y="-452.64"/>
			<point x="125.824" y="-452.64" type="curve" smooth="yes"/>
			<point x="56.16" y="-452.64"/>
			<point x="49.648" y="-384.552"/>
			<point x="-3.2" y="-384.552" type="curve" smooth="yes"/>
			<point x="-44.472" y="-384.552"/>
			<point x="-67.896" y="-414.248"/>
			<point x="-67.896" y="-447.096" type="curve" smooth="yes"/>
			<point x="-67.896" y="-490.304"/>
			<point x="-24.144" y="-530"/>
		</contour>
		<contour>
			<point x="96.056" y="215.992" type="curve" smooth="yes"/>
			<point x="36.576" y="215.992"/>
			<point x="-7.328" y="174.328"/>
			<point x="-7.328" y="118.576" type="curve" smooth="yes"/>
			<point x="-7.328" y="42.912"/>
			<point x="66.032" y="-24.24"/>
			<point x="236.352" y="-24.24" type="curve" smooth="yes"/>
			<point x="438.152" y="-24.24"/>
			<point x="585.928" y="106.112"/>
			<point x="585.928" y="260.712" type="curve" smooth="yes"/>
			<point x="585.928" y="334.92"/>
			<point x="552.504" y="412.496"/>
			<point x="453.208" y="514.104" type="curve" smooth="yes"/>
			<point x="353.912" y="615.712"/>
			<point x="327.456" y="664.384"/>
			<point x="327.456" y="708.384" type="curve" smooth="yes"/>
			<point x="327.456" y="766.36"/>
			<point x="360.52" y="802.12"/>
			<point x="419.888" y="802.12" type="curve" smooth="yes"/>
			<point x="457.856" y="802.12"/>
			<point x="500.672" y="771.184"/>
			<point x="537.944" y="716.792" type="curve" smooth="yes"/>
			<point x="575.216" y="662.4"/>
			<point x="592.064" y="649.856"/>
			<point x="604.216" y="649.856" type="curve" smooth="yes"/>
			<point x="661.816" y="649.856"/>
			<point x="702.872" y="687.824"/>
			<point x="702.872" y="744" type="curve" smooth="yes"/>
			<point x="702.872" y="821.056"/>
			<point x="638.664" y="884.72"/>
			<point x="480.224" y="884.72" type="curve" smooth="yes"/>
			<point x="277.36" y="884.72"/>
			<point x="158.616" y="760.304"/>
			<point x="158.616" y="608.192" type="curve" smooth="yes"/>
			<point x="158.616" y="523.536"/>
			<point x="194.096" y="451.448"/>
			<point x="293.576" y="357.2" type="curve" smooth="yes"/>
			<point x="393.056" y="262.952"/>
			<point x="416.056" y="215.312"/>
			<point x="416.056" y="161.552" type="curve" smooth="yes"/>
			<point x="416.056" y="92.12"/>
			<point x="364.264" y="54.48"/>
			<point x="293.168" y="54.48" type="curve" smooth="yes"/>
			<point x="252.352" y="54.48"/>
			<point x="212.536" y="75.6"/>
			<point x="168.872" y="138.568" type="curve" smooth="yes"/>
			<point x="125.208" y="201.536"/>
			<point x="111.512" y="215.992"/>
		</contour>
	</outline>
</glyph>
<glyph name="uni0162" format="2">
	<unicode hex="0162"/>
	<advance width="1279"/>
	<outline>
		<contour>
			<point x="1364.144" y="1227.344" type="line"/>
			<point x="1297.44" y="1256.52" type="line"/>
			<point x="1352.248" y="951.712" type="line"/>
			<point x="1399.424" y="951.712" type="line"/>
			<point x="1500.696" y="1410.968" type="line"/>
			<point x="1471.824" y="1410.968" type="line"/>
			<point x="1295.896" y="1318.912" type="line"/>
			<point x="1398.28" y="1340" type="line"/>
			<point x="428.752" y="1340" type="line"/>
			<point x="512.136" y="1318.912" type="line"/>
			<point x="397.752" y="1410.968" type="line"/>
			<point x="369.728" y="1410.968" type="line"/>
			<point x="202.344" y="968.744" type="line"/>
			<point x="248.672" y="948.048" type="line"/>
			<point x="501.896" y="1255.976" type="line"/>
			<point x="371.816" y="1227.344" type="line"/>
		</contour>
		<contour>
			<point x="770.984" y="1263.736" type="line"/>
			<point x="414.496" y="93.208" type="line"/>
			<point x="258.432" y="40.544" type="line"/>
			<point x="246.008" y="0" type="line"/>
			<point x="774.752" y="0" type="line"/>
			<point x="787.176" y="40.544" type="line"/>
			<point x="657.504" y="88.936" type="line"/>
			<point x="1015.416" y="1263.736" type="line"/>
		</contour>
		<contour>
			<point x="316.712" y="-530" type="curve"/>
			<point x="485.464" y="-530"/>
			<point x="610.832" y="-413.64"/>
			<point x="610.832" y="-281.424" type="curve" smooth="yes"/>
			<point x="610.832" y="-209.184"/>
			<point x="565.048" y="-144.64"/>
			<point x="417.6" y="-112.432" type="curve"/>
			<point x="385.296" y="-219.816" type="line"/>
			<point x="609.712" y="49.576" type="line"/>
			<point x="527.808" y="49.576" type="line"/>
			<point x="299.064" y="-222.872" type="line"/>
			<point x="294.336" y="-237.904" type="line"/>
			<point x="443.752" y="-264.384"/>
			<point x="486.664" y="-300.808"/>
			<point x="486.664" y="-350.6" type="curve" smooth="yes"/>
			<point x="486.664" y="-410"/>
			<point x="443.872" y="-452.64"/>
			<point x="377.776" y="-452.64" type="curve" smooth="yes"/>
			<point x="308.112" y="-452.64"/>
			<point x="301.6" y="-384.552"/>
			<point x="248.752" y="-384.552" type="curve" smooth="yes"/>
			<point x="207.48" y="-384.552"/>
			<point x="184.056" y="-414.248"/>
			<point x="184.056" y="-447.096" type="curve" smooth="yes"/>
			<point x="184.056" y="-490.304"/>
			<point x="227.808" y="-530"/>
		</contour>
	</outline>
</glyph>
<glyph name="uni0163" format="2">
  <advance width="671"/>
  <unicode hex="0163"/>
  <outline>
    <contour>
      <point x="113.128" y="768.184" type="line"/>
      <point x="711.552" y="768.184" type="line"/>
      <point x="729.672" y="860.48" type="line"/>
      <point x="131.976" y="860.48" type="line"/>
    </contour>
    <contour>
      <point x="367.576" y="302.584" type="curve" smooth="yes"/>
      <point x="596.76" y="1061.616" type="line"/>
      <point x="375.264" y="1061.616" type="line"/>
      <point x="152.296" y="307.23199999999997" type="line" smooth="yes"/>
      <point x="127.664" y="226.03199999999998"/>
      <point x="116.424" y="160.8"/>
      <point x="116.424" y="117.592" type="curve" smooth="yes"/>
      <point x="116.424" y="11.424"/>
      <point x="164.6" y="-23.088"/>
      <point x="236.864" y="-23.088" type="curve" smooth="yes"/>
      <point x="351.4" y="-23.088"/>
      <point x="483.936" y="78.016"/>
      <point x="623.68" y="297.992" type="curve"/>
      <point x="577.744" y="330.776" type="line"/>
      <point x="485.2" y="211.2"/>
      <point x="406.552" y="149.16"/>
      <point x="367.672" y="149.16" type="curve" smooth="yes"/>
      <point x="350.704" y="149.16"/>
      <point x="340.584" y="158.736"/>
      <point x="340.584" y="183.28" type="curve" smooth="yes"/>
      <point x="340.584" y="203.096"/>
      <point x="344.15999999999997" y="230.184"/>
    </contour>
    <contour>
      <point x="78.75999999999999" y="-530.0" type="curve"/>
      <point x="247.512" y="-530.0"/>
      <point x="372.88" y="-413.64"/>
      <point x="372.88" y="-281.424" type="curve" smooth="yes"/>
      <point x="372.88" y="-209.184"/>
      <point x="327.096" y="-144.64"/>
      <point x="179.648" y="-112.432" type="curve"/>
      <point x="147.344" y="-219.816" type="line"/>
      <point x="371.76" y="49.576" type="line"/>
      <point x="289.856" y="49.576" type="line"/>
      <point x="61.111999999999995" y="-222.872" type="line"/>
      <point x="56.384" y="-237.904" type="line"/>
      <point x="205.8" y="-264.384"/>
      <point x="248.712" y="-300.808"/>
      <point x="248.712" y="-350.6" type="curve" smooth="yes"/>
      <point x="248.712" y="-410.0"/>
      <point x="205.92000000000002" y="-452.64"/>
      <point x="139.824" y="-452.64" type="curve" smooth="yes"/>
      <point x="70.16" y="-452.64"/>
      <point x="63.647999999999996" y="-384.552"/>
      <point x="10.8" y="-384.552" type="curve" smooth="yes"/>
      <point x="-30.472" y="-384.552"/>
      <point x="-53.896" y="-414.248"/>
      <point x="-53.896" y="-447.096" type="curve" smooth="yes"/>
      <point x="-53.896" y="-490.304"/>
      <point x="-10.143999999999998" y="-530.0"/>
    </contour>
  </outline>
</glyph>
<glyph name="Tbar" format="2">
	<unicode hex="0166"/>
	<advance width="1286.728"/>
	<outline>
		<contour>
			<point x="321.248" y="625.68" type="line"/>
			<point x="1079.248" y="625.68" type="line"/>
			<point x="1112.912" y="734.944" type="line"/>
			<point x="354.488" y="734.944" type="line"/>
		</contour>
		<contour>
			<point x="1366.72" y="1227.344" type="line"/>
			<point x="1300.016" y="1256.52" type="line"/>
			<point x="1354.824" y="951.712" type="line"/>
			<point x="1402" y="951.712" type="line"/>
			<point x="1503.272" y="1410.968" type="line"/>
			<point x="1474.4" y="1410.968" type="line"/>
			<point x="1298.472" y="1318.912" type="line"/>
			<point x="1400.856" y="1340" type="line"/>
			<point x="431.328" y="1340" type="line"/>
			<point x="514.712" y="1318.912" type="line"/>
			<point x="400.328" y="1410.968" type="line"/>
			<point x="372.304" y="1410.968" type="line"/>
			<point x="204.92" y="968.744" type="line"/>
			<point x="251.248" y="948.048" type="line"/>
			<point x="504.472" y="1255.976" type="line"/>
			<point x="374.392" y="1227.344" type="line"/>
		</contour>
		<contour>
			<point x="773.56" y="1263.736" type="line"/>
			<point x="417.072" y="93.208" type="line"/>
			<point x="261.008" y="40.544" type="line"/>
			<point x="248.584" y="0" type="line"/>
			<point x="777.328" y="0" type="line"/>
			<point x="789.752" y="40.544" type="line"/>
			<point x="660.08" y="88.936" type="line"/>
			<point x="1017.992" y="1263.736" type="line"/>
		</contour>
	</outline>
</glyph>
<glyph name="Uogonek" format="2">
  <advance width="1467"/>
  <unicode hex="0172"/>
  <outline>
    <contour>
      <point x="468.624" y="529.688" type="curve" smooth="yes"/>
      <point x="687.4159999999999" y="1246.792" type="line"/>
      <point x="843.48" y="1299.456" type="line"/>
      <point x="855.904" y="1340.0" type="line"/>
      <point x="327.16" y="1340.0" type="line"/>
      <point x="314.736" y="1299.456" type="line"/>
      <point x="444.408" y="1251.064" type="line"/>
      <point x="220.40800000000002" y="517.912" type="line" smooth="yes"/>
      <point x="113.344" y="167.992"/>
      <point x="299.424" y="-24.240000000000002"/>
      <point x="661.168" y="-24.240000000000002" type="curve" smooth="yes"/>
      <point x="971.096" y="-24.240000000000002"/>
      <point x="1185.52" y="127.6"/>
      <point x="1289.672" y="469.512" type="curve" smooth="yes"/>
      <point x="1527.128" y="1248.488" type="line"/>
      <point x="1683.192" y="1299.456" type="line"/>
      <point x="1695.616" y="1340.0" type="line"/>
      <point x="1305.224" y="1340.0" type="line"/>
      <point x="1292.8" y="1299.456" type="line"/>
      <point x="1427.984" y="1250.216" type="line"/>
      <point x="1204.16" y="516.984" type="line" smooth="yes"/>
      <point x="1118.52" y="235.76"/>
      <point x="956.84" y="136.51999999999998"/>
      <point x="742.568" y="136.51999999999998" type="curve" smooth="yes"/>
      <point x="477.072" y="136.51999999999998"/>
      <point x="387.86400000000003" y="264.832"/>
    </contour>
    <contour>
      <point x="531.176" y="-329.464" type="curve" smooth="yes"/>
      <point x="531.176" y="-273.8"/>
      <point x="559.056" y="-204.344"/>
      <point x="662.16" y="-90.632" type="curve" smooth="yes"/>
      <point x="779.664" y="46.0" type="line"/>
      <point x="716.368" y="46.0" type="line"/>
      <point x="550.264" y="-123.80799999999999" type="line" smooth="yes"/>
      <point x="411.104" y="-260.52"/>
      <point x="387.464" y="-333.128"/>
      <point x="387.464" y="-394.976" type="curve" smooth="yes"/>
      <point x="387.464" y="-474.248"/>
      <point x="440.616" y="-530.0"/>
      <point x="525.4" y="-530.0" type="curve" smooth="yes"/>
      <point x="613.792" y="-530.0"/>
      <point x="674.64" y="-489.512"/>
      <point x="786.728" y="-377.632" type="curve"/>
      <point x="763.216" y="-341.456" type="line"/>
      <point x="689.936" y="-397.616"/>
      <point x="655.784" y="-412.192"/>
      <point x="614.784" y="-412.192" type="curve" smooth="yes"/>
      <point x="561.36" y="-412.192"/>
      <point x="531.176" y="-380.496"/>
    </contour>
  </outline>
</glyph>
<glyph name="uogonek" format="2">
  <advance width="1065.792"/>
  <unicode hex="0173"/>
  <outline>
    <contour>
      <point x="1055.52" y="234.43200000000002" type="curve"/>
      <point x="1019.888" y="269.824" type="line"/>
      <point x="923.408" y="173.984"/>
      <point x="830.312" y="129.832"/>
      <point x="754.288" y="131.472" type="curve"/>
      <point x="775.336" y="77.032" type="line"/>
      <point x="1012.728" y="860.48" type="line"/>
      <point x="795.896" y="860.48" type="line"/>
      <point x="707.088" y="571.088" type="line" smooth="yes"/>
      <point x="627.536" y="310.824"/>
      <point x="479.448" y="142.704"/>
      <point x="386.528" y="142.704" type="curve" smooth="yes"/>
      <point x="348.616" y="142.704"/>
      <point x="330.344" y="160.552"/>
      <point x="330.344" y="189.43200000000002" type="curve" smooth="yes"/>
      <point x="330.344" y="209.28"/>
      <point x="338.03999999999996" y="233.552"/>
      <point x="352.704" y="275.544" type="curve" smooth="yes"/>
      <point x="541.208" y="792.408" type="line" smooth="yes"/>
      <point x="563.5360000000001" y="854.544"/>
      <point x="530.872" y="884.72"/>
      <point x="444.344" y="884.72" type="curve" smooth="yes"/>
      <point x="320.632" y="884.72"/>
      <point x="189.61599999999999" y="813.728"/>
      <point x="47.496" y="614.856" type="curve"/>
      <point x="86.008" y="580.616" type="line"/>
      <point x="182.336" y="683.216"/>
      <point x="275.04" y="732.4"/>
      <point x="364.816" y="729.4" type="curve"/>
      <point x="323.128" y="788.632" type="line"/>
      <point x="144.272" y="298.104" type="line" smooth="yes"/>
      <point x="116.272" y="221.56"/>
      <point x="101.848" y="160.89600000000002"/>
      <point x="101.848" y="114.50399999999999" type="curve" smooth="yes"/>
      <point x="101.848" y="31.208"/>
      <point x="148.48" y="-24.240000000000002"/>
      <point x="262.104" y="-24.240000000000002" type="curve" smooth="yes"/>
      <point x="415.568" y="-24.240000000000002"/>
      <point x="539.136" y="87.24799999999999"/>
      <point x="714.664" y="433.52" type="curve"/>
      <point x="697.064" y="445.392" type="line"/>
      <point x="583.4" y="59.592" type="line" smooth="yes"/>
      <point x="566.4639999999999" y="-0.30400000000000005"/>
      <point x="593.976" y="-24.240000000000002"/>
      <point x="681.12" y="-24.240000000000002" type="curve" smooth="yes"/>
      <point x="718.392" y="-24.240000000000002"/>
      <point x="759.512" y="-14.968"/>
      <point x="803.36" y="6.184" type="curve"/>
      <point x="790.36" y="18.304" type="line"/>
      <point x="660.424" y="-95.47200000000001" type="line" smooth="yes"/>
      <point x="510.496" y="-236.968"/>
      <point x="479.096" y="-312.968"/>
      <point x="479.096" y="-387.488" type="curve" smooth="yes"/>
      <point x="479.096" y="-468.488"/>
      <point x="536.856" y="-530.0"/>
      <point x="623.944" y="-530.0" type="curve" smooth="yes"/>
      <point x="712.336" y="-530.0"/>
      <point x="773.184" y="-489.512"/>
      <point x="885.2719999999999" y="-377.632" type="curve"/>
      <point x="861.76" y="-341.456" type="line"/>
      <point x="788.48" y="-397.616"/>
      <point x="754.328" y="-412.192"/>
      <point x="713.328" y="-412.192" type="curve" smooth="yes"/>
      <point x="655.296" y="-412.192"/>
      <point x="623.384" y="-375.888"/>
      <point x="623.384" y="-321.976" type="curve" smooth="yes"/>
      <point x="623.384" y="-254.792"/>
      <point x="656.056" y="-184.16"/>
      <point x="772.896" y="-62.6" type="curve" smooth="yes"/>
      <point x="929.608" y="94.104" type="line" smooth="yes"/>
      <point x="981.856" y="147.016"/>
      <point x="1023.28" y="192.136"/>
    </contour>
  </outline>
</glyph>
<glyph name="uni018F" format="2">
	<unicode hex="018F"/>
	<advance width="1354.464"/>
	<outline>
		<contour>
			<point x="142.664" y="570.168" type="line"/>
			<point x="132.424" y="515.6"/>
			<point x="127.88" y="463.728"/>
			<point x="127.88" y="416.128" type="curve" smooth="yes"/>
			<point x="127.88" y="131.336"/>
			<point x="292.336" y="-24.24"/>
			<point x="594.168" y="-24.24" type="curve" smooth="yes"/>
			<point x="1042.032" y="-24.24"/>
			<point x="1353.64" y="402.16"/>
			<point x="1353.64" y="828.392" type="curve" smooth="yes"/>
			<point x="1353.64" y="1144.992"/>
			<point x="1155.704" y="1364.24"/>
			<point x="831.928" y="1364.24" type="curve" smooth="yes"/>
			<point x="618.112" y="1364.24"/>
			<point x="422.696" y="1265.488"/>
			<point x="231.832" y="1085.92" type="curve"/>
			<point x="275.672" y="1020.84" type="line"/>
			<point x="425.456" y="1147.296"/>
			<point x="547.152" y="1197.088"/>
			<point x="746.312" y="1197.088" type="curve" smooth="yes"/>
			<point x="978.104" y="1197.088"/>
			<point x="1129.224" y="1031.408"/>
			<point x="1129.224" y="774.648" type="curve" smooth="yes"/>
			<point x="1129.224" y="404.888"/>
			<point x="903.208" y="77.624"/>
			<point x="612.016" y="77.624" type="curve" smooth="yes"/>
			<point x="433.976" y="77.624"/>
			<point x="341.576" y="167.72"/>
			<point x="341.576" y="353.576" type="curve" smooth="yes"/>
			<point x="341.576" y="404.816"/>
			<point x="348.424" y="463.328"/>
			<point x="362.968" y="528.808" type="curve"/>
			<point x="279.832" y="465.208" type="line"/>
			<point x="1138.16" y="465.208" type="line"/>
			<point x="1174.248" y="570.168" type="line"/>
		</contour>
	</outline>
</glyph>
<glyph name="ohorn" format="2">
	<unicode hex="01A1"/>
	<advance width="955.92"/>
	<outline>
		<contour>
			<point x="363.552" y="59.72" type="curve" smooth="yes"/>
			<point x="299.208" y="59.72"/>
			<point x="269.568" y="103.456"/>
			<point x="269.568" y="213.344" type="curve" smooth="yes"/>
			<point x="269.568" y="478.16"/>
			<point x="421.992" y="800.76"/>
			<point x="565.28" y="800.76" type="curve" smooth="yes"/>
			<point x="629.624" y="800.76"/>
			<point x="659.264" y="757.024"/>
			<point x="659.264" y="647.136" type="curve" smooth="yes"/>
			<point x="659.264" y="382.32"/>
			<point x="506.84" y="59.72"/>
		</contour>
		<contour>
			<point x="874.888" y="563.04" type="curve" smooth="yes"/>
			<point x="874.888" y="665.04"/>
			<point x="844.464" y="752.704"/>
			<point x="785.28" y="805.128" type="curve"/>
			<point x="781.824" y="787.008" type="line"/>
			<point x="965.52" y="770.128"/>
			<point x="1072.512" y="866.424"/>
			<point x="1072.512" y="1021.688" type="curve" smooth="yes"/>
			<point x="1072.512" y="1081.712"/>
			<point x="1039.728" y="1118.224"/>
			<point x="982.824" y="1118.224" type="curve" smooth="yes"/>
			<point x="921.8" y="1118.224"/>
			<point x="879.32" y="1077.984"/>
			<point x="879.32" y="1029.56" type="curve" smooth="yes"/>
			<point x="879.32" y="1010.528"/>
			<point x="890.56" y="986.472"/>
			<point x="890.56" y="952.6" type="curve" smooth="yes"/>
			<point x="890.56" y="897.512"/>
			<point x="865.016" y="856.512"/>
			<point x="780.136" y="856.512" type="curve" smooth="yes"/>
			<point x="709.2" y="856.512"/>
			<point x="646.752" y="884.72"/>
			<point x="565.16" y="884.72" type="curve" smooth="yes"/>
			<point x="280.536" y="884.72"/>
			<point x="53.944" y="615.648"/>
			<point x="53.944" y="297.44" type="curve" smooth="yes"/>
			<point x="53.944" y="99.296"/>
			<point x="165.24" y="-24.24"/>
			<point x="363.672" y="-24.24" type="curve" smooth="yes"/>
			<point x="648.296" y="-24.24"/>
			<point x="874.888" y="244.832"/>
		</contour>
	</outline>
	<anchor name="top" x="583.88" y="860.48"/>
	<anchor name="bottom" x="332.856" y="0"/>
</glyph>
<glyph name="Uhorn" format="2">
	<unicode hex="01AF"/>
	<advance width="1477.016"/>
	<outline>
		<contour>
			<point x="468.624" y="529.688" type="curve" smooth="yes"/>
			<point x="687.416" y="1246.792" type="line"/>
			<point x="843.48" y="1299.456" type="line"/>
			<point x="855.904" y="1340" type="line"/>
			<point x="327.16" y="1340" type="line"/>
			<point x="314.736" y="1299.456" type="line"/>
			<point x="444.408" y="1251.064" type="line"/>
			<point x="220.408" y="517.912" type="line" smooth="yes"/>
			<point x="113.344" y="167.992"/>
			<point x="299.424" y="-24.24"/>
			<point x="661.168" y="-24.24" type="curve" smooth="yes"/>
			<point x="971.096" y="-24.24"/>
			<point x="1185.52" y="127.6"/>
			<point x="1289.672" y="469.512" type="curve" smooth="yes"/>
			<point x="1527.704" y="1250.792" type="line"/>
			<point x="1775.624" y="1260.096"/>
			<point x="1873.312" y="1357"/>
			<point x="1873.312" y="1501.208" type="curve" smooth="yes"/>
			<point x="1873.312" y="1561.232"/>
			<point x="1840.528" y="1597.744"/>
			<point x="1783.624" y="1597.744" type="curve" smooth="yes"/>
			<point x="1722.6" y="1597.744"/>
			<point x="1680.12" y="1557.504"/>
			<point x="1680.12" y="1509.08" type="curve" smooth="yes"/>
			<point x="1680.12" y="1490.048"/>
			<point x="1691.36" y="1465.992"/>
			<point x="1691.36" y="1432.12" type="curve" smooth="yes"/>
			<point x="1691.36" y="1370.152"/>
			<point x="1664.816" y="1340"/>
			<point x="1531.808" y="1340" type="curve" smooth="yes"/>
			<point x="1305.224" y="1340" type="line"/>
			<point x="1292.8" y="1299.456" type="line"/>
			<point x="1427.984" y="1250.216" type="line"/>
			<point x="1204.16" y="516.984" type="line" smooth="yes"/>
			<point x="1118.52" y="235.76"/>
			<point x="956.84" y="136.52"/>
			<point x="742.568" y="136.52" type="curve" smooth="yes"/>
			<point x="477.072" y="136.52"/>
			<point x="387.864" y="264.832"/>
		</contour>
	</outline>
	<anchor name="UCtop" x="1021.928" y="1340"/>
	<anchor name="bottom" x="634.128" y="0"/>
</glyph>
